<svg xmlns="http://www.w3.org/2000/svg" width="1920" height="1080"><path d="M-193,-263L562,-245L1006,-257Z" fill="#d66641" stroke="#d66641" stroke-width="1.51"/><path d="M929,1323L546,1325L1286,1330Z" fill="#a59aad" stroke="#a59aad" stroke-width="1.51"/><path d="M-193,-263L1006,-257L1308,-263Z" fill="#da8156" stroke="#da8156" stroke-width="1.51"/><path d="M1440,1317L1286,1330L1647,1321Z" fill="#748bc2" stroke="#748bc2" stroke-width="1.51"/><path d="M1308,-263L1598,-224L1840,-255Z" fill="#b3767b" stroke="#b3767b" stroke-width="1.51"/><path d="M2085,665L1946,712L2097,876Z" fill="#8b9dcc" stroke="#8b9dcc" stroke-width="1.51"/><path d="M1946,712L1934,818L2097,876Z" fill="#84a0cd" stroke="#84a0cd" stroke-width="1.51"/><path d="M1958,515L2070,544L2104,375Z" fill="#a89fac" stroke="#a89fac" stroke-width="1.51"/><path d="M2070,544L2085,665L2104,375Z" fill="#a59eb0" stroke="#a59eb0" stroke-width="1.51"/><path d="M2085,665L2097,876L2104,375Z" fill="#999bc0" stroke="#999bc0" stroke-width="1.51"/><path d="M2097,876L1948,945L2112,1040Z" fill="#6988c0" stroke="#6988c0" stroke-width="1.51"/><path d="M1940,190L2104,375L2119,225Z" fill="#ab858e" stroke="#ab858e" stroke-width="1.51"/><path d="M1978,-14L2103,129L2131,-107Z" fill="#a75671" stroke="#a75671" stroke-width="1.51"/><path d="M2103,129L2119,225L2131,-107Z" fill="#a85c76" stroke="#a85c76" stroke-width="1.51"/><path d="M1647,1321L1286,1330L2132,1337Z" fill="#5876b6" stroke="#5876b6" stroke-width="1.51"/><path d="M1895,1262L1647,1321L2132,1337Z" fill="#4463ac" stroke="#4463ac" stroke-width="1.51"/><path d="M1984,1124L1895,1262L2132,1337Z" fill="#4162ab" stroke="#4162ab" stroke-width="1.51"/><path d="M2097,876L2112,1040L2132,1114Z" fill="#5d79b8" stroke="#5d79b8" stroke-width="1.51"/><path d="M2104,375L2097,876L2132,1114Z" fill="#8391c6" stroke="#8391c6" stroke-width="1.51"/><path d="M2119,225L2104,375L2132,1114Z" fill="#a099b4" stroke="#a099b4" stroke-width="1.51"/><path d="M1984,1124L2132,1337L2132,1114Z" fill="#4261aa" stroke="#4261aa" stroke-width="1.51"/><path d="M1947,-196L2131,-107L2135,-165Z" fill="#994065" stroke="#994065" stroke-width="1.51"/><path d="M1840,-255L1947,-196L2135,-165Z" fill="#974c69" stroke="#974c69" stroke-width="1.51"/><path d="M2119,225L2132,1114L2135,-165Z" fill="#a58b9b" stroke="#a58b9b" stroke-width="1.51"/><path d="M2131,-107L2119,225L2135,-165Z" fill="#a34a6c" stroke="#a34a6c" stroke-width="1.51"/><path d="M2112,1040L1984,1124L2132,1114Z" fill="#5272b4" stroke="#5272b4" stroke-width="1.51"/><path d="M1947,-196L1978,-14L2131,-107Z" fill="#a34e69" stroke="#a34e69" stroke-width="1.51"/><path d="M1940,190L1882,384L2104,375Z" fill="#ae979a" stroke="#ae979a" stroke-width="1.51"/><path d="M2103,129L1940,190L2119,225Z" fill="#ac7884" stroke="#ac7884" stroke-width="1.51"/><path d="M1948,945L1984,1124L2112,1040Z" fill="#5b84bd" stroke="#5b84bd" stroke-width="1.51"/><path d="M1978,-14L1940,190L2103,129Z" fill="#ae707e" stroke="#ae707e" stroke-width="1.51"/><path d="M1882,384L1958,515L2104,375Z" fill="#aba4a8" stroke="#aba4a8" stroke-width="1.51"/><path d="M1893,45L1940,190L1978,-14Z" fill="#b2757f" stroke="#b2757f" stroke-width="1.51"/><path d="M2070,544L1958,515L2085,665Z" fill="#a3a5ba" stroke="#a3a5ba" stroke-width="1.51"/><path d="M1958,515L1946,712L2085,665Z" fill="#9ea9c5" stroke="#9ea9c5" stroke-width="1.51"/><path d="M1934,818L1948,945L2097,876Z" fill="#779aca" stroke="#779aca" stroke-width="1.51"/><path d="M1754,1254L1647,1321L1895,1262Z" fill="#5277b6" stroke="#5277b6" stroke-width="1.51"/><path d="M1824,294L1882,384L1940,190Z" fill="#b4a19b" stroke="#b4a19b" stroke-width="1.51"/><path d="M1789,677L1946,712L1958,515Z" fill="#a2b7cc" stroke="#a2b7cc" stroke-width="1.51"/><path d="M1947,-196L1800,-103L1978,-14Z" fill="#aa5f6f" stroke="#aa5f6f" stroke-width="1.51"/><path d="M1800,-103L1893,45L1978,-14Z" fill="#b16d78" stroke="#b16d78" stroke-width="1.51"/><path d="M1752,1165L1895,1262L1984,1124Z" fill="#4c7cb8" stroke="#4c7cb8" stroke-width="1.51"/><path d="M1780,1008L1752,1165L1984,1124Z" fill="#5d8fc2" stroke="#5d8fc2" stroke-width="1.51"/><path d="M1948,945L1780,1008L1984,1124Z" fill="#6194c4" stroke="#6194c4" stroke-width="1.51"/><path d="M1934,818L1821,878L1948,945Z" fill="#7ba6cf" stroke="#7ba6cf" stroke-width="1.51"/><path d="M1882,384L1797,400L1958,515Z" fill="#b1b2af" stroke="#b1b2af" stroke-width="1.51"/><path d="M1797,400L1733,510L1958,515Z" fill="#b4bdb8" stroke="#b4bdb8" stroke-width="1.51"/><path d="M1733,510L1789,677L1958,515Z" fill="#b0c1c5" stroke="#b0c1c5" stroke-width="1.51"/><path d="M1893,45L1759,133L1940,190Z" fill="#b88888" stroke="#b88888" stroke-width="1.51"/><path d="M1789,677L1934,818L1946,712Z" fill="#94b3d7" stroke="#94b3d7" stroke-width="1.51"/><path d="M1840,-255L1800,-103L1947,-196Z" fill="#a35d6f" stroke="#a35d6f" stroke-width="1.51"/><path d="M1821,878L1780,1008L1948,945Z" fill="#75a4ce" stroke="#75a4ce" stroke-width="1.51"/><path d="M1789,677L1821,878L1934,818Z" fill="#8fb4d7" stroke="#8fb4d7" stroke-width="1.51"/><path d="M1759,133L1824,294L1940,190Z" fill="#ba9992" stroke="#ba9992" stroke-width="1.51"/><path d="M1800,-103L1759,133L1893,45Z" fill="#bb7c80" stroke="#bb7c80" stroke-width="1.51"/><path d="M1752,1165L1754,1254L1895,1262Z" fill="#517db9" stroke="#517db9" stroke-width="1.51"/><path d="M1824,294L1797,400L1882,384Z" fill="#b6b1a7" stroke="#b6b1a7" stroke-width="1.51"/><path d="M1683,-99L1652,119L1759,133Z" fill="#c6908a" stroke="#c6908a" stroke-width="1.51"/><path d="M1733,510L1687,553L1789,677Z" fill="#b7cdcd" stroke="#b7cdcd" stroke-width="1.51"/><path d="M1683,-99L1759,133L1800,-103Z" fill="#be7e80" stroke="#be7e80" stroke-width="1.51"/><path d="M1789,677L1644,707L1821,878Z" fill="#9ec3de" stroke="#9ec3de" stroke-width="1.51"/><path d="M1759,133L1626,225L1824,294Z" fill="#c2a899" stroke="#c2a899" stroke-width="1.51"/><path d="M1683,-99L1800,-103L1840,-255Z" fill="#b06b74" stroke="#b06b74" stroke-width="1.51"/><path d="M1598,-224L1683,-99L1840,-255Z" fill="#b06f77" stroke="#b06f77" stroke-width="1.51"/><path d="M-193,-263L251,-209L562,-245Z" fill="#d14233" stroke="#d14233" stroke-width="1.51"/><path d="M1670,1022L1780,1008L1821,878Z" fill="#78acd1" stroke="#78acd1" stroke-width="1.51"/><path d="M1644,707L1580,835L1821,878Z" fill="#9bc8e0" stroke="#9bc8e0" stroke-width="1.51"/><path d="M1626,225L1797,400L1824,294Z" fill="#bfb3a5" stroke="#bfb3a5" stroke-width="1.51"/><path d="M1580,835L1670,1022L1821,878Z" fill="#88bcd9" stroke="#88bcd9" stroke-width="1.51"/><path d="M1670,1022L1752,1165L1780,1008Z" fill="#6ba1cb" stroke="#6ba1cb" stroke-width="1.51"/><path d="M1652,443L1733,510L1797,400Z" fill="#bdc7ba" stroke="#bdc7ba" stroke-width="1.51"/><path d="M1626,225L1652,443L1797,400Z" fill="#c2c1af" stroke="#c2c1af" stroke-width="1.51"/><path d="M1687,553L1644,707L1789,677Z" fill="#b1ced9" stroke="#b1ced9" stroke-width="1.51"/><path d="M1670,1022L1615,1101L1752,1165Z" fill="#6ca2cc" stroke="#6ca2cc" stroke-width="1.51"/><path d="M1615,1101L1647,1321L1752,1165Z" fill="#5f92c4" stroke="#5f92c4" stroke-width="1.51"/><path d="M1752,1165L1647,1321L1754,1254Z" fill="#5883bc" stroke="#5883bc" stroke-width="1.51"/><path d="M1652,119L1626,225L1759,133Z" fill="#c8a595" stroke="#c8a595" stroke-width="1.51"/><path d="M1515,79L1652,119L1683,-99Z" fill="#ce948b" stroke="#ce948b" stroke-width="1.51"/><path d="M1652,443L1687,553L1733,510Z" fill="#bfd0c3" stroke="#bfd0c3" stroke-width="1.51"/><path d="M1615,1101L1477,1159L1647,1321Z" fill="#6b9ac8" stroke="#6b9ac8" stroke-width="1.51"/><path d="M1626,225L1540,235L1652,443Z" fill="#cdc2ab" stroke="#cdc2ab" stroke-width="1.51"/><path d="M1580,835L1485,939L1670,1022Z" fill="#92c3dd" stroke="#92c3dd" stroke-width="1.51"/><path d="M1459,-107L1515,79L1683,-99Z" fill="#d08f87" stroke="#d08f87" stroke-width="1.51"/><path d="M1652,443L1444,574L1687,553Z" fill="#c9dbcb" stroke="#c9dbcb" stroke-width="1.51"/><path d="M1444,574L1644,707L1687,553Z" fill="#c1dbd9" stroke="#c1dbd9" stroke-width="1.51"/><path d="M1540,235L1432,358L1652,443Z" fill="#d1ceb4" stroke="#d1ceb4" stroke-width="1.51"/><path d="M1598,-224L1459,-107L1683,-99Z" fill="#c4807d" stroke="#c4807d" stroke-width="1.51"/><path d="M251,-209L403,-218L562,-245Z" fill="#da613e" stroke="#da613e" stroke-width="1.51"/><path d="M562,-245L900,-234L1006,-257Z" fill="#de8b61" stroke="#de8b61" stroke-width="1.51"/><path d="M1308,-263L1459,-183L1598,-224Z" fill="#c38381" stroke="#c38381" stroke-width="1.51"/><path d="M1444,574L1466,715L1644,707Z" fill="#c3e0e6" stroke="#c3e0e6" stroke-width="1.51"/><path d="M1485,939L1615,1101L1670,1022Z" fill="#81b7d6" stroke="#81b7d6" stroke-width="1.51"/><path d="M1477,1159L1440,1317L1647,1321Z" fill="#6f91c5" stroke="#6f91c5" stroke-width="1.51"/><path d="M1432,358L1444,574L1652,443Z" fill="#d3dec6" stroke="#d3dec6" stroke-width="1.51"/><path d="M1540,235L1626,225L1652,119Z" fill="#ceb29c" stroke="#ceb29c" stroke-width="1.51"/><path d="M1515,79L1540,235L1652,119Z" fill="#d3ac99" stroke="#d3ac99" stroke-width="1.51"/><path d="M1466,715L1580,835L1644,707Z" fill="#b1d7e9" stroke="#b1d7e9" stroke-width="1.51"/><path d="M1459,-183L1459,-107L1598,-224Z" fill="#c68480" stroke="#c68480" stroke-width="1.51"/><path d="M1485,939L1477,1159L1615,1101Z" fill="#82b5d6" stroke="#82b5d6" stroke-width="1.51"/><path d="M1457,870L1485,939L1580,835Z" fill="#a2d1e5" stroke="#a2d1e5" stroke-width="1.51"/><path d="M1466,715L1457,870L1580,835Z" fill="#afd8e9" stroke="#afd8e9" stroke-width="1.51"/><path d="M1006,-257L1134,-232L1308,-263Z" fill="#d88e82" stroke="#d88e82" stroke-width="1.51"/><path d="M1358,-67L1351,40L1459,-107Z" fill="#df9b8c" stroke="#df9b8c" stroke-width="1.51"/><path d="M1338,986L1477,1159L1485,939Z" fill="#92c4de" stroke="#92c4de" stroke-width="1.51"/><path d="M1351,40L1303,270L1515,79Z" fill="#e4b89e" stroke="#e4b89e" stroke-width="1.51"/><path d="M1459,-107L1351,40L1515,79Z" fill="#dda090" stroke="#dda090" stroke-width="1.51"/><path d="M1515,79L1303,270L1540,235Z" fill="#dec0a3" stroke="#dec0a3" stroke-width="1.51"/><path d="M1303,270L1432,358L1540,235Z" fill="#dfd1b1" stroke="#dfd1b1" stroke-width="1.51"/><path d="M1432,358L1300,425L1444,574Z" fill="#dfe6ca" stroke="#dfe6ca" stroke-width="1.51"/><path d="M1338,986L1316,1113L1477,1159Z" fill="#91bddb" stroke="#91bddb" stroke-width="1.51"/><path d="M750,1299L546,1325L929,1323Z" fill="#a7919d" stroke="#a7919d" stroke-width="1.51"/><path d="M1300,425L1367,589L1444,574Z" fill="#e0efd5" stroke="#e0efd5" stroke-width="1.51"/><path d="M1444,574L1367,589L1466,715Z" fill="#d0eae4" stroke="#d0eae4" stroke-width="1.51"/><path d="M1290,840L1457,870L1466,715Z" fill="#b9e0ed" stroke="#b9e0ed" stroke-width="1.51"/><path d="M1316,1113L1440,1317L1477,1159Z" fill="#7fa7d0" stroke="#7fa7d0" stroke-width="1.51"/><path d="M1457,870L1338,986L1485,939Z" fill="#a3d1e5" stroke="#a3d1e5" stroke-width="1.51"/><path d="M1316,1113L1286,1330L1440,1317Z" fill="#839fcd" stroke="#839fcd" stroke-width="1.51"/><path d="M1299,691L1290,840L1466,715Z" fill="#c9e7f2" stroke="#c9e7f2" stroke-width="1.51"/><path d="M1230,1241L1286,1330L1316,1113Z" fill="#8da8d1" stroke="#8da8d1" stroke-width="1.51"/><path d="M1358,-67L1459,-107L1459,-183Z" fill="#d78f84" stroke="#d78f84" stroke-width="1.51"/><path d="M1367,589L1299,691L1466,715Z" fill="#d2ebec" stroke="#d2ebec" stroke-width="1.51"/><path d="M1290,840L1338,986L1457,870Z" fill="#b0d9e9" stroke="#b0d9e9" stroke-width="1.51"/><path d="M1308,-263L1358,-67L1459,-183Z" fill="#d38c85" stroke="#d38c85" stroke-width="1.51"/><path d="M1303,270L1300,425L1432,358Z" fill="#e5debd" stroke="#e5debd" stroke-width="1.51"/><path d="M1083,1273L929,1323L1286,1330Z" fill="#9b9dc1" stroke="#9b9dc1" stroke-width="1.51"/><path d="M1134,-232L1170,-25L1308,-263Z" fill="#e29589" stroke="#e29589" stroke-width="1.51"/><path d="M1137,133L1199,206L1351,40Z" fill="#f4c0a2" stroke="#f4c0a2" stroke-width="1.51"/><path d="M1199,206L1303,270L1351,40Z" fill="#efc5a6" stroke="#efc5a6" stroke-width="1.51"/><path d="M1170,-25L1351,40L1358,-67Z" fill="#eaa492" stroke="#eaa492" stroke-width="1.51"/><path d="M1308,-263L1170,-25L1358,-67Z" fill="#e49688" stroke="#e49688" stroke-width="1.51"/><path d="M1300,425L1141,537L1367,589Z" fill="#eaf3d6" stroke="#eaf3d6" stroke-width="1.51"/><path d="M1141,537L1299,691L1367,589Z" fill="#e3f2e5" stroke="#e3f2e5" stroke-width="1.51"/><path d="M1227,814L1290,840L1299,691Z" fill="#cce9f2" stroke="#cce9f2" stroke-width="1.51"/><path d="M1198,1004L1316,1113L1338,986Z" fill="#a2cbe2" stroke="#a2cbe2" stroke-width="1.51"/><path d="M1290,840L1198,1004L1338,986Z" fill="#b2d8e8" stroke="#b2d8e8" stroke-width="1.51"/><path d="M1170,-25L1137,133L1351,40Z" fill="#f5b29b" stroke="#f5b29b" stroke-width="1.51"/><path d="M1141,537L1177,701L1299,691Z" fill="#e6f4ee" stroke="#e6f4ee" stroke-width="1.51"/><path d="M1153,388L1300,425L1303,270Z" fill="#eee4c1" stroke="#eee4c1" stroke-width="1.51"/><path d="M1184,1171L1230,1241L1316,1113Z" fill="#95b4d7" stroke="#95b4d7" stroke-width="1.51"/><path d="M417,1299L-9,1328L546,1325Z" fill="#aa6379" stroke="#aa6379" stroke-width="1.51"/><path d="M1227,814L1198,1004L1290,840Z" fill="#bfe2ee" stroke="#bfe2ee" stroke-width="1.51"/><path d="M1177,701L1227,814L1299,691Z" fill="#d8eff5" stroke="#d8eff5" stroke-width="1.51"/><path d="M1198,1004L1184,1171L1316,1113Z" fill="#a0c2de" stroke="#a0c2de" stroke-width="1.51"/><path d="M1153,388L1141,537L1300,425Z" fill="#f2f0cf" stroke="#f2f0cf" stroke-width="1.51"/><path d="M1199,206L1153,388L1303,270Z" fill="#f3dbb7" stroke="#f3dbb7" stroke-width="1.51"/><path d="M1230,1241L1083,1273L1286,1330Z" fill="#93a1cf" stroke="#93a1cf" stroke-width="1.51"/><path d="M1134,-232L1068,-81L1170,-25Z" fill="#ef9d82" stroke="#ef9d82" stroke-width="1.51"/><path d="M1089,218L1153,388L1199,206Z" fill="#f8dbaf" stroke="#f8dbaf" stroke-width="1.51"/><path d="M1035,822L1198,1004L1227,814Z" fill="#c8e5eb" stroke="#c8e5eb" stroke-width="1.51"/><path d="M1177,701L1035,822L1227,814Z" fill="#d9eeee" stroke="#d9eeee" stroke-width="1.51"/><path d="M1184,1171L1083,1273L1230,1241Z" fill="#99add0" stroke="#99add0" stroke-width="1.51"/><path d="M1141,537L1041,663L1177,701Z" fill="#eef7e3" stroke="#eef7e3" stroke-width="1.51"/><path d="M1035,822L982,997L1198,1004Z" fill="#c5dfdd" stroke="#c5dfdd" stroke-width="1.51"/><path d="M1003,1130L1184,1171L1198,1004Z" fill="#aac5d6" stroke="#aac5d6" stroke-width="1.51"/><path d="M982,997L1003,1130L1198,1004Z" fill="#b6d1d4" stroke="#b6d1d4" stroke-width="1.51"/><path d="M1137,133L1089,218L1199,206Z" fill="#f9cea2" stroke="#f9cea2" stroke-width="1.51"/><path d="M999,98L1137,133L1170,-25Z" fill="#fbb992" stroke="#fbb992" stroke-width="1.51"/><path d="M1041,663L1035,822L1177,701Z" fill="#e5f4ea" stroke="#e5f4ea" stroke-width="1.51"/><path d="M1003,1130L1083,1273L1184,1171Z" fill="#a2b5cb" stroke="#a2b5cb" stroke-width="1.51"/><path d="M980,436L1141,537L1153,388Z" fill="#f9f3c2" stroke="#f9f3c2" stroke-width="1.51"/><path d="M1068,-81L999,98L1170,-25Z" fill="#f8ae89" stroke="#f8ae89" stroke-width="1.51"/><path d="M980,436L1024,545L1141,537Z" fill="#faf9c5" stroke="#faf9c5" stroke-width="1.51"/><path d="M1024,545L1041,663L1141,537Z" fill="#f5fad4" stroke="#f5fad4" stroke-width="1.51"/><path d="M1089,218L980,436L1153,388Z" fill="#fae8b1" stroke="#fae8b1" stroke-width="1.51"/><path d="M1006,-257L1068,-81L1134,-232Z" fill="#e5967b" stroke="#e5967b" stroke-width="1.51"/><path d="M999,98L1089,218L1137,133Z" fill="#fcc897" stroke="#fcc897" stroke-width="1.51"/><path d="M864,255L879,382L980,436Z" fill="#ffe9a0" stroke="#ffe9a0" stroke-width="1.51"/><path d="M928,878L982,997L1035,822Z" fill="#d3e7d5" stroke="#d3e7d5" stroke-width="1.51"/><path d="M916,-19L999,98L1068,-81Z" fill="#fcb07e" stroke="#fcb07e" stroke-width="1.51"/><path d="M1003,1130L929,1323L1083,1273Z" fill="#a6adbd" stroke="#a6adbd" stroke-width="1.51"/><path d="M999,98L864,255L1089,218Z" fill="#ffd390" stroke="#ffd390" stroke-width="1.51"/><path d="M864,255L980,436L1089,218Z" fill="#ffe49f" stroke="#ffe49f" stroke-width="1.51"/><path d="M1006,-257L900,-234L1068,-81Z" fill="#e89872" stroke="#e89872" stroke-width="1.51"/><path d="M840,739L1035,822L1041,663Z" fill="#ebf5dc" stroke="#ebf5dc" stroke-width="1.51"/><path d="M900,-234L916,-19L1068,-81Z" fill="#f5a170" stroke="#f5a170" stroke-width="1.51"/><path d="M880,97L864,255L999,98Z" fill="#ffc885" stroke="#ffc885" stroke-width="1.51"/><path d="M857,1182L929,1323L1003,1130Z" fill="#abb3b8" stroke="#abb3b8" stroke-width="1.51"/><path d="M840,739L928,878L1035,822Z" fill="#e1efd5" stroke="#e1efd5" stroke-width="1.51"/><path d="M1024,545L890,511L1041,663Z" fill="#fbfdc8" stroke="#fbfdc8" stroke-width="1.51"/><path d="M890,511L840,739L1041,663Z" fill="#f7f9cd" stroke="#f7f9cd" stroke-width="1.51"/><path d="M980,436L890,511L1024,545Z" fill="#fffbb9" stroke="#fffbb9" stroke-width="1.51"/><path d="M562,-245L741,-186L900,-234Z" fill="#e0875a" stroke="#e0875a" stroke-width="1.51"/><path d="M916,-19L880,97L999,98Z" fill="#ffb97d" stroke="#ffb97d" stroke-width="1.51"/><path d="M982,997L857,1182L1003,1130Z" fill="#b7c7c2" stroke="#b7c7c2" stroke-width="1.51"/><path d="M831,961L857,1182L982,997Z" fill="#bfcfc2" stroke="#bfcfc2" stroke-width="1.51"/><path d="M928,878L831,961L982,997Z" fill="#cddfcb" stroke="#cddfcb" stroke-width="1.51"/><path d="M879,382L890,511L980,436Z" fill="#fff3ac" stroke="#fff3ac" stroke-width="1.51"/><path d="M695,643L840,739L890,511Z" fill="#f8f1c0" stroke="#f8f1c0" stroke-width="1.51"/><path d="M756,493L695,643L890,511Z" fill="#fff3af" stroke="#fff3af" stroke-width="1.51"/><path d="M741,-186L747,-111L900,-234Z" fill="#e8905f" stroke="#e8905f" stroke-width="1.51"/><path d="M900,-234L747,-111L916,-19Z" fill="#f39965" stroke="#f39965" stroke-width="1.51"/><path d="M840,739L773,874L928,878Z" fill="#e0e7cc" stroke="#e0e7cc" stroke-width="1.51"/><path d="M857,1182L750,1299L929,1323Z" fill="#a9a2ab" stroke="#a9a2ab" stroke-width="1.51"/><path d="M773,874L831,961L928,878Z" fill="#d5e0c7" stroke="#d5e0c7" stroke-width="1.51"/><path d="M831,961L701,1038L857,1182Z" fill="#bfc6b8" stroke="#bfc6b8" stroke-width="1.51"/><path d="M733,57L880,97L916,-19Z" fill="#ffb174" stroke="#ffb174" stroke-width="1.51"/><path d="M747,-111L733,57L916,-19Z" fill="#f9a469" stroke="#f9a469" stroke-width="1.51"/><path d="M701,1038L707,1161L857,1182Z" fill="#b7b7ae" stroke="#b7b7ae" stroke-width="1.51"/><path d="M864,255L734,358L879,382Z" fill="#ffe094" stroke="#ffe094" stroke-width="1.51"/><path d="M750,260L864,255L880,97Z" fill="#ffcd83" stroke="#ffcd83" stroke-width="1.51"/><path d="M879,382L756,493L890,511Z" fill="#fff0a9" stroke="#fff0a9" stroke-width="1.51"/><path d="M750,260L734,358L864,255Z" fill="#ffd88a" stroke="#ffd88a" stroke-width="1.51"/><path d="M733,57L750,260L880,97Z" fill="#ffbf78" stroke="#ffbf78" stroke-width="1.51"/><path d="M734,358L756,493L879,382Z" fill="#ffe89c" stroke="#ffe89c" stroke-width="1.51"/><path d="M707,1161L750,1299L857,1182Z" fill="#ada9a9" stroke="#ada9a9" stroke-width="1.51"/><path d="M632,806L773,874L840,739Z" fill="#e4e3c3" stroke="#e4e3c3" stroke-width="1.51"/><path d="M695,643L632,806L840,739Z" fill="#efe7c3" stroke="#efe7c3" stroke-width="1.51"/><path d="M773,874L701,1038L831,961Z" fill="#ced3bc" stroke="#ced3bc" stroke-width="1.51"/><path d="M598,-89L733,57L747,-111Z" fill="#f5985d" stroke="#f5985d" stroke-width="1.51"/><path d="M733,57L629,200L750,260Z" fill="#febf73" stroke="#febf73" stroke-width="1.51"/><path d="M624,528L695,643L756,493Z" fill="#feeca7" stroke="#feeca7" stroke-width="1.51"/><path d="M632,806L701,1038L773,874Z" fill="#d6d5b9" stroke="#d6d5b9" stroke-width="1.51"/><path d="M632,806L550,1012L701,1038Z" fill="#d1c8af" stroke="#d1c8af" stroke-width="1.51"/><path d="M583,131L629,200L733,57Z" fill="#fdb06a" stroke="#fdb06a" stroke-width="1.51"/><path d="M707,1161L550,1191L750,1299Z" fill="#ae9f9f" stroke="#ae9f9f" stroke-width="1.51"/><path d="M550,1191L546,1325L750,1299Z" fill="#ac8f95" stroke="#ac8f95" stroke-width="1.51"/><path d="M629,200L734,358L750,260Z" fill="#fecf80" stroke="#fecf80" stroke-width="1.51"/><path d="M734,358L573,417L756,493Z" fill="#ffe194" stroke="#ffe194" stroke-width="1.51"/><path d="M573,417L624,528L756,493Z" fill="#ffe398" stroke="#ffe398" stroke-width="1.51"/><path d="M741,-186L598,-89L747,-111Z" fill="#ee8d56" stroke="#ee8d56" stroke-width="1.51"/><path d="M629,200L573,417L734,358Z" fill="#ffd182" stroke="#ffd182" stroke-width="1.51"/><path d="M562,-245L598,-89L741,-186Z" fill="#e78251" stroke="#e78251" stroke-width="1.51"/><path d="M598,-89L583,131L733,57Z" fill="#fb9e60" stroke="#fb9e60" stroke-width="1.51"/><path d="M549,714L632,806L695,643Z" fill="#f2deba" stroke="#f2deba" stroke-width="1.51"/><path d="M550,1012L550,1191L701,1038Z" fill="#c0b1a3" stroke="#c0b1a3" stroke-width="1.51"/><path d="M701,1038L550,1191L707,1161Z" fill="#b9aea4" stroke="#b9aea4" stroke-width="1.51"/><path d="M624,528L549,714L695,643Z" fill="#fae2ad" stroke="#fae2ad" stroke-width="1.51"/><path d="M186,1259L-9,1328L417,1299Z" fill="#a95a73" stroke="#a95a73" stroke-width="1.51"/><path d="M387,840L448,1001L550,1012Z" fill="#d4b79f" stroke="#d4b79f" stroke-width="1.51"/><path d="M468,59L583,131L598,-89Z" fill="#fa9557" stroke="#fa9557" stroke-width="1.51"/><path d="M426,593L549,714L624,528Z" fill="#fcd9a1" stroke="#fcd9a1" stroke-width="1.51"/><path d="M443,210L573,417L629,200Z" fill="#febf71" stroke="#febf71" stroke-width="1.51"/><path d="M387,840L550,1012L632,806Z" fill="#ddc6a9" stroke="#ddc6a9" stroke-width="1.51"/><path d="M472,733L387,840L632,806Z" fill="#eaccaa" stroke="#eaccaa" stroke-width="1.51"/><path d="M549,714L472,733L632,806Z" fill="#efd4b1" stroke="#efd4b1" stroke-width="1.51"/><path d="M437,-42L468,59L598,-89Z" fill="#f4864d" stroke="#f4864d" stroke-width="1.51"/><path d="M583,131L443,210L629,200Z" fill="#fdb065" stroke="#fdb065" stroke-width="1.51"/><path d="M447,1115L550,1191L550,1012Z" fill="#bea599" stroke="#bea599" stroke-width="1.51"/><path d="M573,417L438,435L624,528Z" fill="#ffd68b" stroke="#ffd68b" stroke-width="1.51"/><path d="M438,435L426,593L624,528Z" fill="#ffd68e" stroke="#ffd68e" stroke-width="1.51"/><path d="M443,210L438,435L573,417Z" fill="#fec576" stroke="#fec576" stroke-width="1.51"/><path d="M562,-245L403,-218L598,-89Z" fill="#e37446" stroke="#e37446" stroke-width="1.51"/><path d="M403,-218L437,-42L598,-89Z" fill="#ed7643" stroke="#ed7643" stroke-width="1.51"/><path d="M468,59L443,210L583,131Z" fill="#fca25b" stroke="#fca25b" stroke-width="1.51"/><path d="M426,593L472,733L549,714Z" fill="#f8d1a8" stroke="#f8d1a8" stroke-width="1.51"/><path d="M417,1299L546,1325L550,1191Z" fill="#ad848b" stroke="#ad848b" stroke-width="1.51"/><path d="M448,1001L447,1115L550,1012Z" fill="#c6ac9a" stroke="#c6ac9a" stroke-width="1.51"/><path d="M447,1115L417,1299L550,1191Z" fill="#b38f8d" stroke="#b38f8d" stroke-width="1.51"/><path d="M289,404L438,435L443,210Z" fill="#fdb86f" stroke="#fdb86f" stroke-width="1.51"/><path d="M291,236L289,404L443,210Z" fill="#fca862" stroke="#fca862" stroke-width="1.51"/><path d="M280,1127L417,1299L447,1115Z" fill="#b58888" stroke="#b58888" stroke-width="1.51"/><path d="M333,94L443,210L468,59Z" fill="#fa9554" stroke="#fa9554" stroke-width="1.51"/><path d="M437,-42L333,94L468,59Z" fill="#f7844d" stroke="#f7844d" stroke-width="1.51"/><path d="M426,593L315,700L472,733Z" fill="#f9c8a1" stroke="#f9c8a1" stroke-width="1.51"/><path d="M315,700L387,840L472,733Z" fill="#efc1a4" stroke="#efc1a4" stroke-width="1.51"/><path d="M250,1237L186,1259L417,1299Z" fill="#ad6a7b" stroke="#ad6a7b" stroke-width="1.51"/><path d="M280,1127L250,1237L417,1299Z" fill="#b17881" stroke="#b17881" stroke-width="1.51"/><path d="M403,-218L309,-21L437,-42Z" fill="#ec6c3f" stroke="#ec6c3f" stroke-width="1.51"/><path d="M309,-21L333,94L437,-42Z" fill="#f47947" stroke="#f47947" stroke-width="1.51"/><path d="M268,578L426,593L438,435Z" fill="#ffc988" stroke="#ffc988" stroke-width="1.51"/><path d="M289,404L268,578L438,435Z" fill="#ffbd7c" stroke="#ffbd7c" stroke-width="1.51"/><path d="M333,94L291,236L443,210Z" fill="#fb9956" stroke="#fb9956" stroke-width="1.51"/><path d="M387,840L272,996L448,1001Z" fill="#d5ac99" stroke="#d5ac99" stroke-width="1.51"/><path d="M280,1127L447,1115L448,1001Z" fill="#c29b91" stroke="#c29b91" stroke-width="1.51"/><path d="M272,996L280,1127L448,1001Z" fill="#c79b90" stroke="#c79b90" stroke-width="1.51"/><path d="M288,849L272,996L387,840Z" fill="#ddac98" stroke="#ddac98" stroke-width="1.51"/><path d="M251,-209L309,-21L403,-218Z" fill="#e45b39" stroke="#e45b39" stroke-width="1.51"/><path d="M268,578L315,700L426,593Z" fill="#fcc194" stroke="#fcc194" stroke-width="1.51"/><path d="M-193,-263L164,-170L251,-209Z" fill="#cd322b" stroke="#cd322b" stroke-width="1.51"/><path d="M315,700L288,849L387,840Z" fill="#eab79e" stroke="#eab79e" stroke-width="1.51"/><path d="M-193,-263L-32,-164L164,-170Z" fill="#c92527" stroke="#c92527" stroke-width="1.51"/><path d="M176,716L181,831L288,849Z" fill="#e8a895" stroke="#e8a895" stroke-width="1.51"/><path d="M185,349L289,404L291,236Z" fill="#fca363" stroke="#fca363" stroke-width="1.51"/><path d="M251,-209L164,-170L309,-21Z" fill="#e45035" stroke="#e45035" stroke-width="1.51"/><path d="M176,716L288,849L315,700Z" fill="#f0b19a" stroke="#f0b19a" stroke-width="1.51"/><path d="M97,185L291,236L333,94Z" fill="#f8874e" stroke="#f8874e" stroke-width="1.51"/><path d="M103,50L97,185L333,94Z" fill="#f37444" stroke="#f37444" stroke-width="1.51"/><path d="M309,-21L103,50L333,94Z" fill="#f46e43" stroke="#f46e43" stroke-width="1.51"/><path d="M181,831L272,996L288,849Z" fill="#dda494" stroke="#dda494" stroke-width="1.51"/><path d="M121,531L268,578L289,404Z" fill="#ffb379" stroke="#ffb379" stroke-width="1.51"/><path d="M164,-170L121,-114L309,-21Z" fill="#e54f34" stroke="#e54f34" stroke-width="1.51"/><path d="M268,578L176,716L315,700Z" fill="#f9b595" stroke="#f9b595" stroke-width="1.51"/><path d="M121,-114L103,50L309,-21Z" fill="#ea5a38" stroke="#ea5a38" stroke-width="1.51"/><path d="M272,996L164,1157L280,1127Z" fill="#c18685" stroke="#c18685" stroke-width="1.51"/><path d="M164,1157L250,1237L280,1127Z" fill="#b6777f" stroke="#b6777f" stroke-width="1.51"/><path d="M185,349L121,531L289,404Z" fill="#fcaa6d" stroke="#fcaa6d" stroke-width="1.51"/><path d="M97,185L185,349L291,236Z" fill="#f89155" stroke="#f89155" stroke-width="1.51"/><path d="M90,1019L164,1157L272,996Z" fill="#c28684" stroke="#c28684" stroke-width="1.51"/><path d="M181,831L90,1019L272,996Z" fill="#d2968b" stroke="#d2968b" stroke-width="1.51"/><path d="M121,531L176,716L268,578Z" fill="#fab087" stroke="#fab087" stroke-width="1.51"/><path d="M164,1157L186,1259L250,1237Z" fill="#af6b79" stroke="#af6b79" stroke-width="1.51"/><path d="M38,342L27,519L121,531Z" fill="#f69f69" stroke="#f69f69" stroke-width="1.51"/><path d="M121,531L7,728L176,716Z" fill="#f3a689" stroke="#f3a689" stroke-width="1.51"/><path d="M7,728L12,833L176,716Z" fill="#e79c8c" stroke="#e79c8c" stroke-width="1.51"/><path d="M20,955L90,1019L181,831Z" fill="#d18f87" stroke="#d18f87" stroke-width="1.51"/><path d="M12,833L20,955L181,831Z" fill="#d89589" stroke="#d89589" stroke-width="1.51"/><path d="M176,716L12,833L181,831Z" fill="#e5a08f" stroke="#e5a08f" stroke-width="1.51"/><path d="M38,342L121,531L185,349Z" fill="#f79f64" stroke="#f79f64" stroke-width="1.51"/><path d="M97,185L38,342L185,349Z" fill="#f48e54" stroke="#f48e54" stroke-width="1.51"/><path d="M164,1157L-9,1328L186,1259Z" fill="#a95d71" stroke="#a95d71" stroke-width="1.51"/><path d="M35,206L38,342L97,185Z" fill="#f0814b" stroke="#f0814b" stroke-width="1.51"/><path d="M27,519L7,728L121,531Z" fill="#f4a37b" stroke="#f4a37b" stroke-width="1.51"/><path d="M3,-15L103,50L121,-114Z" fill="#e44e33" stroke="#e44e33" stroke-width="1.51"/><path d="M90,1019L-67,1138L164,1157Z" fill="#b87379" stroke="#b87379" stroke-width="1.51"/><path d="M-67,1138L-9,1328L164,1157Z" fill="#a95d6f" stroke="#a95d6f" stroke-width="1.51"/><path d="M-32,-164L121,-114L164,-170Z" fill="#d83a2c" stroke="#d83a2c" stroke-width="1.51"/><path d="M-18,83L97,185L103,50Z" fill="#ec663e" stroke="#ec663e" stroke-width="1.51"/><path d="M-32,-164L3,-15L121,-114Z" fill="#db3a2b" stroke="#db3a2b" stroke-width="1.51"/><path d="M-18,83L35,206L97,185Z" fill="#ed6f40" stroke="#ed6f40" stroke-width="1.51"/><path d="M3,-15L-18,83L103,50Z" fill="#e75436" stroke="#e75436" stroke-width="1.51"/><path d="M20,955L-67,1138L90,1019Z" fill="#be7a7b" stroke="#be7a7b" stroke-width="1.51"/><path d="M-196,578L-160,729L7,728Z" fill="#e09385" stroke="#e09385" stroke-width="1.51"/><path d="M-153,1043L-67,1138L20,955Z" fill="#b57378" stroke="#b57378" stroke-width="1.51"/><path d="M-196,578L7,728L27,519Z" fill="#eb9a7a" stroke="#eb9a7a" stroke-width="1.51"/><path d="M-18,83L-118,223L35,206Z" fill="#e76b3f" stroke="#e76b3f" stroke-width="1.51"/><path d="M-182,435L27,519L38,342Z" fill="#ee9360" stroke="#ee9360" stroke-width="1.51"/><path d="M-118,223L-182,435L38,342Z" fill="#e68453" stroke="#e68453" stroke-width="1.51"/><path d="M35,206L-118,223L38,342Z" fill="#ec7c49" stroke="#ec7c49" stroke-width="1.51"/><path d="M7,728L-138,806L12,833Z" fill="#dc9186" stroke="#dc9186" stroke-width="1.51"/><path d="M12,833L-138,806L20,955Z" fill="#d38d83" stroke="#d38d83" stroke-width="1.51"/><path d="M-182,435L-196,578L27,519Z" fill="#e7956a" stroke="#e7956a" stroke-width="1.51"/><path d="M-138,806L-153,1043L20,955Z" fill="#c2807f" stroke="#c2807f" stroke-width="1.51"/><path d="M-67,1138L-218,1325L-9,1328Z" fill="#984767" stroke="#984767" stroke-width="1.51"/><path d="M-32,-164L-200,-65L3,-15Z" fill="#d2332a" stroke="#d2332a" stroke-width="1.51"/><path d="M-191,48L-18,83L3,-15Z" fill="#de4b34" stroke="#de4b34" stroke-width="1.51"/><path d="M-160,729L-138,806L7,728Z" fill="#da9087" stroke="#da9087" stroke-width="1.51"/><path d="M-200,-65L-191,48L3,-15Z" fill="#d33f30" stroke="#d33f30" stroke-width="1.51"/><path d="M-191,48L-118,223L-18,83Z" fill="#dd5b3b" stroke="#dd5b3b" stroke-width="1.51"/><path d="M-184,1121L-218,1325L-67,1138Z" fill="#98536c" stroke="#98536c" stroke-width="1.51"/><path d="M-193,-263L-200,-65L-32,-164Z" fill="#c11f27" stroke="#c11f27" stroke-width="1.51"/><path d="M-153,1043L-184,1121L-67,1138Z" fill="#a66573" stroke="#a66573" stroke-width="1.51"/><path d="M-191,48L-182,435L-118,223Z" fill="#dc6f46" stroke="#dc6f46" stroke-width="1.51"/><path d="M-160,729L-184,1121L-153,1043Z" fill="#b5787c" stroke="#b5787c" stroke-width="1.51"/><path d="M-160,729L-153,1043L-138,806Z" fill="#c68583" stroke="#c68583" stroke-width="1.51"/><path d="M-196,578L-184,1121L-160,729Z" fill="#c98784" stroke="#c98784" stroke-width="1.51"/><path d="M-196,578L-218,1325L-184,1121Z" fill="#ac7079" stroke="#ac7079" stroke-width="1.51"/><path d="M-191,48L-196,578L-182,435Z" fill="#db8155" stroke="#db8155" stroke-width="1.51"/><path d="M-200,-65L-196,578L-191,48Z" fill="#d66440" stroke="#d66440" stroke-width="1.51"/><path d="M-200,-65L-218,1325L-196,578Z" fill="#da9079" stroke="#da9079" stroke-width="1.51"/></svg>