<?xml version="1.0" encoding="UTF-8" standalone="no"?>
<svg
   xmlns:dc="http://purl.org/dc/elements/1.1/"
   xmlns:cc="http://creativecommons.org/ns#"
   xmlns:rdf="http://www.w3.org/1999/02/22-rdf-syntax-ns#"
   xmlns:svg="http://www.w3.org/2000/svg"
   xmlns="http://www.w3.org/2000/svg"
   xmlns:sodipodi="http://sodipodi.sourceforge.net/DTD/sodipodi-0.dtd"
   xmlns:inkscape="http://www.inkscape.org/namespaces/inkscape"
   version="1.1"
   id="svg4595"
   viewBox="0 0 256 256"
   height="256"
   width="256"
   inkscape:version="0.91 r13725"
   sodipodi:docname="degelata_negxulo.svg">
  <sodipodi:namedview
     pagecolor="#ffffff"
     bordercolor="#666666"
     borderopacity="1"
     objecttolerance="10"
     gridtolerance="10"
     guidetolerance="10"
     inkscape:pageopacity="0"
     inkscape:pageshadow="2"
     inkscape:window-width="1024"
     inkscape:window-height="744"
     id="namedview34"
     showgrid="false"
     inkscape:zoom="0.921875"
     inkscape:cx="36.195844"
     inkscape:cy="137.33091"
     inkscape:window-x="0"
     inkscape:window-y="24"
     inkscape:window-maximized="1"
     inkscape:current-layer="svg4595" />
  <defs
     id="defs4597">
    <clipPath
       clipPathUnits="userSpaceOnUse"
       id="clipPath176">
      <path
         d="m 665.982,244.229 4.286,0 0,-79.46 -4.286,0 0,79.46 z"
         id="path178"
         inkscape:connector-curvature="0" />
    </clipPath>
  </defs>
  <metadata
     id="metadata4600">
    <rdf:RDF>
      <cc:Work
         rdf:about="">
        <dc:format>image/svg+xml</dc:format>
        <dc:type
           rdf:resource="http://purl.org/dc/dcmitype/StillImage" />
        <dc:title></dc:title>
      </cc:Work>
    </rdf:RDF>
  </metadata>
  <g
     id="g168"
     transform="matrix(-1.2497466,0,0,-1.2497466,96.457827,198.21872)">
    <path
       d="m 0,0 0,154.808 c 0,1.184 -0.96,2.142 -2.142,2.142 -1.183,0 -2.143,-0.958 -2.143,-2.142 L -4.285,0 0,0 Z"
       style="fill:#ff7214;fill-opacity:1;fill-rule:nonzero;stroke:none"
       id="path170"
       inkscape:connector-curvature="0" />
  </g>
  <g
     transform="matrix(-1.7233908,0,0,1.7233908,256.00001,-1557.6313)"
     id="layer1">
    <g
       transform="matrix(0.33547254,0,0,0.33547254,51.539592,679.67722)"
       id="g5201">
      <path
         d="m 227.91718,1054.9004 c 0.4275,24.335 -100.8225,34.6949 -199.806247,36.4351 -98.98625,1.7413 -182.221253,-35.4188 -181.710003,-51.5101 0.77125,-24.3275 83.923753,-31.8662 182.908753,-33.6075 98.983747,-1.74 198.178747,24.3475 198.607497,48.6825"
         style="fill:#445668;fill-opacity:1;fill-rule:nonzero;stroke:none"
         id="path80"
         inkscape:connector-curvature="0" />
      <path
         d="m -1.2353174,1081.4328 c 1.10375003,-8.3511 -43.4349996,-5.4849 -50.5174996,-5.3614 -7.91625,0.1401 -20.45125,-1.7246 -27.45875,2.5654 -5.7675,3.8521 -6.46875,11.3662 -0.9725,15.8536 8.025,6.1098 23.0025,4.5961 32.59,4.8438 8.75,-0.1539 7.9225,0.2772 12.61625,6.4477 8.96125,11.9263 37.9399996,0.9985 27.7212496,-11.3242 -2.1425,-3.2974 -15.0637496,-3.4859 -13.4774996,-8.0973 1.5725,-5.4452 19.1924996,1.3301 19.4987496,-4.9276"
         style="fill:#ffffff;fill-opacity:1;fill-rule:nonzero;stroke:none"
         id="path84"
         inkscape:connector-curvature="0" />
      <path
         d="m 187.23093,982.67787 c -4.98125,-0.4312 -28.575,-1.515 -22.31625,4.1113 2.6575,2.3887 8.17125,3.8625 0.57875,3.9175 -3.73,0.029 -10.88875,-0.8875 -11.45625,2.1525 -1.56625,8.40253 33.7025,9.21873 40.5975,2.0762 5.855,-6.0237 3.44875,-10.83 -7.40375,-12.2575"
         style="fill:#ffffff;fill-opacity:1;fill-rule:nonzero;stroke:none"
         id="path86"
         inkscape:connector-curvature="0" />
      <path
         d="m 214.74468,993.03787 c 0.0225,1.3813 -2.66125,2.5488 -5.9975,2.6063 -3.335,0.059 -6.06,-1.0125 -6.08375,-2.3938 -0.025,-1.38 2.66,-2.5475 5.995,-2.6062 3.33625,-0.057 6.06125,1.0137 6.08625,2.3937"
         style="fill:#ffffff;fill-opacity:1;fill-rule:nonzero;stroke:none"
         id="path88"
         inkscape:connector-curvature="0" />
      <path
         d="m 47.833433,922.18667 c 2.795,-3.9425 4.33375,-8.3925 5.73125,-12.8575 0.35375,-1.1325 7.5275,-2.5663 7.8825,-3.6913 0.0912,-0.2962 0.4475,-2.5012 -0.73,-2.7375 -1.83375,-0.3662 -5.5225,1.2538 -5.37,0.8038 0.8725,-2.5863 1.8625,-5.1025 3.1925,-7.455 2.03875,-3.6763 9.14875,-6.7225 10.56875,-10.0038 0.38875,-0.905 -0.16375,-0.9487 -0.75125,-2.09 -2.64125,1.3638 -5.54,3.53 -8.4525,4.3638 0.6125,-3.9988 2.1825,-9.3663 2.6575,-13.6263 -0.15625,-1.6325 -2.82,-2.1425 -3.64,-0.59 -3.3825,5.7625 -3.81,14.0113 -5.455,20.5488 -2.41,-1.4338 -5.56375,-5.415 -4.14,1.8787 0.99625,5.1738 2.19,1.47 0.27,7.48 -1.26875,4.6688 -2.71625,10.5338 -5.19,14.8213 -0.77375,1.3987 -14.29375,22.5825 -14.5375,23.605 -0.5675,2.4025 2.1825,5.3825 5.76625,3.5325 l 12.1975,-23.9825"
         style="fill:#944b36;fill-opacity:1;fill-rule:nonzero;stroke:none"
         id="path90"
         inkscape:connector-curvature="0" />
      <path
         d="m 56.872183,875.93167 c -10.94125,-7.0225 -4.3475,-22.10129 1.63375,-9.7625 2.18125,-9.41504 13.61625,-26.02004 16.98375,-8.40629 1.21625,7.73129 -7.05125,30.23379 -17.13375,20.66999 l -1.48375,-2.5012"
         style="fill:#ef3547;fill-opacity:1;fill-rule:nonzero;stroke:none"
         id="path92"
         inkscape:connector-curvature="0" />
      <path
         d="m 51.515933,877.65667 c -3.105,11.1075 -0.37875,10.12 8.98875,11.7125 8.63,1.47 9.07,3.8062 11.34,-7.3988 0.6825,-3.3575 -0.3925,-3.025 -9.3825,-5.2075 -8.745,-2.1187 -10.0375,-2.345 -10.94625,0.8938"
         style="fill:#ffffff;fill-opacity:1;fill-rule:nonzero;stroke:none"
         id="path94"
         inkscape:connector-curvature="0" />
      <path
         d="m -153.63282,1037.9504 c 6.74125,-43.24873 29.43375,-32.395 62.947503,-46.11003 27.92125,-11.7425 22,-28.515 44.2325,-43.9087 24.10625,-15.4238 74.77,-10.7888 97.4625,0.061 26.41,8.9125 26.69,22.1337 30.9675,52.06253 9.37125,-0.16503 22.297497,-11.64383 31.669997,-11.80883 15.03,1.6113 11.445,11.05 24.69875,18.31883 9.4725,5.4587 16.8725,-0.2975 24.5025,7.07 9.505,7.3325 22.7025,13.6712 21.11625,27.755 -59.62875,24.0825 -318.45375,18.7262 -337.56375,-1.565 l -0.0337,-1.8748"
         style="fill:#ffffff;fill-opacity:1;fill-rule:nonzero;stroke:none"
         id="path96"
         inkscape:connector-curvature="0" />
      <path
         d="m -35.386567,798.24038 c -20.4175,12.14625 -38.8925,37.4325 -33.07625,62.25625 5.08875,21.71874 24.97875,25.43254 45.655,26.63124 11.8875,0.235 15.2087496,-3.9275 16.8262496,7.275 0.7875,4.9775 -4.0987496,16.8475 2.815,17.8713 6.31875,1.2712 2.05625,-10.2788 2.18000003,-18.1663 0.085,-5.4687 2.82749997,-8.2775 6.28749997,-7.9025 4.7200004,0.51 8.2575004,6.6575 7.9575004,12.2363 -0.60375,11.1662 -7.2000004,26.5137 0.35875,32.2912 15.4,11.7688 5.6775,-26.7725 5.4525,-33.6437 -0.145,-4.3725 1.325,-8.2525 4.34625,-11.4788 3.62625,-3.8712 19.32375,-1.8862 24.28125,-3.2987 11.805,-2.2638 19.1175,-8.1313 21.20625,-20.70629 3.49125,-27.005 -10.61375,-55.35625 -33.51125,-67.11125 -20.3375,-9.9625 -51.0275,-8.005 -70.77875,3.74625"
         style="fill:#ffffff;fill-opacity:1;fill-rule:nonzero;stroke:none"
         id="path98"
         inkscape:connector-curvature="0" />
      <path
         d="m -47.207817,930.94417 c -2.52375,-4.12 -3.76,-8.6638 -4.85625,-13.2138 -0.27625,-1.1525 -7.33625,-3.065 -7.615,-4.2125 -0.0725,-0.3 -0.28125,-2.5237 0.91125,-2.68 1.8525,-0.2437 5.425,1.6225 5.30375,1.16 -0.6975,-2.6375 -1.51625,-5.215 -2.68375,-7.6512 -1.78875,-3.805 -8.68,-7.3213 -9.875,-10.69 -0.32875,-0.93 0.22625,-0.9338 0.88875,-2.0338 2.54375,1.535 5.29125,3.8925 8.14125,4.9188 -0.3425,-4.0288 -1.5475,-9.4913 -1.7375,-13.7725 0.26375,-1.6188 2.9575,-1.9488 3.67125,-0.345 2.9875,5.975 2.8625,14.235 4.06375,20.8687 2.5,-1.2687 5.915,-5.0312 4.00625,2.1513 -1.34125,5.0962 -2.28375,1.32 -0.7725,7.445 0.9525,4.7437 2.00375,10.6937 4.185,15.1375 0.67625,1.4475 12.7475,23.49 12.92,24.5262 0.40625,2.435 -2.53875,5.2238 -5.98875,3.1388 l -10.5625,-24.7475"
         style="fill:#944b36;fill-opacity:1;fill-rule:nonzero;stroke:none"
         id="path100"
         inkscape:connector-curvature="0" />
      <path
         d="m -53.121567,884.18667 c 11.38625,-6.2725 5.8175,-21.76004 -0.97875,-9.85 -1.54375,-9.5388 -11.8375,-26.87504 -16.37875,-9.5275 -1.73375,7.6337 5.0075,30.6387 15.70625,21.7725 l 1.65125,-2.395"
         style="fill:#ef3547;fill-opacity:1;fill-rule:nonzero;stroke:none"
         id="path102"
         inkscape:connector-curvature="0" />
      <path
         d="m -47.894067,886.26667 c 2.35375,11.2925 -0.30125,10.1225 -9.75375,11.085 -8.71,0.8862 -9.305,3.1875 -10.82,-8.145 -0.45625,-3.3938 0.595,-2.99 9.7125,-4.565 8.8675,-1.5288 10.1725,-1.6675 10.86125,1.625"
         style="fill:#ffffff;fill-opacity:1;fill-rule:nonzero;stroke:none"
         id="path104"
         inkscape:connector-curvature="0" />
      <path
         d="m -21.344067,876.79787 c -3.16375,-2.425 -2.9125,-7.9675 1.335,-11.1125 13.1262496,-9.73874 30.9825,-10.65749 45.0425,-2.31749 4.54625,2.69379 6.33125,9.83499 3.43625,12.57249 l 0,0 c -2.89125,2.7675 -7.47125,2.8563 -10.1875,1.2963 -9.0750004,-5.3863 -22.9737504,-8.3038 -31.4475,-2.0125 -2.53375,1.8312 -5.0175,4.0262 -8.17875,1.5737 l 0,0"
         style="fill:#832829;fill-opacity:1;fill-rule:nonzero;stroke:none"
         id="path106"
         inkscape:connector-curvature="0" />
      <path
         d="m 18.342183,883.70287 c -4.37625,1.4413 -23.7175004,-23.52874 -24.9612504,-27.30499 -1.24375,-3.78125 1.5375,-8.89125 5.90875003,-10.33375 4.37624997,-1.44125 8.68999997,1.3325 9.93249997,5.11 1.2487504,3.78 13.4925004,31.08504 9.1200004,32.52874"
         style="fill:#f46e4f;fill-opacity:1;fill-rule:nonzero;stroke:none"
         id="path108"
         inkscape:connector-curvature="0" />
      <path
         d="m 18.342183,883.70287 c -4.37625,1.4413 -23.7175004,-23.52874 -24.9612504,-27.30499 -1.24375,-3.78125 1.5375,-8.89125 5.90875003,-10.33375 -6.00375003,9.21875 12.33000037,31.21754 19.05250037,37.63874"
         style="fill:#e05c47;fill-opacity:1;fill-rule:nonzero;stroke:none"
         id="path110"
         inkscape:connector-curvature="0" />
      <path
         d="m 10.024683,856.72413 c 0.295,-0.90125 -1.2362504,-3.2725 -3.1100004,-3.8825 -1.88,-0.6125 -3.6425,-0.37875 -3.935,0.52125 -0.2925,0.90125 0.99375,2.125 2.87,2.73875 1.88,0.61125 3.8825,1.52 4.1750004,0.6225"
         style="fill:#e05c47;fill-opacity:1;fill-rule:nonzero;stroke:none"
         id="path112"
         inkscape:connector-curvature="0" />
      <path
         d="m 12.345933,862.56288 c 0.20375,-0.625 -0.8575,-2.26875 -2.1625,-2.695 -1.3062504,-0.4225 -2.5275004,-0.26 -2.7312504,0.365 -0.20375,0.625 0.9175,2.14375 2.22375,2.57 1.3037504,0.42375 2.4650004,0.385 2.6700004,-0.24"
         style="fill:#e05c47;fill-opacity:1;fill-rule:nonzero;stroke:none"
         id="path114"
         inkscape:connector-curvature="0" />
      <path
         d="m 13.867183,867.04037 c 0.12625,-0.39 -0.2525,-1.0187 -0.79125,-1.1937 -0.54,-0.1763 -0.88125,0.2262 -1.00625,0.6162 -0.13,0.3875 0.0663,1.0025 0.60625,1.1775 0.53875,0.1763 1.06625,-0.2137 1.19125,-0.6"
         style="fill:#e05c47;fill-opacity:1;fill-rule:nonzero;stroke:none"
         id="path116"
         inkscape:connector-curvature="0" />
      <path
         d="m 15.203433,871.41287 c 0.12625,-0.3912 -0.2525,-1.0175 -0.7925,-1.1937 -0.54,-0.1763 -0.88,0.225 -1.0075,0.615 -0.125,0.39 0.0687,1.0025 0.60875,1.18 0.5375,0.1737 1.065,-0.215 1.19125,-0.6013"
         style="fill:#e05c47;fill-opacity:1;fill-rule:nonzero;stroke:none"
         id="path118"
         inkscape:connector-curvature="0" />
      <path
         d="m -35.640317,848.54788 c 0.0575,3.255 2.7425,5.84875 6,5.79125 3.25625,-0.0563 5.84875,-2.74375 5.7925,-5.99875 -0.0575,-3.2575 -4.41875,-5.09 -7.67375,-5.0325 -3.2575,0.0575 -4.17625,1.9825 -4.11875,5.24"
         style="fill:#36363c;fill-opacity:1;fill-rule:nonzero;stroke:none"
         id="path120"
         inkscape:connector-curvature="0" />
      <path
         d="m -32.585317,850.07663 c 0.025,1.3725 1.15625,2.465 2.53,2.44125 1.37125,-0.0237 2.465,-1.15625 2.4425,-2.52875 -0.025,-1.3725 -1.0125,-2.055 -2.385,-2.03 -1.3725,0.0237 -2.61,0.74625 -2.5875,2.1175"
         style="fill:#ffffff;fill-opacity:1;fill-rule:nonzero;stroke:none"
         id="path122"
         inkscape:connector-curvature="0" />
      <path
         d="m 26.677183,849.53288 c 0.0575,3.25625 2.745,5.84875 6,5.7925 3.2575,-0.0562 5.85,-2.74375 5.7925,-6 -0.0563,-3.25625 -1.87375,-5.67625 -5.1275,-5.61875 -3.2575,0.0562 -6.72125,2.57 -6.665,5.82625"
         style="fill:#36363c;fill-opacity:1;fill-rule:nonzero;stroke:none"
         id="path124"
         inkscape:connector-curvature="0" />
      <path
         d="m 29.733433,851.06163 c 0.0237,1.3725 1.15625,2.46625 2.52875,2.4425 1.3725,-0.0238 2.4675,-1.15625 2.4425,-2.52875 -0.0238,-1.3725 -1.01125,-2.055 -2.385,-2.03 -1.37125,0.025 -2.61,0.74625 -2.58625,2.11625"
         style="fill:#ffffff;fill-opacity:1;fill-rule:nonzero;stroke:none"
         id="path126"
         inkscape:connector-curvature="0" />
      <path
         d="m -7.6378174,972.46917 c -3.3249996,1.4962 -4.8187496,5.4037 -3.3337496,8.7237 1.4849996,3.3225 5.3849996,4.8025 8.7124996,3.305 3.32625,-1.4987 5.3925,-4.0212 3.9075,-7.3412 -1.48499997,-3.32 -5.96,-6.1838 -9.28625,-4.6875"
         style="fill:#36363c;fill-opacity:1;fill-rule:nonzero;stroke:none"
         id="path128"
         inkscape:connector-curvature="0" />
      <path
         d="m -64.586567,1004.3079 c -3.32375,1.495 -4.81875,5.4025 -3.3325,8.7238 1.48375,3.3225 5.38375,4.8012 8.71125,3.305 3.32625,-1.4988 5.39125,-4.0225 3.90625,-7.3413 -1.485,-3.32 -5.95875,-6.1837 -9.285,-4.6875"
         style="fill:#36363c;fill-opacity:1;fill-rule:nonzero;stroke:none"
         id="path130"
         inkscape:connector-curvature="0" />
      <path
         d="m 79.018433,1018.4529 c -3.325,1.4963 -4.81875,5.4038 -3.3325,8.7238 1.48375,3.3225 5.3825,4.8025 8.71,3.3062 3.32625,-1.5 5.3925,-4.0225 3.9075,-7.3425 -1.485,-3.32 -5.95875,-6.1837 -9.285,-4.6875"
         style="fill:#36363c;fill-opacity:1;fill-rule:nonzero;stroke:none"
         id="path132"
         inkscape:connector-curvature="0" />
      <path
         d="m 0.58093263,923.97667 c 0.0337,1.9562 -1.52375,3.57 -3.48125003,3.6037 -1.955,0.035 -3.5675,-1.5237 -3.60125,-3.4787 -0.0362,-1.955 1.44625,-4.9713 3.40125,-5.005 1.9575,-0.034 3.64625003,2.925 3.68125003,4.88"
         style="fill:#ffffff;fill-opacity:1;fill-rule:nonzero;stroke:none"
         id="path134"
         inkscape:connector-curvature="0" />
    </g>
  </g>
  <g
     transform="matrix(-1.2497466,0,0,-1.2497466,934.12245,307.29438)"
     id="g172">
    <g
       id="g174" />
    <g
       id="g180">
      <g
         clip-path="url(#clipPath176)"
         id="g182"
         style="opacity:0.30000299">
        <g
           transform="translate(670.2676,166.874)"
           id="g184">
          <path
             d="m 0,0 0,75.212 c 0,1.184 -0.96,2.142 -2.142,2.142 -1.183,0 -2.143,-0.958 -2.143,-2.142 l 0,-77.317 C -2.974,-1.2 -1.521,-0.501 0,0"
             style="fill:#f09820;fill-opacity:1;fill-rule:nonzero;stroke:none"
             id="path186"
             inkscape:connector-curvature="0" />
        </g>
      </g>
    </g>
  </g>
  <g
     id="g188"
     transform="matrix(-1.2497466,0,0,-1.2497466,220.59402,51.096368)">
    <path
       d="M 0,0 97.414,37.531 176.511,-30.598 0,0 Z"
       style="fill:#fffeb8;fill-opacity:1;fill-rule:nonzero;stroke:none"
       id="path190"
       inkscape:connector-curvature="0" />
  </g>
  <g
     id="g192"
     transform="matrix(-1.2497466,0,0,-1.2497466,98.851217,4.191868)">
    <path
       d="M 0,0 -97.414,-37.531 -62.163,-43.643 0,0 Z"
       style="fill:#ff1d45;fill-opacity:1;fill-rule:nonzero;stroke:none"
       id="path194"
       inkscape:connector-curvature="0" />
  </g>
  <g
     id="g196"
     transform="matrix(-1.2497466,0,0,-1.2497466,98.851217,4.191868)">
    <path
       d="M 0,0 79.097,-68.129 43.843,-62.018 0,0 Z"
       style="fill:#ff1d45;fill-opacity:1;fill-rule:nonzero;stroke:none"
       id="path198"
       inkscape:connector-curvature="0" />
  </g>
  <g
     id="g200"
     transform="matrix(-1.2497466,0,0,-1.2497466,220.3487,51.147608)">
    <path
       d="m 0,0 c -0.008,-0.025 -0.02,-0.054 -0.021,-0.08 -1.058,-6.093 5.977,-12.397 15.713,-14.084 9.732,-1.688 18.48,1.881 19.534,7.973 0.006,0.028 0.002,0.057 0.006,0.084 L 0,0 Z"
       style="fill:#cccb93;fill-opacity:1;fill-rule:nonzero;stroke:none"
       id="path202"
       inkscape:connector-curvature="0" />
  </g>
  <g
     id="g204"
     transform="matrix(-1.2497466,0,0,-1.2497466,176.29763,58.784041)">
    <path
       d="m 0,0 c -0.007,-0.026 -0.016,-0.053 -0.022,-0.081 -1.054,-6.092 5.979,-12.396 15.712,-14.083 9.737,-1.687 18.483,1.881 19.54,7.973 0.003,0.029 0.003,0.057 0.005,0.083 L 0,0 Z"
       style="fill:#cc1737;fill-opacity:1;fill-rule:nonzero;stroke:none"
       id="path206"
       inkscape:connector-curvature="0" />
  </g>
  <g
     id="g208"
     transform="matrix(-1.2497466,0,0,-1.2497466,132.24532,66.42163)">
    <path
       d="m 0,0 c -0.004,-0.026 -0.016,-0.051 -0.019,-0.08 -1.057,-6.092 5.978,-12.396 15.707,-14.083 9.739,-1.687 18.487,1.881 19.541,7.973 0.006,0.028 10e-4,0.055 0.008,0.083 L 0,0 Z"
       style="fill:#cccb93;fill-opacity:1;fill-rule:nonzero;stroke:none"
       id="path210"
       inkscape:connector-curvature="0" />
  </g>
  <g
     id="g212"
     transform="matrix(-1.2497466,0,0,-1.2497466,88.189257,74.059199)">
    <path
       d="m 0,0 c -0.007,-0.024 -0.017,-0.051 -0.023,-0.079 -1.054,-6.092 5.979,-12.397 15.713,-14.082 9.737,-1.689 18.482,1.88 19.538,7.971 0.004,0.029 0.002,0.056 0.009,0.084 L 0,0 Z"
       style="fill:#cc1737;fill-opacity:1;fill-rule:nonzero;stroke:none"
       id="path214"
       inkscape:connector-curvature="0" />
  </g>
  <g
     id="g216"
     transform="matrix(-1.2497466,0,0,-1.2497466,44.134437,81.69442)">
    <path
       d="m 0,0 c -0.007,-0.026 -0.019,-0.052 -0.023,-0.081 -1.056,-6.091 5.98,-12.397 15.711,-14.082 9.737,-1.689 18.485,1.88 19.541,7.972 10e-4,0.029 0,0.057 0.003,0.083 L 0,0 Z"
       style="fill:#cccb93;fill-opacity:1;fill-rule:nonzero;stroke:none"
       id="path218"
       inkscape:connector-curvature="0" />
  </g>
  <g
     id="g220"
     transform="matrix(-1.2497466,0,0,-1.2497466,98.851217,4.191868)">
    <path
       d="M 0,0 -26.721,-49.794 8.508,-55.984 0,0 Z"
       style="fill:#ff1d45;fill-opacity:1;fill-rule:nonzero;stroke:none"
       id="path222"
       inkscape:connector-curvature="0" />
  </g>
</svg>
