<?xml version="1.0" encoding="UTF-8" standalone="no"?>
<svg
   xmlns:dc="http://purl.org/dc/elements/1.1/"
   xmlns:cc="http://creativecommons.org/ns#"
   xmlns:rdf="http://www.w3.org/1999/02/22-rdf-syntax-ns#"
   xmlns:svg="http://www.w3.org/2000/svg"
   xmlns="http://www.w3.org/2000/svg"
   width="135.827"
   viewBox="0 0 135.827 135.788"
   version="1.1"
   style="overflow:visible;enable-background:new 0 0 135.827 135.788;"
   space="preserve"
   id="Layer_1"
   height="135.788">
  <metadata
     id="metadata3">
    <rdf:RDF>
      <cc:Work
         rdf:about="">
        <dc:title></dc:title>
        <dc:description />
        <dc:subject>
          <rdf:Bag>
            <rdf:li>button</rdf:li>
          </rdf:Bag>
        </dc:subject>
        <dc:publisher>
          <cc:Agent
             rdf:about="http://www.openclipart.org/">
            <dc:title>Open Clip Art Library</dc:title>
          </cc:Agent>
        </dc:publisher>
        <dc:creator>
          <cc:Agent>
            <dc:title>Architetto Francesco Rollandin</dc:title>
          </cc:Agent>
        </dc:creator>
        <dc:rights>
          <cc:Agent>
            <dc:title>Architetto Francesco Rollandin</dc:title>
          </cc:Agent>
        </dc:rights>
        <dc:date />
        <dc:format>image/svg+xml</dc:format>
        <dc:type
           rdf:resource="http://purl.org/dc/dcmitype/StillImage" />
        <cc:license
           rdf:resource="http://web.resource.org/cc/PublicDomain" />
        <dc:language>en</dc:language>
      </cc:Work>
      <cc:License
         rdf:about="http://web.resource.org/cc/PublicDomain">
        <cc:permits
           rdf:resource="http://web.resource.org/cc/Reproduction" />
        <cc:permits
           rdf:resource="http://web.resource.org/cc/Distribution" />
        <cc:permits
           rdf:resource="http://web.resource.org/cc/DerivativeWorks" />
      </cc:License>
    </rdf:RDF>
  </metadata>
  <defs
     id="defs23" />
  <g
     transform="matrix(-1,0,0,1,135.8268,0)"
     id="g3">
    <path
       style="fill:#5471af"
       id="path5"
       d="m 135.827,67.871 c 0,34.604 -27.143,64.467 -61.629,67.638 C 39.699,138.683 7.417,114.422 1.106,80.305 -5.204,46.196 16.087,11.835 49.515,2.46 c 33.44,-9.377 69.573,8.831 81.906,41.291 2.921,7.688 4.406,15.896 4.406,24.12" />
    <radialGradient
       r="63.123299"
       id="XMLID_2_"
       gradientUnits="userSpaceOnUse"
       cy="67.870598"
       cx="67.898903">
      <stop
         style="stop-color:#D4E4F7"
         offset="0"
         id="stop8" />
      <stop
         style="stop-color:#7FB5F7"
         offset="1"
         id="stop10" />
    </radialGradient>
    <path
       style="fill:url(#XMLID_2_)"
       id="path12"
       d="m 131.022,67.871 c 0,34.401 -28.723,63.123 -63.123,63.123 -34.401,0 -63.124,-28.722 -63.124,-63.123 0,-34.4 28.723,-63.124 63.124,-63.124 34.4,0 63.123,28.723 63.123,63.124" />
    <path
       style="fill:#68a0f2"
       id="path14"
       d="M 124.936,43.335 C 130.035,73.062 112.28,102.924 83.73,112.653 53.446,122.97 19.373,107.72 6.707,78.388 c 6.085,35.498 42.584,58.834 77.361,49.449 35.905,-9.69 55.667,-50.264 40.868,-84.502" />
    <path
       style="fill:#b3e7fc"
       id="path16"
       d="M 107.325,39.85 C 98.596,41.656 88.546,29.288 80.974,26.142 66.831,20.263 49.166,22.993 36.357,30.997 22.806,39.464 13.169,55.727 11.685,71.691 c -0.003,0.046 -0.005,0.055 0,0.024 0.999,-9.667 0.324,-18.755 4.003,-28.1 6.101,-15.49 19.292,-27.619 35.2,-32.492 16.444,-5.037 34.427,-1.832 48.593,7.769 4.374,2.967 21.215,18.19 7.844,20.958" />
    <path
       style="fill:#ffffff"
       id="path18"
       d="m 69.685,35.486 c 0,4.297 0,8.593 0,12.89 0,5.086 -0.323,4.511 4.709,4.511 6.503,0 26.144,-3.574 26.144,6.791 0,6.436 3.475,25.46 -6.689,25.46 -2.913,0 -24.163,-0.7 -24.163,0.648 0,4.966 0,9.934 0,14.9 0,4.555 -4.701,8.931 -8.864,4.78 C 54.443,99.108 48.063,92.749 41.682,86.391 37.717,82.439 22.094,71.351 28.746,64.67 c 4.872,-6.647 12.335,-12.346 18.15,-18.164 3.989,-3.991 7.979,-7.984 11.966,-11.975 2.763,-2.765 10.823,-5.815 10.823,0.955" />
    <path
       style="fill:#5471af"
       id="path20"
       d="m 60.233,31.892 c -6.05,6.056 -12.101,12.11 -18.151,18.166 -4.234,4.238 -17.7,13.58 -15.815,20.837 0.745,2.877 3.727,5.113 5.742,7.12 4.054,4.041 8.11,8.083 12.164,12.125 3.811,3.797 7.62,7.594 11.429,11.391 2.143,2.137 4.665,5.645 7.856,6.168 7.33,1.203 7.123,-5.902 7.123,-10.802 0,-2.858 0,-5.718 0,-8.576 0,-2.647 0.09,-2.287 2.676,-2.287 6.774,0 28.177,3.799 28.177,-7.279 0,-6.611 3.569,-26.763 -7.137,-26.763 -4.1,-0.56 -8.663,0 -12.796,0 -3.678,0 -10.92,1.972 -10.92,-2.336 0,-4.203 0,-8.404 0,-12.606 0,-5.076 -5.975,-9.541 -10.348,-5.158 m 34.063,52.349 c -8.465,0 -16.932,0 -25.397,0 0.284,0 2.178,30.229 -7.4,20.636 -1.984,-1.163 -3.804,-3.791 -5.417,-5.399 C 51.839,95.249 47.594,91.02 43.351,86.79 39.866,83.316 23.368,71.342 29.38,65.306 33.959,58.624 41.818,52.858 47.529,47.142 50.895,43.774 61.493,28.725 67.53,33.115 c 4.425,3.219 -2.322,20.669 2.885,20.669 5.155,0 10.31,0 15.464,0 3.615,0 10.226,-1.227 12.731,2.189 2.454,3.345 1.032,10.729 1.032,14.518 0,4.412 1.588,13.738 -5.346,13.75" />
  </g>
</svg>
