<?xml version="1.0" encoding="UTF-8" standalone="no"?>
<!-- Created with Inkscape (http://www.inkscape.org/) -->

<svg
   xmlns:dc="http://purl.org/dc/elements/1.1/"
   xmlns:cc="http://creativecommons.org/ns#"
   xmlns:rdf="http://www.w3.org/1999/02/22-rdf-syntax-ns#"
   xmlns:svg="http://www.w3.org/2000/svg"
   xmlns="http://www.w3.org/2000/svg"
   xmlns:sodipodi="http://sodipodi.sourceforge.net/DTD/sodipodi-0.dtd"
   xmlns:inkscape="http://www.inkscape.org/namespaces/inkscape"
   width="64"
   height="64"
   viewBox="0 0 64.000001 64.000001"
   id="svg4472"
   version="1.1"
   inkscape:version="0.91 r13725"
   sodipodi:docname="flamo.svg">
  <defs
     id="defs4474">
    <clipPath
       clipPathUnits="userSpaceOnUse"
       id="clipPath256">
      <path
         d="m 3683.5,2827.14 c 42.88,62.05 58.74,118.89 59.87,175.16 1.13,56.27 -13.27,90.58 -24.03,122.87 64.54,-53.81 107.57,-247.42 161.35,-161.37 37.65,56.47 2.1,127.6 -23.4,202.68 -3.64,10.72 -7.06,21.52 -9.89,32.28 -20.49,33.97 -9.74,87.76 22.54,109.26 0,-86.04 64.53,-139.84 118.78,-191.88 7.37,-8.12 14.52,-16.44 21.28,-25 20.23,-25.66 36.9,-53.63 45.68,-86.44 4,-11.52 7.17,-23.26 9.34,-35.02 6.5,-35.25 3.93,-70.41 -12.21,-102.7 47.07,37.66 52.95,116.49 32.2,177.35 -2.95,8.69 -6.47,17.01 -10.46,24.8 -5.44,19.38 -12.88,37.29 -21.39,54.4 -4.25,8.55 -8.75,16.87 -13.25,24.9 -62.41,105.8 -73.15,234.88 -48.62,351.46 2.83,11.18 5.83,22.08 8.49,33.09 24.13,99.1 18.07,208.03 -54.55,280.63 150.61,-32.27 247.43,-215.14 200.32,-364.07 -2.84,-9.04 -5.96,-17.97 -9.17,-26.85 -2.41,-6.66 -4.88,-13.3 -7.33,-19.92 -2.45,-6.64 -4.89,-13.3 -7.25,-19.95 -15.2,-53.3 -25.96,-117.81 27.84,-160.84 -32.28,32.25 -21.52,75.28 -16.77,119.95 2.31,8.08 5.2,15.89 8.54,23.3 6.66,14.8 15.11,28.04 24.58,38.53 6.02,7.38 12.58,14.36 19.56,20.9 20.99,19.55 45.84,35.04 71.66,44.71 -8.08,-9.85 -15.11,-20 -21.16,-30.43 -6.03,-10.43 -11.11,-21.14 -15.29,-32.09 -24.8,-81.68 -10.31,-157.48 16.68,-230.84 3.85,-10.53 7.97,-21 12.29,-31.53 16.85,-42.28 42.4,-82.44 67.81,-123.16 6.35,-10.18 12.71,-20.39 18.98,-30.76 117.25,-156.19 89.73,-383.87 -8.08,-468.38 -112.49,-97.19 -243.98,-117.24 -375.81,-92.26 -141.25,26.77 -366.25,159.27 -269.13,397.22 z"
         id="path258"
         inkscape:connector-curvature="0" />
    </clipPath>
    <linearGradient
       x1="0"
       y1="0"
       x2="1"
       y2="0"
       gradientUnits="userSpaceOnUse"
       gradientTransform="matrix(-22.199,1408.1,-1408.1,-22.199,4041.86,2412.03)"
       spreadMethod="pad"
       id="linearGradient260">
      <stop
         style="stop-opacity:1;stop-color:#f24800"
         offset="0"
         id="stop262" />
      <stop
         style="stop-opacity:1;stop-color:#ffcf00"
         offset="1"
         id="stop264" />
    </linearGradient>
  </defs>
  <sodipodi:namedview
     id="base"
     pagecolor="#ffffff"
     bordercolor="#666666"
     borderopacity="1.0"
     inkscape:pageopacity="0.0"
     inkscape:pageshadow="2"
     inkscape:zoom="2.8"
     inkscape:cx="-48.69853"
     inkscape:cy="58.614667"
     inkscape:document-units="px"
     inkscape:current-layer="layer1"
     showgrid="false"
     units="px"
     inkscape:window-width="1024"
     inkscape:window-height="744"
     inkscape:window-x="0"
     inkscape:window-y="24"
     inkscape:window-maximized="1" />
  <metadata
     id="metadata4477">
    <rdf:RDF>
      <cc:Work
         rdf:about="">
        <dc:format>image/svg+xml</dc:format>
        <dc:type
           rdf:resource="http://purl.org/dc/dcmitype/StillImage" />
        <dc:title />
      </cc:Work>
    </rdf:RDF>
  </metadata>
  <g
     inkscape:label="Layer 1"
     inkscape:groupmode="layer"
     id="layer1"
     transform="translate(0,-988.36216)">
    <g
       transform="matrix(0.0402424,0,0,0.04592808,-147.28321,877.21033)"
       id="g252">
      <g
         id="g254"
         clip-path="url(#clipPath256)">
        <path
           d="m 3683.5,2827.14 c 42.88,62.05 58.74,118.89 59.87,175.16 1.13,56.27 -13.27,90.58 -24.03,122.87 64.54,-53.81 107.57,-247.42 161.35,-161.37 37.65,56.47 2.1,127.6 -23.4,202.68 -3.64,10.72 -7.06,21.52 -9.89,32.28 -20.49,33.97 -9.74,87.76 22.54,109.26 0,-86.04 64.53,-139.84 118.78,-191.88 7.37,-8.12 14.52,-16.44 21.28,-25 20.23,-25.66 36.9,-53.63 45.68,-86.44 4,-11.52 7.17,-23.26 9.34,-35.02 6.5,-35.25 3.93,-70.41 -12.21,-102.7 47.07,37.66 52.95,116.49 32.2,177.35 -2.95,8.69 -6.47,17.01 -10.46,24.8 -5.44,19.38 -12.88,37.29 -21.39,54.4 -4.25,8.55 -8.75,16.87 -13.25,24.9 -62.41,105.8 -73.15,234.88 -48.62,351.46 2.83,11.18 5.83,22.08 8.49,33.09 24.13,99.1 18.07,208.03 -54.55,280.63 150.61,-32.27 247.43,-215.14 200.32,-364.07 -2.84,-9.04 -5.96,-17.97 -9.17,-26.85 -2.41,-6.66 -4.88,-13.3 -7.33,-19.92 -2.45,-6.64 -4.89,-13.3 -7.25,-19.95 -15.2,-53.3 -25.96,-117.81 27.84,-160.84 -32.28,32.25 -21.52,75.28 -16.77,119.95 2.31,8.08 5.2,15.89 8.54,23.3 6.66,14.8 15.11,28.04 24.58,38.53 6.02,7.38 12.58,14.36 19.56,20.9 20.99,19.55 45.84,35.04 71.66,44.71 -8.08,-9.85 -15.11,-20 -21.16,-30.43 -6.03,-10.43 -11.11,-21.14 -15.29,-32.09 -24.8,-81.68 -10.31,-157.48 16.68,-230.84 3.85,-10.53 7.97,-21 12.29,-31.53 16.85,-42.28 42.4,-82.44 67.81,-123.16 6.35,-10.18 12.71,-20.39 18.98,-30.76 117.25,-156.19 89.73,-383.87 -8.08,-468.38 -112.49,-97.19 -243.98,-117.24 -375.81,-92.26 -141.25,26.77 -366.25,159.27 -269.13,397.22"
           style="fill:url(#linearGradient260);fill-opacity:1;fill-rule:nonzero;stroke:none"
           id="path266"
           inkscape:connector-curvature="0" />
      </g>
    </g>
  </g>
</svg>
