<?xml version="1.0" encoding="UTF-8" standalone="no"?>
<!-- Created with Inkscape (http://www.inkscape.org/) -->

<svg
   xmlns:dc="http://purl.org/dc/elements/1.1/"
   xmlns:cc="http://creativecommons.org/ns#"
   xmlns:rdf="http://www.w3.org/1999/02/22-rdf-syntax-ns#"
   xmlns:svg="http://www.w3.org/2000/svg"
   xmlns="http://www.w3.org/2000/svg"
   xmlns:sodipodi="http://sodipodi.sourceforge.net/DTD/sodipodi-0.dtd"
   xmlns:inkscape="http://www.inkscape.org/namespaces/inkscape"
   width="128"
   height="128"
   viewBox="0 0 128 128"
   id="svg4558"
   version="1.1"
   inkscape:version="0.91 r13725"
   sodipodi:docname="negxulo.svg">
  <defs
     id="defs4560" />
  <sodipodi:namedview
     id="base"
     pagecolor="#ffffff"
     bordercolor="#666666"
     borderopacity="1.0"
     inkscape:pageopacity="0.0"
     inkscape:pageshadow="2"
     inkscape:zoom="0.98994949"
     inkscape:cx="86.108833"
     inkscape:cy="72.383841"
     inkscape:document-units="px"
     inkscape:current-layer="layer1"
     showgrid="false"
     units="px"
     inkscape:window-width="1024"
     inkscape:window-height="744"
     inkscape:window-x="0"
     inkscape:window-y="24"
     inkscape:window-maximized="1" />
  <metadata
     id="metadata4563">
    <rdf:RDF>
      <cc:Work
         rdf:about="">
        <dc:format>image/svg+xml</dc:format>
        <dc:type
           rdf:resource="http://purl.org/dc/dcmitype/StillImage" />
        <dc:title></dc:title>
      </cc:Work>
    </rdf:RDF>
  </metadata>
  <g
     inkscape:label="Layer 1"
     inkscape:groupmode="layer"
     id="layer1"
     transform="translate(0,-924.36216)">
    <g
       id="g5223"
       transform="matrix(0.38113496,0,0,0.38113496,-66.196878,701.61064)">
      <path
         inkscape:connector-curvature="0"
         id="path316"
         style="fill:#796246;fill-opacity:1;fill-rule:evenodd;stroke:none"
         d="m 400.57357,776.57171 c 3.03875,2.25375 22.39125,18.56627 32.16625,28.93377 9.775,10.3675 13.7375,29.185 13.7375,29.185 1.2425,8.4587 8.79875,31.4725 7.89875,34.22 -1.48875,4.5475 -15.85625,23.8237 -15.85625,23.8237 0,0 0.3625,1.3987 1.5625,0.2013 5.85,-5.8388 16.9325,-19.385 16.85375,-23.7788 -0.11,-6.13 -4.00375,-23.69 -4.00375,-23.69 0,0 9.565,11.2763 11.09375,14.295 1.53,3.0188 5.83875,19.0888 5.83875,19.0888 0,0 1.185,7.54 -4.135,21.8239 0.12375,-0.096 0.42375,1.4136 1.47375,-0.2828 3.9325,-6.3525 5.285,-21.0749 5.285,-21.0749 0,0 -5.50625,-19.6275 -5.4525,-20.675 0.0525,-1.0475 -12.81375,-17.71 -12.81375,-17.71 l 11.8375,6.3588 12.0225,12.305 9.6975,27.0587 1.39375,0.09 -7.82125,-27.6675 c 0,0 -9.35125,-10.8575 -10.665,-11.8687 -1.315,-1.0113 -20.025,-14.67 -20.025,-14.67 0,0 -7.745,-18.5938 -9.5875,-22.5975 -1.75625,-3.8175 -11.19375,-15.8625 -14.7125,-18.5175 -2.83375,-2.1375 -11.94,-10.26752 -15.47625,-13.07127 -3.53625,-2.805 -7.3125,-7.0925 -7.3125,-7.0925 0,0 -1.28375,-0.59 -2.855,0.88 -1.57125,1.47125 -1.62375,2.51875 -1.4625,2.9475 0.1625,0.42875 1.3175,1.485 1.3175,1.485" />
      <path
         inkscape:connector-curvature="0"
         id="path318"
         style="fill:#3a3a3c;fill-opacity:1;fill-rule:evenodd;stroke:none"
         d="m 384.60607,678.86171 c 0.1075,-12.49375 21.56375,-50.87125 26.3375,-64.95 6.42625,-18.95625 -84.08,-40.8175 -87.7925,-22.675 -3.7125,18.1425 -2.06375,19.19625 -7.5975,69.78625 -0.33625,3.07 69.0525,17.83875 69.0525,17.83875" />
      <path
         inkscape:connector-curvature="0"
         id="path320"
         style="fill:#3a3a3c;fill-opacity:1;fill-rule:evenodd;stroke:none"
         d="m 375.49732,648.03296 c 39.965,16.68375 61.46625,38.22625 48.025,48.1175 -13.4425,9.8925 -56.7375,4.38625 -96.70375,-12.2975 -39.965,-16.6825 -61.4675,-38.22625 -48.025,-48.11625 13.4425,-9.8925 56.7375,-4.38625 96.70375,12.29625" />
      <path
         inkscape:connector-curvature="0"
         id="path322"
         style="fill:#e9e7ce;fill-opacity:1;fill-rule:evenodd;stroke:none"
         d="m 332.29232,644.58171 c -28.56,6.8775 -46.1375,35.6075 -39.26,64.1675 6.87875,28.56125 35.60625,46.13875 64.1675,39.26 28.56125,-6.8775 46.13875,-35.60625 39.26,-64.1675 -6.8775,-28.56 -35.60625,-46.1375 -64.1675,-39.26" />
      <path
         inkscape:connector-curvature="0"
         id="path324"
         style="fill:#d2d3d2;fill-opacity:1;fill-rule:evenodd;stroke:none"
         d="m 368.44482,743.92921 c 21.7325,-10.78875 33.93625,-35.5 28.015,-60.0875 -2.77625,-11.52875 -9.11375,-21.265 -17.5625,-28.32875 2.67375,6.07875 18.4625,22.68 17.12625,45.43 -1.335,22.75 -46.16875,45.54375 -44.95625,45.49625 1.21125,-0.0475 5.72375,-1.2125 17.3775,-2.51" />
      <path
         inkscape:connector-curvature="0"
         id="path326"
         style="fill:#796246;fill-opacity:1;fill-rule:evenodd;stroke:none"
         d="m 285.17607,758.30796 c -3.54625,-1.705 -26.27375,-11.89 -38.295,-20.5575 -12.02125,-8.6675 -20.00875,-29.7775 -20.00875,-29.7775 -0.28875,-4.77875 8.99,-19.73125 9.36875,-22.7125 0.37,-2.92375 1.88,-12.7225 -2.8825,-21.93625 -0.89375,-1.72875 -14.00375,-11.9725 -14.00375,-11.9725 0,0 0.2175,0.245 -0.8325,1.66125 l 13.08625,11.35125 c 3.28625,8.455 1.79,15.7625 2.33375,18.1125 1.43875,6.21 -11.41,20.0075 -11.41,20.0075 0,0 -16.35625,-13.88625 -18.51125,-16.66875 -6.025,-7.7775 -15.80625,-27.06 -14.3325,-35.84 -0.10625,0.12125 -3.45125,-1.495 -3.39125,0.57875 0.25625,8.8625 4.51,17.62125 4.51,17.62125 0,0 10.20875,18.295 10.36125,19.375 0.1525,1.08 17.29625,17.75625 17.29625,17.75625 l -10.66875,-0.77 -21.01,-9.2325 -12.08625,-15.51625 -1.01625,1.09125 9.86375,15.5975 c 0,0 17.9975,8.28 19.53875,9.055 1.5425,0.77375 19.935,5.46125 19.935,5.46125 5.76125,8.70125 11.85875,21.99375 19.46,29.08375 4.03625,3.76625 9.725,8.16125 12.9375,10.115 0.465,0.28375 0.87875,0.51625 1.22875,0.6875 3.31375,1.6275 13.48375,5.46875 17.6475,7.6375 4.1625,2.17 8.8625,5.80625 8.8625,5.80625 0,0 1.42625,0.35 2.7425,-1.46125 1.315,-1.81 1.16375,-2.89125 0.9125,-3.29625 -0.25,-0.40625 -1.63625,-1.2575 -1.63625,-1.2575" />
      <path
         inkscape:connector-curvature="0"
         id="path328"
         style="fill:#d9d7c0;fill-opacity:1;fill-rule:evenodd;stroke:none"
         d="m 333.84857,920.28168 c 51.495,0 93.495,-41.8175 93.495,-93.09 0,-51.27247 -42,-93.08997 -93.495,-93.08997 -51.495,0 -93.495,41.8175 -93.495,93.08997 0,51.2725 42,93.09 93.495,93.09" />
      <path
         inkscape:connector-curvature="0"
         id="path330"
         style="fill:#e9e7ce;fill-opacity:1;fill-rule:evenodd;stroke:none"
         d="m 333.84857,734.10171 c -51.63625,0 -93.49625,41.6775 -93.49625,93.08997 0,19.8125 6.22125,38.1763 16.81875,53.2688 14.82125,9.8312 32.62,15.5659 51.765,15.5659 51.63625,0 93.49625,-41.6784 93.49625,-93.0909 0,-19.81127 -6.22125,-38.17502 -16.8175,-53.26752 -14.8225,-9.83125 -32.62125,-15.56625 -51.76625,-15.56625" />
      <path
         inkscape:connector-curvature="0"
         id="path332"
         style="fill:#e9e7ce;fill-opacity:1;fill-rule:evenodd;stroke:none"
         d="m 305.20232,660.71671 c -11.305,12.5875 -16.43,30.34125 -12.17,48.0325 6.87875,28.56125 35.60625,46.13875 64.1675,39.26 28.56125,-6.8775 46.13875,-35.60625 39.26,-64.1675 -0.50125,-2.08 -1.12125,-4.1 -1.845,-6.0575 -14.48875,-3.33 -29.395,-6.47375 -44.635,-9.3825 -15.235,-2.9075 -30.19125,-5.46375 -44.7775,-7.685" />
      <path
         inkscape:connector-curvature="0"
         id="path334"
         style="fill:#d9d7c0;fill-opacity:1;fill-rule:evenodd;stroke:none"
         d="m 368.44482,743.92921 c 21.7325,-10.78875 34.65625,-34.7825 28.15,-60.14 -0.85375,-3.33 -2.18125,-7.43625 -3.8425,-10.4275 -13.6175,-24.49875 -51.74,-35.97125 -72.20625,-24.4475 -0.03,0.015 -9.78,4.4575 -16.58125,13.22625 24.59,-21.28375 85.73375,-2.31375 90.7,29.41875 2.1475,13.72625 -5.51375,29.29 -16.1175,38.23375 -13.90875,11.73125 -32.1025,14.80625 -32.055,14.80375 1.21125,-0.0487 10.29875,0.63 21.9525,-0.6675" />
      <path
         inkscape:connector-curvature="0"
         id="path336"
         style="fill:#3a3a3c;fill-opacity:1;fill-rule:evenodd;stroke:none"
         d="m 391.54107,665.77171 c 2.65,3.71875 4.8925,7.7875 6.645,12.155 -30.98,-27.36 -60.025,-29.92125 -84.355,-28.82 4.85875,-2.84125 10.21,-5.02875 15.96375,-6.41375 24.05625,-5.79375 48.21875,4.09 61.74625,23.07875" />
      <path
         inkscape:connector-curvature="0"
         id="path338"
         style="fill:#3a3a3c;fill-opacity:1;fill-rule:evenodd;stroke:none"
         d="m 361.09732,683.98171 c -1.87,0.45 -3.04125,2.2425 -2.61625,4.005 0.42375,1.76125 2.2825,2.82375 4.15125,2.37375 1.87,-0.45 3.04125,-2.2425 2.61625,-4.00375 -0.42375,-1.7625 -2.2825,-2.825 -4.15125,-2.375" />
      <path
         inkscape:connector-curvature="0"
         id="path340"
         style="fill:#3a3a3c;fill-opacity:1;fill-rule:evenodd;stroke:none"
         d="m 320.06232,680.23796 c -1.86875,0.45 -3.04,2.2425 -2.61625,4.00375 0.425,1.7625 2.28375,2.825 4.1525,2.375 1.86875,-0.45 3.04,-2.2425 2.61625,-4.005 -0.42375,-1.76125 -2.28375,-2.82375 -4.1525,-2.37375" />
      <path
         inkscape:connector-curvature="0"
         id="path342"
         style="fill:#f26319;fill-opacity:1;fill-rule:evenodd;stroke:none"
         d="m 340.42482,689.20171 c -3.42875,0.11625 -45.64125,5.27125 -45.64125,5.27125 l 37.705,16.33875 c 12.35625,5.35375 17.565,-21.77 7.93625,-21.61" />
      <path
         inkscape:connector-curvature="0"
         id="path344"
         style="fill:#e25b1c;fill-opacity:1;fill-rule:evenodd;stroke:none"
         d="m 295.93982,694.97421 36.54875,15.8375 c 10.81625,4.68625 16.15625,-15.5125 10.86,-20.51375 -0.27125,4.80375 -1.15625,10.34 -3.49875,13.10375 -4.38,5.1675 -44.45625,-9.00375 -44.45625,-9.00375 0,0 0.19125,0.205 0.54625,0.57625" />
      <path
         inkscape:connector-curvature="0"
         id="path346"
         style="fill:#f36c58;fill-opacity:1;fill-rule:evenodd;stroke:none"
         d="m 258.16357,798.23168 c -0.48625,0.6063 -7.0425,16.2688 -8.49875,22.5825 -1.4575,6.3138 -3.4,8.7413 -1.9425,8.8625 1.45625,0.1225 2.91375,1.0938 2.91375,1.0938 l 5.22,-16.0275 -3.52,16.8775 3.2775,1.0925 4.61375,-16.3913 -2.42875,17.3625 3.27875,0.9713 c 0,0 4.25,-15.6625 4.37125,-15.055 0.12125,0.6062 -2.18625,15.7837 -2.18625,15.7837 0,0 4.37125,2.185 4.25,1.2138 -0.12125,-0.9713 3.52125,-17.12 3.52125,-17.12 l -1.215,16.9987 3.52125,0.1213 2.24,-19.24 -2.60375,-13.0563 -14.8125,-6.07" />
      <path
         inkscape:connector-curvature="0"
         id="path348"
         style="fill:#bd1e25;fill-opacity:1;fill-rule:evenodd;stroke:none"
         d="m 301.80232,763.27421 c -21.33375,33.90377 -24.58375,54.08377 -26.2225,54.08377 -1.63875,0 -17.2075,-7.1613 -20.28125,-9.9113 -3.07375,-2.7512 12.095,-36.16372 22.575,-50.72872 10.48125,-14.56375 20.3,-20.15375 18.68375,-21.6325 -1.61375,-1.47875 26.5775,-5.71625 5.245,28.18875" />
      <path
         inkscape:connector-curvature="0"
         id="path350"
         style="fill:#9c1b20;fill-opacity:1;fill-rule:evenodd;stroke:none"
         d="m 301.80232,763.27421 c -21.33375,33.90377 -24.58375,54.08377 -26.2225,54.08377 -1.63875,0 -17.2075,-7.1613 -20.28125,-9.9113 -0.32125,-0.2875 -0.44125,-0.915 -0.39,-1.8162 5.5,1.6962 19.98125,11.2862 20.125,10.6962 2.51875,-10.3212 21.45,-51.03872 29.815,-60.98747 0,0 -0.21,-2.22375 2.27375,-1.86125 -1.25125,2.84625 -2.99,6.09375 -5.32,9.79625" />
      <path
         inkscape:connector-curvature="0"
         id="path352"
         style="fill:#bd1e25;fill-opacity:1;fill-rule:evenodd;stroke:none"
         d="m 301.78857,727.26421 c -5.095,3.46125 -16.5175,16.59 -14.55125,19.2125 17.6775,23.57 101.385,24.62625 104.51625,7.6225 0.845,-4.59125 -9.1375,-20.245 -9.1375,-20.245 0,0 -6.7225,8.825 -37.2175,5.4925 -30.495,-3.3325 -43.61,-12.0825 -43.61,-12.0825" />
      <path
         inkscape:connector-curvature="0"
         id="path354"
         style="fill:#a81c22;fill-opacity:1;fill-rule:evenodd;stroke:none"
         d="m 308.18232,750.85546 c 27.8025,10.31375 52.20875,10.13375 77.82,-0.93625 1.41875,-0.61375 2.84125,-1.26 4.2675,-1.94 1.065,2.535 1.72875,4.79125 1.48375,6.12 -2.49875,13.5625 -56.26125,15.635 -86.8875,3.9575 -7.77,-2.9625 -14.05125,-6.81 -17.62875,-11.58 -0.1475,-0.19625 -0.21875,-0.4525 -0.225,-0.75875 -0.0138,-0.87125 0.5125,-2.15 1.38875,-3.6425 0.49,0.25 0.98,0.4975 1.4675,0.7425 0.73,0.3675 1.45875,0.7275 2.18375,1.08125 5.51875,2.69 10.885,5.01 16.13,6.95625" />
      <path
         inkscape:connector-curvature="0"
         id="path356"
         style="fill:#3a3a3c;fill-opacity:1;fill-rule:evenodd;stroke:none"
         d="m 328.42857,725.45921 c -0.88875,-0.0175 -1.6225,0.6475 -1.64,1.48625 -0.0162,0.8375 0.69125,1.53125 1.58,1.54875 0.88875,0.0175 1.62375,-0.6475 1.64,-1.485 0.0163,-0.8375 -0.69,-1.53125 -1.58,-1.55" />
      <path
         inkscape:connector-curvature="0"
         id="path358"
         style="fill:#3a3a3c;fill-opacity:1;fill-rule:evenodd;stroke:none"
         d="m 333.10107,726.91796 c -0.88875,-0.0175 -1.62375,0.6475 -1.64,1.485 -0.0163,0.8375 0.69,1.53125 1.57875,1.55 0.89,0.0175 1.62375,-0.6475 1.64125,-1.485 0.0162,-0.83875 -0.69125,-1.5325 -1.58,-1.55" />
      <path
         inkscape:connector-curvature="0"
         id="path360"
         style="fill:#3a3a3c;fill-opacity:1;fill-rule:evenodd;stroke:none"
         d="m 338.00357,727.31921 c -0.88875,-0.0175 -1.62375,0.6475 -1.64,1.485 -0.0175,0.8375 0.69,1.53125 1.58,1.55 0.88875,0.0175 1.6225,-0.6475 1.64,-1.485 0.0162,-0.83875 -0.69125,-1.5325 -1.58,-1.55" />
      <path
         inkscape:connector-curvature="0"
         id="path362"
         style="fill:#3a3a3c;fill-opacity:1;fill-rule:evenodd;stroke:none"
         d="m 343.61607,727.27921 c -0.89,-0.0175 -1.62375,0.6475 -1.64125,1.485 -0.0162,0.83875 0.69125,1.5325 1.58,1.55 0.88875,0.0175 1.62375,-0.64625 1.64,-1.485 0.0175,-0.8375 -0.69,-1.53125 -1.57875,-1.55" />
      <path
         inkscape:connector-curvature="0"
         id="path364"
         style="fill:#3a3a3c;fill-opacity:1;fill-rule:evenodd;stroke:none"
         d="m 348.19982,725.55171 c -0.88875,-0.0175 -1.62375,0.6475 -1.64,1.485 -0.0175,0.8375 0.69,1.53125 1.57875,1.55 0.89,0.0175 1.62375,-0.6475 1.64,-1.485 0.0175,-0.83875 -0.69,-1.5325 -1.57875,-1.55" />
      <path
         inkscape:connector-curvature="0"
         id="path366"
         style="fill:#3a3a3c;fill-opacity:1;fill-rule:evenodd;stroke:none"
         d="m 325.21982,721.98296 c -0.88875,-0.0175 -1.6225,0.6475 -1.64,1.485 -0.0163,0.83875 0.69,1.5325 1.58,1.55 0.88875,0.0175 1.6225,-0.6475 1.64,-1.485 0.0162,-0.8375 -0.69,-1.53125 -1.58,-1.55" />
      <path
         inkscape:connector-curvature="0"
         id="path368"
         style="fill:#3a3a3c;fill-opacity:1;fill-rule:evenodd;stroke:none"
         d="m 352.18357,722.64296 c -0.88875,-0.0175 -1.62375,0.6475 -1.64,1.48625 -0.0175,0.8375 0.69,1.53125 1.57875,1.54875 0.88875,0.0175 1.62375,-0.6475 1.64125,-1.485 0.0162,-0.8375 -0.69125,-1.53125 -1.58,-1.55" />
      <path
         inkscape:connector-curvature="0"
         id="path370"
         style="fill:#3a3a3c;fill-opacity:1;fill-rule:evenodd;stroke:none"
         d="m 322.22732,718.41046 c -0.88875,-0.0175 -1.62375,0.6475 -1.64,1.485 -0.0175,0.8375 0.69,1.5325 1.57875,1.55 0.89,0.0175 1.62375,-0.6475 1.64,-1.485 0.0175,-0.83875 -0.69,-1.5325 -1.57875,-1.55" />
      <path
         inkscape:connector-curvature="0"
         id="path372"
         style="fill:#e9e7ce;fill-opacity:1;fill-rule:evenodd;stroke:none"
         d="m 375.49732,648.03421 c -19.49625,-8.13875 -39.785,-13.6175 -57.01375,-15.94625 0.335,-3.66375 0.61,-6.8475 0.84875,-9.66375 3.6725,0.0312 11.36625,0.75375 27.3925,3.43875 22.3325,3.74125 40.16875,14.42375 49.3775,20.94875 -1.39625,3.0175 -2.76125,6.025 -4.03625,8.9425 -5.0775,-2.645 -10.61875,-5.23625 -16.56875,-7.72" />
      <path
         inkscape:connector-curvature="0"
         id="path374"
         style="fill:#3a3a3c;fill-opacity:1;fill-rule:evenodd;stroke:none"
         d="m 313.57357,775.50671 c 2.46625,-1.23375 5.42625,-1.97375 9.37375,2.22 3.94625,4.19375 3.20625,7.6475 0.73875,10.60747 -2.46625,2.96 -7.8925,3.2063 -11.1,1.48 -3.20625,-1.7275 -2.96,-5.67372 -3.20625,-7.64747 -0.2475,-1.97375 4.19375,-6.66 4.19375,-6.66" />
      <path
         inkscape:connector-curvature="0"
         id="path376"
         style="fill:#3a3a3c;fill-opacity:1;fill-rule:evenodd;stroke:none"
         d="m 300.44482,812.27798 c 2.84625,-1.4225 6.26125,-2.2763 10.815,2.5612 4.55375,4.8388 3.7,8.8238 0.85375,12.2388 -2.84625,3.415 -9.1075,3.7 -12.8075,1.7075 -3.7,-1.9925 -3.415,-6.5463 -3.7,-8.8225 -0.285,-2.2775 4.83875,-7.685 4.83875,-7.685" />
      <path
         inkscape:connector-curvature="0"
         id="path378"
         style="fill:#3a3a3c;fill-opacity:1;fill-rule:evenodd;stroke:none"
         d="m 296.79482,860.07168 c 1.805,-1.8812 4.205,-3.4787 9.04875,-0.9987 4.84375,2.4812 5.28125,5.79 4.025,9.2075 -1.2575,3.4187 -6.01,5.36 -9.4125,4.84 -3.4025,-0.52 -4.435,-4.1113 -5.28125,-5.79 -0.845,-1.6788 1.62,-7.2588 1.62,-7.2588" />
      <path
         inkscape:connector-curvature="0"
         id="path380"
         style="fill:#343333;fill-opacity:1;fill-rule:evenodd;stroke:none"
         d="m 311.35732,786.29046 c 3.20625,1.72625 8.63375,1.48 11.1,-1.48 1.3025,-1.56375 2.125,-3.265 2.0275,-5.14 2.13,3.335 1.27625,6.17375 -0.7975,8.66372 -2.4675,2.9588 -7.89375,3.2063 -11.10125,1.48 -2.09,-1.1262 -2.7125,-3.19497 -2.96125,-5.04497 0.4225,0.5925 0.9825,1.1175 1.7325,1.52125" />
      <path
         inkscape:connector-curvature="0"
         id="path382"
         style="fill:#343333;fill-opacity:1;fill-rule:evenodd;stroke:none"
         d="m 297.66482,827.48418 c 3.74625,1.51 9.28125,1.0238 11.9075,-2.1275 2.84625,-3.415 3.7,-7.4 -0.8525,-12.2375 -0.43875,-0.4662 -0.86625,-0.88 -1.28375,-1.2437 1.18125,0.5637 2.45,1.505 3.82375,2.9637 4.55375,4.8388 3.7,8.8238 0.85375,12.2388 -2.84625,3.415 -9.1075,3.7 -12.8075,1.7075 -0.6675,-0.36 -1.20625,-0.8025 -1.64125,-1.3013" />
      <path
         inkscape:connector-curvature="0"
         id="path384"
         style="fill:#343333;fill-opacity:1;fill-rule:evenodd;stroke:none"
         d="m 307.32732,867.37798 c 1.2575,-3.4163 0.82,-6.7263 -4.02375,-9.2075 -0.1375,-0.07 -0.27375,-0.1375 -0.4075,-0.2013 0.87,0.1863 1.84625,0.54 2.9475,1.105 4.84375,2.48 5.28125,5.79 4.025,9.2063 -1.2575,3.4175 -6.01,5.36 -9.4125,4.84 -0.825,-0.1263 -1.51,-0.4325 -2.0875,-0.8488 3.3575,0.2938 7.7575,-1.625 8.95875,-4.8937" />
    </g>
  </g>
</svg>
