<?xml version="1.0" encoding="UTF-8" standalone="no"?>
<!-- Created with Inkscape (http://www.inkscape.org/) -->

<svg
   xmlns:dc="http://purl.org/dc/elements/1.1/"
   xmlns:cc="http://creativecommons.org/ns#"
   xmlns:rdf="http://www.w3.org/1999/02/22-rdf-syntax-ns#"
   xmlns:svg="http://www.w3.org/2000/svg"
   xmlns="http://www.w3.org/2000/svg"
   xmlns:sodipodi="http://sodipodi.sourceforge.net/DTD/sodipodi-0.dtd"
   xmlns:inkscape="http://www.inkscape.org/namespaces/inkscape"
   width="256"
   height="256"
   viewBox="0 0 256 256"
   id="svg6869"
   version="1.1"
   inkscape:version="0.91 r13725"
   sodipodi:docname="nubo1.svg">
  <defs
     id="defs6871">
    <clipPath
       clipPathUnits="userSpaceOnUse"
       id="clipPath958">
      <path
         d="m 2133.6,3111.02 -122.76,0 c -33.73,76.54 -110.22,130 -199.24,130 -4.33,0 -8.62,-0.16 -12.89,-0.41 -69.22,164.72 -232.06,280.41 -421.94,280.41 -246.35,0 -447.137,-194.75 -457.024,-438.68 -115.172,-51.5 -195.473,-167 -195.473,-301.32 0,-182.25 147.747,-330 329.997,-330 l 1079.33,0 c 182.25,0 330,147.75 330,330 0,182.25 -147.75,330 -330,330"
         id="path960"
         inkscape:connector-curvature="0" />
    </clipPath>
  </defs>
  <sodipodi:namedview
     id="base"
     pagecolor="#ffffff"
     bordercolor="#666666"
     borderopacity="1.0"
     inkscape:pageopacity="0.0"
     inkscape:pageshadow="2"
     inkscape:zoom="0.98994949"
     inkscape:cx="-17.177732"
     inkscape:cy="129.47732"
     inkscape:document-units="px"
     inkscape:current-layer="layer1"
     showgrid="false"
     units="px"
     inkscape:window-width="1024"
     inkscape:window-height="744"
     inkscape:window-x="0"
     inkscape:window-y="24"
     inkscape:window-maximized="1" />
  <metadata
     id="metadata6874">
    <rdf:RDF>
      <cc:Work
         rdf:about="">
        <dc:format>image/svg+xml</dc:format>
        <dc:type
           rdf:resource="http://purl.org/dc/dcmitype/StillImage" />
        <dc:title />
      </cc:Work>
    </rdf:RDF>
  </metadata>
  <g
     inkscape:label="Layer 1"
     inkscape:groupmode="layer"
     id="layer1"
     transform="translate(0,-796.36216)">
    <g
       id="g7473"
       transform="matrix(0.14486027,0,0,-0.14718328,-102.89807,1413.1113)"
       style="fill:#6a87cb;fill-opacity:0.39240506">
      <g
         clip-path="url(#clipPath958)"
         id="g7475"
         style="fill:#6a87cb;fill-opacity:0.39240506">
        <path
           inkscape:connector-curvature="0"
           id="path7477"
           style="fill:#6a87cb;fill-opacity:0.39240506;fill-rule:nonzero;stroke:none"
           d="m 670,2329.39 1930,0 0,451.43 -1930,0 0,-451.43 z" />
      </g>
    </g>
    <path
       d="m 207.42949,945.22104 -18.06823,0 c -4.96449,-11.26541 -16.22255,-19.13383 -29.32481,-19.13383 -0.6373,0 -1.26872,0.0236 -1.89719,0.0603 -10.18804,-24.24403 -34.15537,-41.27167 -62.102557,-41.27167 -36.260093,0 -65.811127,28.66395 -67.266329,64.56636 C 11.818972,957.02219 0,974.02186 0,993.79152 0,1020.6171 21.7459,1042.362 48.570068,1042.362 l 158.859412,0 c 26.82417,0 48.57051,-21.7449 48.57051,-48.57048 0,-26.82415 -21.74634,-48.57048 -48.57051,-48.57048"
       style="fill:#ffffff;fill-opacity:1;fill-rule:nonzero;stroke:none"
       id="path910"
       inkscape:connector-curvature="0" />
    <g
       transform="matrix(0.14718336,0,0,-0.14718328,-106.60093,1403.1113)"
       id="g954">
      <g
         id="g956"
         clip-path="url(#clipPath958)">
        <path
           d="m 670,2329.39 1930,0 0,451.43 -1930,0 0,-451.43 z"
           style="fill:#e8f1fb;fill-opacity:1;fill-rule:nonzero;stroke:none"
           id="path962"
           inkscape:connector-curvature="0" />
      </g>
    </g>
  </g>
</svg>
