<?xml version="1.0" encoding="UTF-8" standalone="no"?>
<!-- Created with Inkscape (http://www.inkscape.org/) -->

<svg
   xmlns:dc="http://purl.org/dc/elements/1.1/"
   xmlns:cc="http://creativecommons.org/ns#"
   xmlns:rdf="http://www.w3.org/1999/02/22-rdf-syntax-ns#"
   xmlns:svg="http://www.w3.org/2000/svg"
   xmlns="http://www.w3.org/2000/svg"
   xmlns:sodipodi="http://sodipodi.sourceforge.net/DTD/sodipodi-0.dtd"
   xmlns:inkscape="http://www.inkscape.org/namespaces/inkscape"
   width="256"
   height="256"
   viewBox="0 0 256 256"
   id="svg6220"
   version="1.1"
   inkscape:version="0.91 r13725"
   sodipodi:docname="nubo2.svg">
  <defs
     id="defs6222">
    <clipPath
       clipPathUnits="userSpaceOnUse"
       id="clipPath1018">
      <path
         d="m 2207.73,6419.74 -0.36,-0.01 c -7.56,268.16 -227.15,483.26 -497.14,483.26 -216.06,0 -399.87,-137.76 -468.59,-330.21 -49.15,25.99 -105.13,40.76 -164.6,40.76 -194.825,0 -352.767,-157.94 -352.767,-352.77 0,-194.83 157.942,-352.78 352.767,-352.78 116.41,0 1049.02,0 1130.69,0 141.31,0 255.87,114.56 255.87,255.88 0,141.31 -114.56,255.87 -255.87,255.87"
         id="path1020"
         inkscape:connector-curvature="0" />
    </clipPath>
  </defs>
  <sodipodi:namedview
     id="base"
     pagecolor="#ffffff"
     bordercolor="#666666"
     borderopacity="1.0"
     inkscape:pageopacity="0.0"
     inkscape:pageshadow="2"
     inkscape:zoom="2.8"
     inkscape:cx="11.214466"
     inkscape:cy="42.007241"
     inkscape:document-units="px"
     inkscape:current-layer="layer1"
     showgrid="false"
     units="px"
     inkscape:window-width="1024"
     inkscape:window-height="744"
     inkscape:window-x="0"
     inkscape:window-y="24"
     inkscape:window-maximized="1" />
  <metadata
     id="metadata6225">
    <rdf:RDF>
      <cc:Work
         rdf:about="">
        <dc:format>image/svg+xml</dc:format>
        <dc:type
           rdf:resource="http://purl.org/dc/dcmitype/StillImage" />
        <dc:title />
      </cc:Work>
    </rdf:RDF>
  </metadata>
  <g
     inkscape:label="Layer 1"
     inkscape:groupmode="layer"
     id="layer1"
     transform="translate(0,-796.36216)">
    <g
       id="g6784"
       transform="matrix(0.14389801,0,0,-0.14718335,-101.36428,1921.92)"
       style="fill:#6a87cb;fill-opacity:0.39240506">
      <g
         clip-path="url(#clipPath1018)"
         id="g6786"
         style="fill:#6a87cb;fill-opacity:0.39240506">
        <path
           inkscape:connector-curvature="0"
           id="path6788"
           style="fill:#6a87cb;fill-opacity:0.39240506;fill-rule:nonzero;stroke:none"
           d="m 566.078,5586.92 2055.71,0 0,610 -2055.71,0 0,-610 z" />
      </g>
    </g>
    <path
       d="m 218.34019,969.04121 -0.053,10e-4 c -1.11272,-39.46867 -33.43269,-71.12781 -73.17073,-71.12781 -31.80044,0 -58.854212,20.27598 -68.968651,48.60155 -7.234062,-3.8238 -15.473386,-5.9994 -24.224907,-5.9994 C 23.246433,940.51675 0,963.76321 0,992.43881 c 0,28.67579 23.246433,51.92339 51.922902,51.92339 17.133613,0 154.396808,0 166.417268,0 20.79848,0 37.65982,-16.8614 37.65982,-37.6612 0,-20.79859 -16.86134,-37.65979 -37.65982,-37.65979"
       style="fill:#ffffff;fill-opacity:1;fill-rule:nonzero;stroke:none"
       id="path898"
       inkscape:connector-curvature="0" />
    <g
       transform="matrix(0.14718335,0,0,-0.14718335,-106.60091,1913.92)"
       id="g1014">
      <g
         id="g1016"
         clip-path="url(#clipPath1018)">
        <path
           d="m 566.078,5586.92 2055.71,0 0,610 -2055.71,0 0,-610 z"
           style="fill:#e8f1fb;fill-opacity:1;fill-rule:nonzero;stroke:none"
           id="path1022"
           inkscape:connector-curvature="0" />
      </g>
    </g>
  </g>
</svg>
