<?xml version="1.0" encoding="UTF-8" standalone="no"?>
<svg
   xmlns:dc="http://purl.org/dc/elements/1.1/"
   xmlns:cc="http://creativecommons.org/ns#"
   xmlns:rdf="http://www.w3.org/1999/02/22-rdf-syntax-ns#"
   xmlns:svg="http://www.w3.org/2000/svg"
   xmlns="http://www.w3.org/2000/svg"
   version="1.1"
   id="svg4558"
   viewBox="0 0 128 128"
   height="128"
   width="128">
  <defs
     id="defs4560" />
  <metadata
     id="metadata4563">
    <rdf:RDF>
      <cc:Work
         rdf:about="">
        <dc:format>image/svg+xml</dc:format>
        <dc:type
           rdf:resource="http://purl.org/dc/dcmitype/StillImage" />
        <dc:title></dc:title>
      </cc:Work>
    </rdf:RDF>
  </metadata>
  <g
     transform="translate(0,-924.36216)"
     id="layer1">
    <g
       transform="matrix(0.41811642,0,0,0.41811642,29.796133,558.9113)"
       id="g5950">
      <path
         d="m 111.66908,1027.2234 c 5.57,3.0437 20.40625,11.3775 45.69375,34.1662 25.2875,22.7875 34.1575,36.7888 34.1575,36.7888 0,0 13.14125,-6.3775 7.73875,-38.8825 -5.40125,-32.5025 -38.10875,-63.34375 -38.10875,-63.34375 l -49.48125,31.27125"
         style="fill:#323030;fill-opacity:1;fill-rule:evenodd;stroke:none"
         id="path80" />
      <path
         d="m 115.75408,1029.5346 c 7.37625,4.3413 21.0325,13.3125 41.60875,31.855 24.90875,22.4488 33.88875,36.3688 34.15125,36.7788 2.18125,-5.8475 3.4925,-15.17 1.0675,-29.7563 -5.4,-32.5037 -38.10875,-63.3462 -38.10875,-63.3462 l -38.71875,24.4687"
         style="fill:#393c3d;fill-opacity:1;fill-rule:evenodd;stroke:none"
         id="path82" />
      <path
         d="m 32.915333,997.25095 c -6.325004,-0.535 -23.2637543,-2.1625 -55.602504,-12.7925 -32.338625,-10.6288 -46.109625,-19.8513 -46.109625,-19.8513 0,0 -9.443875,11.1425 8.630875,38.69375 18.07225,27.55 60.45249973,42.5475 60.45249973,42.5475 L 32.915333,997.25095"
         style="fill:#323030;fill-opacity:1;fill-rule:evenodd;stroke:none"
         id="path84" />
      <path
         d="m 28.242829,996.78715 c -8.5,-0.99 -24.6162503,-3.68 -50.93,-12.3287 -31.85475,-10.47 -45.693625,-19.5763 -46.099375,-19.845 0.367625,6.23 2.935,15.2875 11.045375,27.65 18.07225,27.55245 60.4527497,42.54865 60.4527497,42.54865 L 28.242829,996.78715"
         style="fill:#393c3d;fill-opacity:1;fill-rule:evenodd;stroke:none"
         id="path86" />
      <path
         d="m 84.366583,1167.2857 c 167.573747,-8.2313 87.509997,-250.61854 -4.00875,-249.13854 -91.520004,1.4775 -163.742504,246.32474 4.00875,249.13854"
         style="fill:#323030;fill-opacity:1;fill-rule:evenodd;stroke:none"
         id="path88" />
      <path
         d="m 119.46408,1157.922 c 5.04125,1.6299 16.37125,4.645 17.8975,7.4736 1.5275,2.8301 -1.99375,3.4575 -7.23625,3.4293 -5.24375,-0.03 -10.74,-1.6544 -10.74,-1.6544 0,0 6.935,6.0542 6.28375,8.1192 -0.65,2.0649 -4.07375,1.7773 -9.465,-0.4175 -5.39125,-2.1977 -8.0575,-5.0078 -8.0575,-5.0078 0.38125,3.6987 -5.65625,11.0478 -9.212497,10.2515 -3.48875,-0.7828 -2.0825,-17.77 1.444997,-18.46 l 19.085,-3.7339"
         style="fill:#fbc708;fill-opacity:1;fill-rule:evenodd;stroke:none"
         id="path90" />
      <path
         d="m 126.89908,1166.6496 c 4.10125,-0.1114 8.24875,-0.525 10.50125,-1.1836 1.43125,2.771 -2.075,3.3871 -7.275,3.3589 -4.89,-0.028 -10,-1.4429 -10.66625,-1.6314 l -0.0737,-0.023 -1.7325,-1.3999 c 0,0 3.94875,1.0215 9.24625,0.879"
         style="fill:#e1b410;fill-opacity:1;fill-rule:evenodd;stroke:none"
         id="path92" />
      <path
         d="m 106.96908,1167.4845 c 3.46875,2.0191 15.1375,10.5089 18.4625,6.4912 0.24625,0.5167 0.3475,0.9703 0.2375,1.314 -0.65,2.0649 -4.07375,1.7773 -9.465,-0.4175 -5.39125,-2.1977 -8.0575,-5.0078 -8.0575,-5.0078 0.38125,3.6987 -5.65625,11.0478 -9.212497,10.2515 -0.37625,-0.085 -0.6975,-0.3574 -0.9625,-0.7798 2.162497,-1.3941 6.473747,-4.274 7.692497,-6.2354 1.665,-2.6811 1.305,-5.6162 1.305,-5.6162"
         style="fill:#e1b410;fill-opacity:1;fill-rule:evenodd;stroke:none"
         id="path94" />
      <path
         d="m 46.367833,1159.0021 c -4.74125,2.3663 -15.495,7.04 -16.585,10.0664 -1.088754,3.0249 2.48875,3.1186 7.6675,2.3071 5.18,-0.8135 10.37375,-3.2412 10.37375,-3.2412 0,0 -5.95625,7.0225 -5.005,8.9678 0.95,1.9463 4.29375,1.1514 9.2975,-1.8276 5.0025,-2.9776 7.22125,-6.1562 7.22125,-6.1562 0.175,3.7137 7.2375,10.08 10.63625,8.7611 3.33375,-1.2934 -0.5875,-17.8838 -4.17875,-18.0385 l -19.4275,-0.8389"
         style="fill:#fbc708;fill-opacity:1;fill-rule:evenodd;stroke:none"
         id="path96" />
      <path
         d="m 40.316583,1168.7419 c -4.07125,0.5038 -8.23625,0.7128 -10.55875,0.4003 -1.00375,2.9537 2.5575,3.0387 7.6925,2.2334 4.8325,-0.7572 9.67375,-2.9209 10.30375,-3.2075 l 0.07,-0.034 1.50375,-1.6425 c 0,0 -3.7525,1.6001 -9.01125,2.25"
         style="fill:#e1b410;fill-opacity:1;fill-rule:evenodd;stroke:none"
         id="path98" />
      <path
         d="m 60.149083,1166.5895 c -3.13,2.5161 -13.405,12.6552 -17.2925,9.1762 -0.16375,0.5489 -0.19625,1.0128 -0.0375,1.3365 0.95,1.9463 4.29375,1.1514 9.2975,-1.8276 5.0025,-2.9776 7.22125,-6.1562 7.22125,-6.1562 0.175,3.7137 7.2375,10.08 10.63625,8.7611 0.36,-0.1401 0.635,-0.4585 0.8375,-0.915 -2.34875,-1.0561 -7.04,-3.2598 -8.53625,-5.0161 -2.0475,-2.4038 -2.12625,-5.3589 -2.12625,-5.3589"
         style="fill:#e1b410;fill-opacity:1;fill-rule:evenodd;stroke:none"
         id="path100" />
      <path
         d="m 84.366583,1167.2857 c 43.654997,-2.1435 70.473747,-20.1986 84.692497,-45.6736 -1.575,-42.7112 -8.80875,-116.8537 -39.53875,-136.77745 8.47625,-23.415 -7.475,-46.42749 -25.8475,-48.21749 -10.668747,-1.03875 -18.581247,2.81125 -22.954997,3.9125 -4.40625,-0.96 -12.43875,-4.55125 -23.07,-3.1675 -18.30375,2.38 -33.506254,25.89879 -24.2825,49.02629 -30.0712543,20.90495 -34.9150043,95.24245 -35.1137543,137.98495 15.0300003,25.0025 42.4150043,42.18 86.1150043,42.9123"
         style="fill:#e9e7ce;fill-opacity:1;fill-rule:evenodd;stroke:none"
         id="path102" />
      <path
         d="m 80.980333,971.11845 c 5.5075,0.1137 19.716247,3.6425 19.973747,8.865 0.2675,5.36 -6.203747,10.135 -11.877497,12.7037 -4.08875,1.8513 -6.68,2.15 -7.81,2.1725 -1.12875,0.026 -3.7275,-0.1612 -7.85875,-1.8362 -5.73125,-2.3213 -12.315,-6.8188 -12.18,-12.1863 0.13375,-5.23 14.2475,-9.3675 19.7525,-9.7187"
         style="fill:#fbc708;fill-opacity:1;fill-rule:evenodd;stroke:none"
         id="path104" />
      <path
         d="m 81.177833,992.93965 c 1.12875,-0.023 3.72125,-0.3212 7.81,-2.1725 5.25875,-2.38 11.202497,-6.6575 11.831247,-11.5387 0.0775,0.2475 0.12375,0.4987 0.135,0.755 0.2675,5.36 -6.203747,10.135 -11.877497,12.7037 -4.08875,1.8513 -6.68,2.15 -7.81,2.1725 -1.12875,0.026 -3.7275,-0.1612 -7.85875,-1.8362 -5.73125,-2.3213 -12.315,-6.8188 -12.18,-12.1863 l 0.045,-0.4362 c 0.95625,4.7075 6.85,8.5975 12.0475,10.7037 4.13,1.6738 6.72875,1.86 7.8575,1.835"
         style="fill:#e1b410;fill-opacity:1;fill-rule:evenodd;stroke:none"
         id="path106" />
      <path
         d="m 99.940333,949.93715 c -4.52875,0.072 -8.145,3.76 -8.0725,8.2363 0.0725,4.475 3.80375,8.0437 8.333747,7.9712 4.53125,-0.072 8.145,-3.76 8.0725,-8.2362 -0.0712,-4.475 -3.80375,-8.0438 -8.333747,-7.9713"
         style="fill:#3b3b3d;fill-opacity:1;fill-rule:evenodd;stroke:none"
         id="path108" />
      <path
         d="m 96.737833,951.45965 c -1.72375,0.028 -3.09625,1.4288 -3.07,3.1313 0.0275,1.7025 1.44625,3.0587 3.17,3.03 1.7225,-0.027 3.09625,-1.4288 3.0675,-3.1313 -0.0263,-1.7012 -1.44625,-3.0587 -3.1675,-3.03"
         style="fill:#ffffff;fill-opacity:1;fill-rule:evenodd;stroke:none"
         id="path110" />
      <path
         d="m 61.806583,950.55345 c 4.53125,-0.074 8.26125,3.4962 8.33375,7.9712 0.0712,4.475 -3.5425,8.1625 -8.07125,8.235 -4.5325,0.075 -8.2625,-3.4937 -8.335,-7.9712 -0.0712,-4.475 3.5425,-8.1613 8.0725,-8.235"
         style="fill:#3b3b3d;fill-opacity:1;fill-rule:evenodd;stroke:none"
         id="path112" />
      <path
         d="m 60.016583,951.93095 c 1.72125,-0.028 3.14125,1.3287 3.1675,3.0312 0.0287,1.7013 -1.345,3.1038 -3.06875,3.1313 -1.72375,0.029 -3.14125,-1.3288 -3.16875,-3.0313 -0.0275,-1.7012 1.34625,-3.1025 3.07,-3.1312"
         style="fill:#ffffff;fill-opacity:1;fill-rule:evenodd;stroke:none"
         id="path114" />
      <path
         d="m 86.120333,973.59595 c -0.56625,0.087 -1.0025,0.7987 -0.9725,1.5862 0.0275,0.7875 0.51,1.355 1.07625,1.2663 0.56625,-0.089 1.0025,-0.7988 0.97375,-1.5863 -0.03,-0.7887 -0.51,-1.355 -1.0775,-1.2662"
         style="fill:#b9921c;fill-opacity:1;fill-rule:evenodd;stroke:none"
         id="path116" />
      <path
         d="m 76.494083,973.44465 c -0.56625,0.089 -1.00125,0.7988 -0.97375,1.5875 0.0288,0.7875 0.51,1.3538 1.07625,1.2663 0.56625,-0.089 1.0025,-0.8 0.97375,-1.5875 -0.0275,-0.7875 -0.51,-1.355 -1.07625,-1.2663"
         style="fill:#b9921c;fill-opacity:1;fill-rule:evenodd;stroke:none"
         id="path118" />
      <path
         d="m 81.919083,905.35466 c 9.2875,0 16.8625,-7.03375 16.8625,-15.65625 0,-8.62375 -7.575,-15.6575 -16.8625,-15.6575 -9.2875,0 -16.86125,7.03375 -16.86125,15.6575 0,8.6225 7.57375,15.65625 16.86125,15.65625"
         style="fill:#a61c23;fill-opacity:1;fill-rule:evenodd;stroke:none"
         id="path120" />
      <path
         d="m 81.919083,874.04341 c 4.76625,0 9.0675,1.835 12.135,4.785 0.0988,0.69 0.15125,1.39375 0.15125,2.1075 0,8.6475 -7.54875,15.65625 -16.86,15.65625 -4.76625,0 -9.06875,-1.835 -12.13375,-4.785 -0.10125,-0.69 -0.15375,-1.39375 -0.15375,-2.10875 0,-8.64625 7.54875,-15.655 16.86125,-15.655"
         style="fill:#b41e26;fill-opacity:1;fill-rule:evenodd;stroke:none"
         id="path122" />
      <path
         d="m 130.15283,928.51216 c -1.525,-13.83 -13.28375,-31.80875 -48.233747,-31.80875 -34.95,0 -46.7075,17.97875 -48.23375,31.80875 11.11375,-4.47375 28.545,-7.975 48.23375,-7.975 19.688747,0 37.121247,3.50125 48.233747,7.975"
         style="fill:#d02327;fill-opacity:1;fill-rule:evenodd;stroke:none"
         id="path124" />
      <path
         d="m 127.71283,919.45091 c -1.185,-2.705 -2.81625,-5.39375 -4.9725,-7.9225 -24.309997,-10.3925 -56.903747,-9.605 -81.138747,-0.5775 -2.0825,2.3325 -3.705,4.80875 -4.93,7.31875 25.47625,-11.185 66.437497,-12.545 91.041247,1.18125"
         style="fill:#fbc708;fill-opacity:1;fill-rule:evenodd;stroke:none"
         id="path126" />
      <path
         d="m 20.770329,954.65715 c 0.57,-9.48749 4.6425,-20.10874 11.975004,-26.14499 32.99375,-27.16375 118.841247,-16.5725 109.636247,25.79999 -35.0525,-22.29374 -86.559997,-21.94874 -121.611251,0.345"
         style="fill:#b41e26;fill-opacity:1;fill-rule:evenodd;stroke:none"
         id="path128" />
      <path
         d="m 39.395333,1002.6309 c -10.775004,2.1487 -11.701254,28.7675 -10.15375,57.8625 1.1275,21.2212 -2.025004,33.7162 -2.972504,39.4037 -1.59375,9.57 25.692504,11.9538 29.591254,5.4775 4.2975,-7.14 -2.785,-19.5012 0,-46.7387 2.78625,-27.2375 5.9825,-41.5013 6.86,-45.0475 2.26375,-9.1488 -17.6225,-12.0938 -23.325,-10.9575"
         style="fill:#9e1b22;fill-opacity:1;fill-rule:evenodd;stroke:none"
         id="path130" />
      <path
         d="m 28.705329,1084.4884 c -0.54625,5.1412 -1.2775,9.1587 -1.84,12.155 2.083754,-0.2213 4.447504,-0.6025 7.107504,-1.2088 10.9375,-2.4887 18.13125,-2.9675 22.70875,-3.7762 -0.38875,-3.2613 -0.8775,-7.0563 -1.1875,-11.515 -0.6175,0.1912 -1.3025,0.3925 -2.0575,0.6025 -3.4575,0.96 -15.8575,2.775 -24.731254,3.7425"
         style="fill:#fbc708;fill-opacity:1;fill-rule:evenodd;stroke:none"
         id="path132" />
      <path
         d="m 8.7940787,972.71465 c -5.54375,-1.625 -11.4425,15.435 -11.29125,23.3525 1.0975,57.46745 153.7525013,46.90875 173.3625013,10.27875 2.73625,-5.1125 -3.24875,-29.46745 -12.18875,-27.27375 -25.64125,36.12125 -134.038751,31.91495 -149.8825013,-6.3575"
         style="fill:#b41e26;fill-opacity:1;fill-rule:evenodd;stroke:none"
         id="path134" />
      <path
         d="m 27.114079,990.21465 c -17.06,3.4025 -14.04125,77.22495 -12.835,95.63875 0.84625,12.9237 23.307504,11.045 25.895004,6.795 4.33375,-7.12 -3.095,-20.43 -0.31,-47.6675 2.78625,-27.2375 9.6975,-40.2625 10.575,-43.8088 2.26375,-9.14865 -15.08625,-12.59995 -23.325004,-10.95745"
         style="fill:#c12232;fill-opacity:1;fill-rule:evenodd;stroke:none"
         id="path136" />
      <path
         d="m 41.536583,1085.1746 c -0.11,-2.5125 -0.51,-5.45 -0.9475,-8.9012 -2.78,0.465 -6.56125,0.9425 -11.3225,1.1975 -1.766254,0.094 -3.667504,0.1575 -5.701254,0.1787 -4.4,0.045 -7.52375,-0.029 -9.74125,-0.1575 0.1325,2.9225 0.27125,5.4438 0.39625,7.4388 3.3825,1.07 8.11875,1.9162 14.26,1.535 6.070004,-0.3763 10.258754,-0.8613 13.056254,-1.2913"
         style="fill:#fbc708;fill-opacity:1;fill-rule:evenodd;stroke:none"
         id="path138" />
    </g>
  </g>
</svg>
