<?xml version="1.0" encoding="UTF-8" standalone="no"?>
<!-- Created with Inkscape (http://www.inkscape.org/) -->

<svg
   xmlns:dc="http://purl.org/dc/elements/1.1/"
   xmlns:cc="http://creativecommons.org/ns#"
   xmlns:rdf="http://www.w3.org/1999/02/22-rdf-syntax-ns#"
   xmlns:svg="http://www.w3.org/2000/svg"
   xmlns="http://www.w3.org/2000/svg"
   xmlns:sodipodi="http://sodipodi.sourceforge.net/DTD/sodipodi-0.dtd"
   xmlns:inkscape="http://www.inkscape.org/namespaces/inkscape"
   width="128"
   height="128"
   viewBox="0 0 128 128"
   id="svg5295"
   version="1.1"
   inkscape:version="0.91 r13725"
   sodipodi:docname="testudo.svg">
  <defs
     id="defs5297">
    <clipPath
       clipPathUnits="userSpaceOnUse"
       id="clipPath2292">
      <path
         d="m 1098.643,346.492 16.889,-29.254 34.53,0 15.774,27.321 c -10.532,6.949 -22.861,10.29 -35.155,10.29 l 0,0 c -11.099,0 -22.229,-2.716 -32.038,-8.357 m -32.245,-63.809 23.823,0 17.342,30.035 -16.508,28.593 c -14.411,-11.575 -24.483,-30.822 -24.657,-58.628 m 91.507,30.035 17.342,-30.035 19.716,0 c -0.163,26.002 -8.984,44.51 -21.911,56.269 l 0,0 -15.147,-26.234 z m -42.375,-4.521 -17.341,-30.035 17.343,-30.038 34.53,0 17.344,30.038 -17.342,30.035 -34.534,0 z m 59.718,-34.556 -17.343,-30.037 14.587,-25.264 c 11.463,13.702 20.356,32.651 22.139,55.301 l 0,0 -19.383,0 z m -108.517,0 c 1.907,-24.254 11.973,-44.263 24.61,-58.133 l 0,0 16.222,28.096 -17.344,30.037 -23.488,0 z m 48.799,-34.558 -17.341,-30.037 0.277,-0.48 c 10.725,-9.278 22.425,-14.415 32.215,-14.415 l 0,0 c 10.753,0 23.811,6.2 35.347,17.281 l 0,0 -15.964,27.651 -34.534,0 z"
         id="path2294"
         inkscape:connector-curvature="0" />
    </clipPath>
    <linearGradient
       x1="0"
       y1="0"
       x2="1"
       y2="0"
       gradientUnits="userSpaceOnUse"
       gradientTransform="matrix(0,160.69922,160.69922,0,1130.6807,194.15039)"
       spreadMethod="pad"
       id="linearGradient2300">
      <stop
         style="stop-opacity:1;stop-color:#7fb539"
         offset="0"
         id="stop2302" />
      <stop
         style="stop-opacity:1;stop-color:#bfd72f"
         offset="1"
         id="stop2304" />
    </linearGradient>
    <clipPath
       clipPathUnits="userSpaceOnUse"
       id="clipPath2272">
      <path
         d="m 1048.384,281.961 c 0,-61.044 44.765,-105.81 82.297,-105.81 l 0,0 c 37.531,0 82.297,44.766 82.297,105.81 l 0,0 c 0,61.045 -40.697,90.888 -82.297,90.888 l 0,0 c -41.601,0 -82.297,-29.843 -82.297,-90.888"
         id="path2274"
         inkscape:connector-curvature="0" />
    </clipPath>
    <linearGradient
       x1="0"
       y1="0"
       x2="1"
       y2="0"
       gradientUnits="userSpaceOnUse"
       gradientTransform="matrix(-1.53e-5,196.69922,196.69922,1.53e-5,1130.6807,176.15039)"
       spreadMethod="pad"
       id="linearGradient2280">
      <stop
         style="stop-opacity:1;stop-color:#66952d"
         offset="0"
         id="stop2282" />
      <stop
         style="stop-opacity:1;stop-color:#a5bb28"
         offset="1"
         id="stop2284" />
    </linearGradient>
    <clipPath
       clipPathUnits="userSpaceOnUse"
       id="clipPath2252">
      <path
         d="m 1052.906,157.612 c 26.225,-2.261 41.601,21.251 41.601,41.148 l 0,0 c 0,19.895 -16.279,33.461 -16.279,33.461 l 0,0 c -15.6,-15.6 -37.532,-36.174 -25.322,-74.609"
         id="path2254"
         inkscape:connector-curvature="0" />
    </clipPath>
    <linearGradient
       x1="0"
       y1="0"
       x2="1"
       y2="0"
       gradientUnits="userSpaceOnUse"
       gradientTransform="matrix(0,-74.760742,-74.760742,0,1071.9292,232.2207)"
       spreadMethod="pad"
       id="linearGradient2260">
      <stop
         style="stop-opacity:1;stop-color:#e8c453"
         offset="0"
         id="stop2262" />
      <stop
         style="stop-opacity:1;stop-color:#bfa445"
         offset="1"
         id="stop2264" />
    </linearGradient>
    <clipPath
       clipPathUnits="userSpaceOnUse"
       id="clipPath2232">
      <path
         d="m 1033.462,370.137 c -47.48,-29.392 -39.114,-53.585 -35.27,-57.428 l 0,0 c 0,0 46.122,9.496 86.227,37.201 l 0,0 14.157,3.497 c 0,13.489 -8.108,29.89 -28.129,29.89 l 0,0 c -9.507,0 -21.699,-3.697 -36.985,-13.16"
         id="path2234"
         inkscape:connector-curvature="0" />
    </clipPath>
    <linearGradient
       x1="0"
       y1="0"
       x2="1"
       y2="0"
       gradientUnits="userSpaceOnUse"
       gradientTransform="matrix(0,-70.587891,-70.587891,0,1046.8257,383.29687)"
       spreadMethod="pad"
       id="linearGradient2240">
      <stop
         style="stop-opacity:1;stop-color:#e8c453"
         offset="0"
         id="stop2242" />
      <stop
         style="stop-opacity:1;stop-color:#bfa445"
         offset="1"
         id="stop2244" />
    </linearGradient>
    <clipPath
       clipPathUnits="userSpaceOnUse"
       id="clipPath2212">
      <path
         d="m 1103.549,399.528 c 0,-23.513 7.688,-21.704 7.688,-43.409 l 0,0 38.888,0 c 0,21.705 7.686,19.896 7.686,43.409 l 0,0 c 0,23.513 -10.667,45.913 -27.13,45.913 l 0,0 c -16.463,0 -27.132,-22.4 -27.132,-45.913"
         id="path2214"
         inkscape:connector-curvature="0" />
    </clipPath>
    <linearGradient
       x1="0"
       y1="0"
       x2="1"
       y2="0"
       gradientUnits="userSpaceOnUse"
       gradientTransform="matrix(0,-89.321289,-89.321289,0,1130.6807,445.44043)"
       spreadMethod="pad"
       id="linearGradient2220">
      <stop
         style="stop-opacity:1;stop-color:#e8c453"
         offset="0"
         id="stop2222" />
      <stop
         style="stop-opacity:1;stop-color:#bfa445"
         offset="1"
         id="stop2224" />
    </linearGradient>
    <clipPath
       clipPathUnits="userSpaceOnUse"
       id="clipPath2192">
      <path
         d="m 1166.855,198.76 c 0,-19.897 15.374,-43.409 41.601,-41.148 l 0,0 c 12.209,38.435 -9.722,59.009 -25.322,74.609 l 0,0 c 0,0 -16.279,-13.566 -16.279,-33.461"
         id="path2194"
         inkscape:connector-curvature="0" />
    </clipPath>
    <linearGradient
       x1="0"
       y1="0"
       x2="1"
       y2="0"
       gradientUnits="userSpaceOnUse"
       gradientTransform="matrix(0,-74.760742,-74.760742,0,1189.4321,232.2207)"
       spreadMethod="pad"
       id="linearGradient2200">
      <stop
         style="stop-opacity:1;stop-color:#e8c453"
         offset="0"
         id="stop2202" />
      <stop
         style="stop-opacity:1;stop-color:#bfa445"
         offset="1"
         id="stop2204" />
    </linearGradient>
    <clipPath
       clipPathUnits="userSpaceOnUse"
       id="clipPath2172">
      <path
         d="m 1162.786,353.407 14.157,-3.497 c 40.104,-27.705 86.227,-37.201 86.227,-37.201 l 0,0 c 3.844,3.843 12.209,28.036 -35.269,57.428 l 0,0 c -15.287,9.463 -27.479,13.16 -36.986,13.16 l 0,0 c -20.021,0 -28.129,-16.401 -28.129,-29.89"
         id="path2174"
         inkscape:connector-curvature="0" />
    </clipPath>
    <linearGradient
       x1="0"
       y1="0"
       x2="1"
       y2="0"
       gradientUnits="userSpaceOnUse"
       gradientTransform="matrix(0,-70.587891,-70.587891,0,1214.5361,383.29687)"
       spreadMethod="pad"
       id="linearGradient2180">
      <stop
         style="stop-opacity:1;stop-color:#e8c453"
         offset="0"
         id="stop2182" />
      <stop
         style="stop-opacity:1;stop-color:#bfa445"
         offset="1"
         id="stop2184" />
    </linearGradient>
  </defs>
  <sodipodi:namedview
     id="base"
     pagecolor="#ffffff"
     bordercolor="#666666"
     borderopacity="1.0"
     inkscape:pageopacity="0.0"
     inkscape:pageshadow="2"
     inkscape:zoom="2.1602387"
     inkscape:cx="42.624567"
     inkscape:cy="32.591907"
     inkscape:document-units="px"
     inkscape:current-layer="g6514"
     showgrid="false"
     units="px"
     inkscape:window-width="1024"
     inkscape:window-height="744"
     inkscape:window-x="0"
     inkscape:window-y="24"
     inkscape:window-maximized="1" />
  <metadata
     id="metadata5300">
    <rdf:RDF>
      <cc:Work
         rdf:about="">
        <dc:format>image/svg+xml</dc:format>
        <dc:type
           rdf:resource="http://purl.org/dc/dcmitype/StillImage" />
        <dc:title />
      </cc:Work>
    </rdf:RDF>
  </metadata>
  <g
     inkscape:label="Layer 1"
     inkscape:groupmode="layer"
     id="layer1"
     transform="translate(0,-924.36216)">
    <g
       id="g6514"
       transform="matrix(0.35557983,0,0,0.35557983,38.042496,639.76949)">
      <g
         id="g4204"
         style="fill:#8bc34a;fill-opacity:1">
        <g
           style="fill:#8bc34a;fill-opacity:1;stroke:#000000;stroke-opacity:1;stroke-width:4.4996928;stroke-miterlimit:4;stroke-dasharray:none"
           transform="matrix(1.25,0,0,-1.25,-1350.8315,1357.1635)"
           id="g2168">
          <g
             style="fill:#8bc34a;fill-opacity:1;stroke:#000000;stroke-opacity:1;stroke-width:4.4996928;stroke-miterlimit:4;stroke-dasharray:none"
             id="g2170"
             clip-path="url(#clipPath2172)">
            <g
               style="fill:#8bc34a;fill-opacity:1;stroke:#000000;stroke-opacity:1;stroke-width:4.4996928;stroke-miterlimit:4;stroke-dasharray:none"
               id="g2176">
              <g
                 style="fill:#8bc34a;fill-opacity:1;stroke:#000000;stroke-opacity:1;stroke-width:4.4996928;stroke-miterlimit:4;stroke-dasharray:none"
                 id="g2178">
                <path
                   d="m 1162.786,353.407 14.157,-3.497 c 40.104,-27.705 86.227,-37.201 86.227,-37.201 l 0,0 c 3.844,3.843 12.209,28.036 -35.269,57.428 l 0,0 c -15.287,9.463 -27.479,13.16 -36.986,13.16 l 0,0 c -20.021,0 -28.129,-16.401 -28.129,-29.89"
                   style="fill:#8bc34a;stroke:#000000;fill-opacity:1;stroke-opacity:1;stroke-width:4.4996928;stroke-miterlimit:4;stroke-dasharray:none"
                   id="path2186"
                   inkscape:connector-curvature="0" />
              </g>
            </g>
          </g>
        </g>
        <g
           style="fill:#8bc34a;fill-opacity:1;stroke:#000000;stroke-opacity:1;stroke-width:4.4996928;stroke-miterlimit:4;stroke-dasharray:none"
           transform="matrix(1.25,0,0,-1.25,-1350.8315,1357.1635)"
           id="g2188">
          <g
             style="fill:#8bc34a;fill-opacity:1;stroke:#000000;stroke-opacity:1;stroke-width:4.4996928;stroke-miterlimit:4;stroke-dasharray:none"
             id="g2190"
             clip-path="url(#clipPath2192)">
            <g
               style="fill:#8bc34a;fill-opacity:1;stroke:#000000;stroke-opacity:1;stroke-width:4.4996928;stroke-miterlimit:4;stroke-dasharray:none"
               id="g2196">
              <g
                 style="fill:#8bc34a;fill-opacity:1;stroke:#000000;stroke-opacity:1;stroke-width:4.4996928;stroke-miterlimit:4;stroke-dasharray:none"
                 id="g2198">
                <path
                   d="m 1166.855,198.76 c 0,-19.897 15.374,-43.409 41.601,-41.148 l 0,0 c 12.209,38.435 -9.722,59.009 -25.322,74.609 l 0,0 c 0,0 -16.279,-13.566 -16.279,-33.461"
                   style="fill:#8bc34a;stroke:#000000;fill-opacity:1;stroke-opacity:1;stroke-width:4.4996928;stroke-miterlimit:4;stroke-dasharray:none"
                   id="path2206"
                   inkscape:connector-curvature="0" />
              </g>
            </g>
          </g>
        </g>
        <g
           style="fill:#8bc34a;fill-opacity:1;stroke:#000000;stroke-opacity:1;stroke-width:4.4996928;stroke-miterlimit:4;stroke-dasharray:none"
           transform="matrix(1.25,0,0,-1.25,-1350.8315,1357.1635)"
           id="g2208">
          <g
             style="fill:#8bc34a;fill-opacity:1;stroke:#000000;stroke-opacity:1;stroke-width:4.4996928;stroke-miterlimit:4;stroke-dasharray:none"
             id="g2210"
             clip-path="url(#clipPath2212)">
            <g
               style="fill:#8bc34a;fill-opacity:1;stroke:#000000;stroke-opacity:1;stroke-width:4.4996928;stroke-miterlimit:4;stroke-dasharray:none"
               id="g2216">
              <g
                 style="fill:#8bc34a;fill-opacity:1;stroke:#000000;stroke-opacity:1;stroke-width:4.4996928;stroke-miterlimit:4;stroke-dasharray:none"
                 id="g2218">
                <path
                   d="m 1103.549,399.528 c 0,-23.513 7.688,-21.704 7.688,-43.409 l 0,0 38.888,0 c 0,21.705 7.686,19.896 7.686,43.409 l 0,0 c 0,23.513 -10.667,45.913 -27.13,45.913 l 0,0 c -16.463,0 -27.132,-22.4 -27.132,-45.913"
                   style="fill:#8bc34a;stroke:#000000;fill-opacity:1;stroke-opacity:1;stroke-width:4.4996928;stroke-miterlimit:4;stroke-dasharray:none"
                   id="path2226"
                   inkscape:connector-curvature="0" />
              </g>
            </g>
          </g>
        </g>
        <g
           style="fill:#8bc34a;fill-opacity:1;stroke:#000000;stroke-opacity:1;stroke-width:4.4996928;stroke-miterlimit:4;stroke-dasharray:none"
           transform="matrix(1.25,0,0,-1.25,-1350.8315,1357.1635)"
           id="g2228">
          <g
             style="fill:#8bc34a;fill-opacity:1;stroke:#000000;stroke-opacity:1;stroke-width:4.4996928;stroke-miterlimit:4;stroke-dasharray:none"
             id="g2230"
             clip-path="url(#clipPath2232)">
            <g
               style="fill:#8bc34a;fill-opacity:1;stroke:#000000;stroke-opacity:1;stroke-width:4.4996928;stroke-miterlimit:4;stroke-dasharray:none"
               id="g2236">
              <g
                 style="fill:#8bc34a;fill-opacity:1;stroke:#000000;stroke-opacity:1;stroke-width:4.4996928;stroke-miterlimit:4;stroke-dasharray:none"
                 id="g2238">
                <path
                   d="m 1033.462,370.137 c -47.48,-29.392 -39.114,-53.585 -35.27,-57.428 l 0,0 c 0,0 46.122,9.496 86.227,37.201 l 0,0 14.157,3.497 c 0,13.489 -8.108,29.89 -28.129,29.89 l 0,0 c -9.507,0 -21.699,-3.697 -36.985,-13.16"
                   style="fill:#8bc34a;stroke:#000000;fill-opacity:1;stroke-opacity:1;stroke-width:4.4996928;stroke-miterlimit:4;stroke-dasharray:none"
                   id="path2246"
                   inkscape:connector-curvature="0" />
              </g>
            </g>
          </g>
        </g>
        <g
           style="fill:#8bc34a;fill-opacity:1;stroke:#000000;stroke-opacity:1;stroke-width:4.4996928;stroke-miterlimit:4;stroke-dasharray:none"
           transform="matrix(1.25,0,0,-1.25,-1350.8315,1357.1635)"
           id="g2248">
          <g
             style="fill:#8bc34a;fill-opacity:1;stroke:#000000;stroke-opacity:1;stroke-width:4.4996928;stroke-miterlimit:4;stroke-dasharray:none"
             id="g2250"
             clip-path="url(#clipPath2252)">
            <g
               style="fill:#8bc34a;fill-opacity:1;stroke:#000000;stroke-opacity:1;stroke-width:4.4996928;stroke-miterlimit:4;stroke-dasharray:none"
               id="g2256">
              <g
                 style="fill:#8bc34a;fill-opacity:1;stroke:#000000;stroke-opacity:1;stroke-width:4.4996928;stroke-miterlimit:4;stroke-dasharray:none"
                 id="g2258">
                <path
                   d="m 1052.906,157.612 c 26.225,-2.261 41.601,21.251 41.601,41.148 l 0,0 c 0,19.895 -16.279,33.461 -16.279,33.461 l 0,0 c -15.6,-15.6 -37.532,-36.174 -25.322,-74.609"
                   style="fill:#8bc34a;stroke:#000000;fill-opacity:1;stroke-opacity:1;stroke-width:4.4996928;stroke-miterlimit:4;stroke-dasharray:none"
                   id="path2266"
                   inkscape:connector-curvature="0" />
              </g>
            </g>
          </g>
        </g>
      </g>
      <g
         id="g2268"
         transform="matrix(1.25,0,0,-1.25,-1350.8315,1357.1635)"
         style="fill:#689f38;fill-opacity:1;stroke:#000000;stroke-opacity:1;stroke-width:4.4996928;stroke-miterlimit:4;stroke-dasharray:none">
        <g
           clip-path="url(#clipPath2272)"
           id="g2270"
           style="fill:#689f38;fill-opacity:1;stroke:#000000;stroke-opacity:1;stroke-width:4.4996928;stroke-miterlimit:4;stroke-dasharray:none">
          <g
             id="g2276"
             style="fill:#689f38;fill-opacity:1;stroke:#000000;stroke-opacity:1;stroke-width:4.4996928;stroke-miterlimit:4;stroke-dasharray:none">
            <g
               id="g2278"
               style="fill:#689f38;fill-opacity:1;stroke:#000000;stroke-opacity:1;stroke-width:4.4996928;stroke-miterlimit:4;stroke-dasharray:none">
              <path
                 inkscape:connector-curvature="0"
                 id="path2286"
                 style="fill:#689f38;stroke:#000000;fill-opacity:1;stroke-opacity:1;stroke-width:4.4996928;stroke-miterlimit:4;stroke-dasharray:none"
                 d="m 1048.384,281.961 c 0,-61.044 44.765,-105.81 82.297,-105.81 l 0,0 c 37.531,0 82.297,44.766 82.297,105.81 l 0,0 c 0,61.045 -40.697,90.888 -82.297,90.888 l 0,0 c -41.601,0 -82.297,-29.843 -82.297,-90.888" />
            </g>
          </g>
        </g>
      </g>
      <g
         id="g2288"
         transform="matrix(1.25,0,0,-1.25,-1350.8315,1357.1635)"
         style="fill:#8bc34a;fill-opacity:1;stroke:#000000;stroke-opacity:1;stroke-width:4.4996928;stroke-miterlimit:4;stroke-dasharray:none">
        <g
           clip-path="url(#clipPath2292)"
           id="g2290"
           style="fill:#8bc34a;fill-opacity:1;stroke:#000000;stroke-opacity:1;stroke-width:4.4996928;stroke-miterlimit:4;stroke-dasharray:none">
          <g
             id="g2296"
             style="fill:#8bc34a;fill-opacity:1;stroke:#000000;stroke-opacity:1;stroke-width:4.4996928;stroke-miterlimit:4;stroke-dasharray:none">
            <g
               id="g2298"
               style="fill:#8bc34a;fill-opacity:1;stroke:#000000;stroke-opacity:1;stroke-width:4.4996928;stroke-miterlimit:4;stroke-dasharray:none">
              <path
                 inkscape:connector-curvature="0"
                 id="path2306"
                 style="fill:#8bc34a;stroke:#000000;fill-opacity:1;stroke-opacity:1;stroke-width:4.4996928;stroke-miterlimit:4;stroke-dasharray:none"
                 d="m 1098.643,346.492 16.889,-29.254 34.53,0 15.774,27.321 c -10.532,6.949 -22.861,10.29 -35.155,10.29 l 0,0 c -11.099,0 -22.229,-2.716 -32.038,-8.357 m -32.245,-63.809 23.823,0 17.342,30.035 -16.508,28.593 c -14.411,-11.575 -24.483,-30.822 -24.657,-58.628 m 91.507,30.035 17.342,-30.035 19.716,0 c -0.163,26.002 -8.984,44.51 -21.911,56.269 l 0,0 -15.147,-26.234 z m -42.375,-4.521 -17.341,-30.035 17.343,-30.038 34.53,0 17.344,30.038 -17.342,30.035 -34.534,0 z m 59.718,-34.556 -17.343,-30.037 14.587,-25.264 c 11.463,13.702 20.356,32.651 22.139,55.301 l 0,0 -19.383,0 z m -108.517,0 c 1.907,-24.254 11.973,-44.263 24.61,-58.133 l 0,0 16.222,28.096 -17.344,30.037 -23.488,0 z m 48.799,-34.558 -17.341,-30.037 0.277,-0.48 c 10.725,-9.278 22.425,-14.415 32.215,-14.415 l 0,0 c 10.753,0 23.811,6.2 35.347,17.281 l 0,0 -15.964,27.651 -34.534,0 z" />
            </g>
          </g>
        </g>
      </g>
    </g>
  </g>
</svg>
