<?xml version="1.0" encoding="UTF-8" standalone="no"?>
<svg
   xmlns:dc="http://purl.org/dc/elements/1.1/"
   xmlns:cc="http://creativecommons.org/ns#"
   xmlns:rdf="http://www.w3.org/1999/02/22-rdf-syntax-ns#"
   xmlns:svg="http://www.w3.org/2000/svg"
   xmlns="http://www.w3.org/2000/svg"
   xmlns:sodipodi="http://sodipodi.sourceforge.net/DTD/sodipodi-0.dtd"
   xmlns:inkscape="http://www.inkscape.org/namespaces/inkscape"
   version="1.1"
   id="svg6999"
   viewBox="0 0 64.000001 64.000001"
   height="64"
   width="64"
   inkscape:version="0.91 r13725"
   sodipodi:docname="verda_antaux.svg">
  <sodipodi:namedview
     pagecolor="#ffffff"
     bordercolor="#666666"
     borderopacity="1"
     objecttolerance="10"
     gridtolerance="10"
     guidetolerance="10"
     inkscape:pageopacity="0"
     inkscape:pageshadow="2"
     inkscape:window-width="1024"
     inkscape:window-height="744"
     id="namedview141"
     showgrid="false"
     inkscape:zoom="3.6875"
     inkscape:cx="32.135593"
     inkscape:cy="21.016949"
     inkscape:window-x="0"
     inkscape:window-y="24"
     inkscape:window-maximized="1"
     inkscape:current-layer="_869330224" />
  <defs
     id="defs7001" />
  <metadata
     id="metadata7004">
    <rdf:RDF>
      <cc:Work
         rdf:about="">
        <dc:format>image/svg+xml</dc:format>
        <dc:type
           rdf:resource="http://purl.org/dc/dcmitype/StillImage" />
        <dc:title />
      </cc:Work>
    </rdf:RDF>
  </metadata>
  <g
     transform="translate(0,-988.36216)"
     id="layer1">
    <g
       id="_869330224"
       style="clip-rule:evenodd;fill-rule:evenodd;image-rendering:optimizeQuality;shape-rendering:geometricPrecision;text-rendering:geometricPrecision"
       transform="matrix(0.0452937,0,0,0.04529361,-100.50672,944.65395)">
      <path
         class="fil1"
         d="m 2926,1743 c 390,0 706,142 706,318 0,175 -316,317 -706,317 -390,0 -707,-142 -707,-317 0,-176 317,-318 707,-318 z"
         id="path4052"
         style="fill:#000000;fill-opacity:0.10196102" />
      <g
         id="g4054">
        <path
           class="fil18"
           d="m 2926,1196 c 487,0 626,426 626,685 0,259 -280,376 -626,376 -346,0 -627,-117 -627,-376 0,-259 139,-685 627,-685 z"
           id="path4056"
           style="fill:#09af11" />
        <path
           class="fil18"
           d="m 2505,1832 c -276,146 -186,-621 411,-619 648,2 679,726 438,619 -181,-80 -657,-101 -849,0 z"
           id="path4058"
           style="fill:#09af11" />
        <g
           id="g4060">
          <path
             class="fil19"
             d="m 2509,1808 c -260,142 -184,-582 382,-589 614,-9 654,672 423,575 -172,-72 -624,-85 -805,14 z"
             id="path4062"
             style="fill:#08b311;fill-opacity:0.952941" />
          <path
             class="fil20"
             d="m 2514,1784 c -244,138 -184,-543 352,-560 581,-19 629,620 409,533 -164,-65 -592,-69 -761,27 z"
             id="path4064"
             style="fill:#08b711;fill-opacity:0.90980398" />
          <path
             class="fil21"
             d="m 2518,1759 c -228,134 -182,-503 323,-530 548,-29 603,567 395,490 -157,-58 -560,-52 -718,40 z"
             id="path4066"
             style="fill:#07bb12;fill-opacity:0.86274498" />
          <path
             class="fil22"
             d="m 2522,1735 c -212,130 -181,-463 294,-500 515,-40 578,513 380,446 -148,-50 -527,-36 -674,54 z"
             id="path4068"
             style="fill:#06bf12;fill-opacity:0.81960796" />
          <path
             class="fil23"
             d="m 2526,1711 c -196,125 -179,-424 265,-471 482,-50 553,460 366,403 -140,-42 -495,-19 -631,68 z"
             id="path4070"
             style="fill:#06c312;fill-opacity:0.77254896" />
          <path
             class="fil24"
             d="m 2530,1687 c -180,121 -178,-385 236,-441 449,-61 527,406 352,359 -132,-34 -464,-2 -588,82 z"
             id="path4072"
             style="fill:#05c612;fill-opacity:0.72548996" />
          <path
             class="fil25"
             d="m 2534,1662 c -164,118 -176,-345 207,-411 416,-71 502,353 337,317 -123,-27 -431,13 -544,94 z"
             id="path4074"
             style="fill:#05ca12;fill-opacity:0.682353" />
          <path
             class="fil26"
             d="m 2538,1638 c -148,113 -175,-306 178,-381 382,-82 477,299 323,273 -115,-20 -399,30 -501,108 z"
             id="path4076"
             style="fill:#04ce12;fill-opacity:0.635294" />
          <path
             class="fil27"
             d="m 2542,1614 c -132,109 -173,-267 149,-352 349,-92 451,246 308,230 -106,-12 -366,47 -457,122 z"
             id="path4078"
             style="fill:#03d213;fill-opacity:0.59215698" />
          <path
             class="fil28"
             d="m 2546,1590 c -116,104 -172,-228 120,-322 316,-103 426,192 294,186 -99,-4 -334,63 -414,136 z"
             id="path4080"
             style="fill:#03d613;fill-opacity:0.54509798" />
        </g>
        <path
           class="fil29"
           d="m 2550,1565 c -99,101 -170,-188 91,-292 283,-113 401,139 280,143 -91,4 -302,80 -371,149 z"
           id="path4082"
           style="fill:#02da13;fill-opacity:0.50196078" />
        <path
           class="fil30"
           d="m 2926,1196 c 487,0 626,426 626,685 0,14 -1,28 -2,41 -21,-259 -174,-624 -624,-624 -451,0 -604,365 -624,624 -2,-13 -3,-27 -3,-41 0,-259 139,-685 627,-685 z"
           id="path4084"
           style="fill:#02da13" />
        <path
           class="fil31"
           d="m 2926,1764 c 279,0 506,97 506,218 0,121 -227,218 -506,218 -280,0 -507,-97 -507,-218 0,-121 227,-218 507,-218 z"
           id="path4086"
           style="fill:#0b950e" />
        <path
           class="fil16"
           d="m 2926,1196 c 431,0 589,334 620,590 -580,-142 -782,361 -1247,103 0,-3 0,-5 0,-8 0,-259 139,-685 627,-685 z"
           id="path4088"
           style="fill:#ffffff;fill-opacity:0.2" />
        <path
           class="fil16"
           d="m 2619,1293 c 189,-111 391,-118 451,-16 61,103 -43,276 -232,387 -189,112 -391,119 -452,17 -60,-103 44,-276 233,-388 z"
           id="path4090"
           style="fill:#ffffff;fill-opacity:0.2" />
        <path
           class="fil17"
           d="m 3479,1869 c 29,6 44,46 34,88 -10,42 -41,71 -69,65 -29,-7 -44,-47 -34,-89 10,-42 41,-71 69,-64 z"
           id="path4092"
           style="fill:#ffffff;fill-opacity:0.50196078" />
        <path
           class="fil17"
           d="m 2667,1297 c 82,-39 166,-34 188,11 21,44 -29,113 -111,152 -83,39 -167,34 -189,-11 -21,-44 29,-112 112,-152 z"
           id="path4094"
           style="fill:#ffffff;fill-opacity:0.50196078" />
        <path
           class="fil17"
           d="m 2454,1511 c 25,-35 62,-53 81,-39 19,14 14,54 -12,90 -25,35 -62,53 -81,39 -19,-14 -14,-54 12,-90 z"
           id="path4096"
           style="fill:#ffffff;fill-opacity:0.50196078" />
      </g>
      <g
         id="g4098">
        <path
           class="fil18"
           d="m 2933,985 c 235,0 303,207 303,332 0,125 -136,182 -303,182 -168,0 -304,-57 -304,-182 0,-125 68,-332 304,-332 z"
           id="path4100"
           style="fill:#09af11" />
        <path
           class="fil18"
           d="m 2729,1293 c -133,71 -90,-300 199,-300 314,1 329,352 212,300 -88,-39 -318,-49 -411,0 z"
           id="path4102"
           style="fill:#09af11" />
        <g
           id="g4104">
          <path
             class="fil19"
             d="m 2731,1282 c -126,68 -89,-282 185,-286 297,-4 317,326 205,279 -84,-35 -303,-41 -390,7 z"
             id="path4106"
             style="fill:#08b311;fill-opacity:0.952941" />
          <path
             class="fil20"
             d="m 2733,1270 c -118,67 -89,-263 171,-271 281,-9 304,300 198,258 -80,-32 -287,-34 -369,13 z"
             id="path4108"
             style="fill:#08b711;fill-opacity:0.90980398" />
          <path
             class="fil21"
             d="m 2735,1258 c -110,65 -88,-244 157,-257 265,-14 292,275 191,237 -76,-27 -271,-25 -348,20 z"
             id="path4110"
             style="fill:#07bb12;fill-opacity:0.86274498" />
          <path
             class="fil22"
             d="m 2737,1246 c -103,63 -87,-224 142,-242 250,-19 280,248 185,216 -72,-24 -256,-17 -327,26 z"
             id="path4112"
             style="fill:#06bf12;fill-opacity:0.81960796" />
          <path
             class="fil23"
             d="m 2739,1235 c -95,60 -87,-206 128,-228 234,-25 268,222 178,195 -68,-21 -240,-10 -306,33 z"
             id="path4114"
             style="fill:#06c312;fill-opacity:0.77254896" />
          <path
             class="fil24"
             d="m 2741,1223 c -87,59 -86,-187 114,-214 218,-29 256,197 171,174 -64,-16 -225,-1 -285,40 z"
             id="path4116"
             style="fill:#05c612;fill-opacity:0.72548996" />
          <path
             class="fil25"
             d="m 2743,1211 c -79,57 -85,-167 100,-199 201,-35 243,171 164,153 -60,-13 -209,7 -264,46 z"
             id="path4118"
             style="fill:#05ca12;fill-opacity:0.682353" />
          <path
             class="fil26"
             d="m 2745,1199 c -72,55 -85,-148 86,-184 185,-40 231,145 156,132 -55,-10 -192,14 -242,52 z"
             id="path4120"
             style="fill:#04ce12;fill-opacity:0.635294" />
          <path
             class="fil27"
             d="m 2747,1188 c -64,52 -84,-130 72,-171 169,-44 219,119 149,112 -51,-6 -177,22 -221,59 z"
             id="path4122"
             style="fill:#03d213;fill-opacity:0.59215698" />
          <path
             class="fil28"
             d="m 2749,1176 c -56,51 -83,-110 58,-156 153,-50 206,93 142,90 -47,-2 -161,31 -200,66 z"
             id="path4124"
             style="fill:#03d613;fill-opacity:0.54509798" />
        </g>
        <path
           class="fil29"
           d="m 2751,1164 c -48,49 -83,-91 44,-142 137,-54 194,68 135,70 -44,2 -146,38 -179,72 z"
           id="path4126"
           style="fill:#02da13;fill-opacity:0.50196078" />
        <path
           class="fil30"
           d="m 2933,985 c 235,0 303,207 303,332 0,7 0,13 -1,20 -10,-126 -84,-302 -302,-302 -218,0 -293,176 -303,302 0,-7 -1,-13 -1,-20 0,-125 68,-332 304,-332 z"
           id="path4128"
           style="fill:#02da13" />
        <path
           class="fil16"
           d="m 2933,985 c 208,0 285,162 300,286 -281,-69 -378,175 -604,50 0,-2 0,-3 0,-4 0,-125 68,-332 304,-332 z"
           id="path4130"
           style="fill:#ffffff;fill-opacity:0.2" />
        <path
           class="fil16"
           d="m 2784,1032 c 92,-54 189,-57 219,-7 29,49 -21,133 -113,187 -91,54 -189,57 -219,8 -29,-50 22,-134 113,-188 z"
           id="path4132"
           style="fill:#ffffff;fill-opacity:0.2" />
        <path
           class="fil17"
           d="m 3201,1311 c 14,3 21,22 16,43 -5,20 -20,34 -33,31 -14,-3 -22,-22 -17,-43 5,-20 20,-34 34,-31 z"
           id="path4134"
           style="fill:#ffffff;fill-opacity:0.50196078" />
        <path
           class="fil17"
           d="m 2807,1034 c 40,-19 81,-16 91,5 11,22 -14,55 -54,74 -40,19 -80,17 -91,-5 -10,-22 14,-55 54,-74 z"
           id="path4136"
           style="fill:#ffffff;fill-opacity:0.50196078" />
        <path
           class="fil17"
           d="m 2704,1138 c 12,-17 30,-26 39,-19 10,7 7,26 -5,43 -13,17 -30,26 -40,19 -9,-7 -6,-26 6,-43 z"
           id="path4138"
           style="fill:#ffffff;fill-opacity:0.50196078" />
      </g>
      <g
         id="g4140">
        <path
           class="fil18"
           d="m 2437,1147 c 191,-110 343,26 402,128 58,101 -25,211 -161,289 -137,79 -273,97 -332,-5 -59,-102 -101,-301 91,-412 z"
           id="path4142"
           style="fill:#09af11" />
        <path
           class="fil18"
           d="m 2416,1493 c -75,120 -214,-202 21,-337 255,-146 432,132 313,144 -90,10 -282,110 -334,193 z"
           id="path4144"
           style="fill:#09af11" />
        <g
           id="g4146">
          <path
             class="fil19"
             d="m 2412,1482 c -70,115 -205,-186 16,-318 240,-143 410,116 298,130 -85,11 -265,109 -314,188 z"
             id="path4148"
             style="fill:#08b311;fill-opacity:0.952941" />
          <path
             class="fil20"
             d="m 2408,1472 c -64,110 -195,-172 12,-300 224,-139 388,101 281,116 -79,12 -248,108 -293,184 z"
             id="path4150"
             style="fill:#08b711;fill-opacity:0.90980398" />
          <path
             class="fil21"
             d="m 2404,1462 c -59,104 -185,-157 7,-282 209,-136 366,85 266,103 -74,12 -232,106 -273,179 z"
             id="path4152"
             style="fill:#07bb12;fill-opacity:0.86274498" />
          <path
             class="fil22"
             d="m 2400,1451 c -53,99 -176,-141 2,-263 194,-133 344,70 251,89 -69,14 -215,105 -253,174 z"
             id="path4154"
             style="fill:#06bf12;fill-opacity:0.81960796" />
          <path
             class="fil23"
             d="m 2397,1441 c -49,93 -167,-127 -3,-246 178,-129 322,56 235,76 -64,15 -199,105 -232,170 z"
             id="path4156"
             style="fill:#06c312;fill-opacity:0.77254896" />
          <path
             class="fil24"
             d="m 2393,1430 c -44,89 -158,-111 -8,-227 163,-126 300,40 220,62 -59,16 -182,104 -212,165 z"
             id="path4158"
             style="fill:#05c612;fill-opacity:0.72548996" />
          <path
             class="fil25"
             d="m 2389,1420 c -38,83 -148,-96 -12,-209 147,-122 277,25 204,48 -54,17 -166,103 -192,161 z"
             id="path4160"
             style="fill:#05ca12;fill-opacity:0.682353" />
          <path
             class="fil26"
             d="m 2385,1409 c -33,78 -138,-81 -17,-190 132,-119 256,9 189,34 -50,18 -150,102 -172,156 z"
             id="path4162"
             style="fill:#04ce12;fill-opacity:0.635294" />
          <path
             class="fil27"
             d="m 2381,1399 c -27,73 -129,-66 -22,-172 117,-116 234,-6 174,20 -45,20 -133,101 -152,152 z"
             id="path4164"
             style="fill:#03d213;fill-opacity:0.59215698" />
          <path
             class="fil28"
             d="m 2377,1388 c -22,68 -119,-50 -26,-153 101,-113 211,-22 158,6 -40,21 -117,101 -132,147 z"
             id="path4166"
             style="fill:#03d613;fill-opacity:0.54509798" />
        </g>
        <path
           class="fil29"
           d="m 2373,1378 c -16,62 -110,-36 -31,-136 86,-108 190,-36 143,-7 -35,22 -101,100 -112,143 z"
           id="path4168"
           style="fill:#02da13;fill-opacity:0.50196078" />
        <path
           class="fil30"
           d="m 2437,1147 c 191,-110 343,26 402,128 3,5 6,11 8,16 -67,-97 -210,-205 -387,-103 -177,102 -155,280 -104,387 -3,-5 -7,-10 -10,-16 -59,-102 -101,-301 91,-412 z"
           id="path4170"
           style="fill:#02da13" />
        <path
           class="fil16"
           d="m 2437,1147 c 169,-98 308,-2 378,92 -261,75 -226,319 -467,323 -1,-1 -1,-2 -2,-3 -59,-102 -101,-301 91,-412 z"
           id="path4172"
           style="fill:#ffffff;fill-opacity:0.2" />
        <path
           class="fil16"
           d="m 2338,1255 c 49,-86 127,-135 174,-109 47,27 46,119 -3,206 -49,86 -127,135 -174,108 -47,-26 -46,-118 3,-205 z"
           id="path4174"
           style="fill:#ffffff;fill-opacity:0.2" />
        <path
           class="fil17"
           d="m 2807,1286 c 13,-4 28,8 34,27 5,19 0,37 -13,41 -13,4 -28,-8 -33,-27 -6,-19 0,-37 12,-41 z"
           id="path4176"
           style="fill:#ffffff;fill-opacity:0.50196078" />
        <path
           class="fil17"
           d="m 2358,1246 c 24,-34 58,-51 76,-39 19,13 15,51 -9,85 -24,35 -58,52 -76,39 -19,-13 -15,-51 9,-85 z"
           id="path4178"
           style="fill:#ffffff;fill-opacity:0.50196078" />
        <path
           class="fil17"
           d="m 2323,1379 c 2,-20 12,-35 23,-34 11,1 18,18 16,38 -2,19 -13,34 -23,33 -11,-1 -18,-18 -16,-37 z"
           id="path4180"
           style="fill:#ffffff;fill-opacity:0.50196078" />
      </g>
      <g
         id="g4182">
        <path
           class="fil18"
           d="m 3400,1147 c -191,-110 -343,26 -402,128 -58,101 25,211 161,289 136,79 273,97 332,-5 59,-102 101,-301 -91,-412 z"
           id="path4184"
           style="fill:#09af11" />
        <path
           class="fil18"
           d="m 3421,1493 c 75,120 214,-202 -21,-337 -255,-146 -432,132 -313,144 90,10 282,110 334,193 z"
           id="path4186"
           style="fill:#09af11" />
        <g
           id="g4188">
          <path
             class="fil19"
             d="m 3425,1482 c 70,115 205,-186 -16,-318 -240,-143 -410,116 -298,130 85,11 265,109 314,188 z"
             id="path4190"
             style="fill:#08b311;fill-opacity:0.952941" />
          <path
             class="fil20"
             d="m 3429,1472 c 64,110 195,-172 -12,-300 -224,-139 -388,101 -282,116 80,12 249,108 294,184 z"
             id="path4192"
             style="fill:#08b711;fill-opacity:0.90980398" />
          <path
             class="fil21"
             d="m 3433,1462 c 59,104 185,-157 -7,-282 -209,-136 -366,85 -266,103 74,12 232,106 273,179 z"
             id="path4194"
             style="fill:#07bb12;fill-opacity:0.86274498" />
          <path
             class="fil22"
             d="m 3437,1451 c 53,99 176,-141 -2,-263 -194,-133 -344,70 -251,89 69,14 215,105 253,174 z"
             id="path4196"
             style="fill:#06bf12;fill-opacity:0.81960796" />
          <path
             class="fil23"
             d="m 3440,1441 c 49,93 167,-127 3,-246 -178,-129 -322,56 -235,76 64,15 199,105 232,170 z"
             id="path4198"
             style="fill:#06c312;fill-opacity:0.77254896" />
          <path
             class="fil24"
             d="m 3444,1430 c 43,89 158,-111 8,-227 -163,-126 -300,40 -220,62 59,16 182,104 212,165 z"
             id="path4200"
             style="fill:#05c612;fill-opacity:0.72548996" />
          <path
             class="fil25"
             d="m 3448,1420 c 38,83 148,-96 12,-209 -147,-122 -277,25 -204,48 54,17 166,103 192,161 z"
             id="path4202"
             style="fill:#05ca12;fill-opacity:0.682353" />
          <path
             class="fil26"
             d="m 3452,1409 c 33,78 138,-81 17,-190 -132,-119 -256,9 -189,34 50,18 150,102 172,156 z"
             id="path4204"
             style="fill:#04ce12;fill-opacity:0.635294" />
          <path
             class="fil27"
             d="m 3456,1399 c 27,73 129,-66 21,-172 -116,-116 -233,-6 -173,20 45,20 133,101 152,152 z"
             id="path4206"
             style="fill:#03d213;fill-opacity:0.59215698" />
          <path
             class="fil28"
             d="m 3460,1388 c 22,68 119,-50 26,-153 -101,-113 -211,-22 -158,6 40,21 117,101 132,147 z"
             id="path4208"
             style="fill:#03d613;fill-opacity:0.54509798" />
        </g>
        <path
           class="fil29"
           d="m 3464,1378 c 16,62 110,-36 31,-136 -86,-108 -190,-36 -143,-7 35,22 101,100 112,143 z"
           id="path4210"
           style="fill:#02da13;fill-opacity:0.50196078" />
        <path
           class="fil30"
           d="m 3400,1147 c -191,-110 -343,26 -402,128 -3,5 -6,11 -8,16 67,-97 210,-205 387,-103 177,102 154,280 104,387 3,-5 7,-10 10,-16 59,-102 101,-301 -91,-412 z"
           id="path4212"
           style="fill:#02da13" />
        <path
           class="fil16"
           d="m 3400,1147 c -169,-98 -308,-2 -378,92 260,75 226,319 467,323 1,-1 1,-2 2,-3 59,-102 101,-301 -91,-412 z"
           id="path4214"
           style="fill:#ffffff;fill-opacity:0.2" />
        <path
           class="fil16"
           d="m 3499,1255 c -49,-86 -127,-135 -174,-109 -47,27 -46,119 3,206 49,86 127,135 174,108 47,-26 46,-118 -3,-205 z"
           id="path4216"
           style="fill:#ffffff;fill-opacity:0.2" />
        <path
           class="fil17"
           d="m 3030,1286 c -13,-4 -28,8 -34,27 -5,19 0,37 13,41 13,4 28,-8 33,-27 6,-19 0,-37 -12,-41 z"
           id="path4218"
           style="fill:#ffffff;fill-opacity:0.50196078" />
        <path
           class="fil17"
           d="m 3479,1246 c -24,-34 -58,-51 -76,-39 -19,13 -15,51 9,85 23,35 58,52 76,39 19,-13 15,-51 -9,-85 z"
           id="path4220"
           style="fill:#ffffff;fill-opacity:0.50196078" />
        <path
           class="fil17"
           d="m 3514,1379 c -2,-20 -12,-35 -23,-34 -11,1 -18,18 -16,38 2,19 13,34 23,33 11,-1 18,-18 16,-37 z"
           id="path4222"
           style="fill:#ffffff;fill-opacity:0.50196078" />
      </g>
      <g
         id="g4224">
        <path
           class="fil18"
           d="m 2933,1129 c 268,0 344,235 344,377 0,143 -154,207 -344,207 -191,0 -345,-64 -345,-207 0,-142 77,-377 345,-377 z"
           id="path4226"
           style="fill:#09af11" />
        <path
           class="fil18"
           d="m 2701,1479 c -151,81 -102,-341 226,-340 357,1 374,399 241,340 -99,-44 -361,-55 -467,0 z"
           id="path4228"
           style="fill:#09af11" />
        <g
           id="g4230">
          <path
             class="fil19"
             d="m 2704,1466 c -143,78 -102,-320 209,-324 339,-5 361,370 234,317 -95,-40 -344,-47 -443,7 z"
             id="path4232"
             style="fill:#08b311;fill-opacity:0.952941" />
          <path
             class="fil20"
             d="m 2706,1453 c -134,76 -101,-299 194,-308 320,-11 346,341 225,293 -91,-36 -326,-38 -419,15 z"
             id="path4234"
             style="fill:#08b711;fill-opacity:0.90980398" />
          <path
             class="fil21"
             d="m 2708,1439 c -125,74 -100,-276 178,-291 302,-16 332,311 217,269 -86,-32 -308,-29 -395,22 z"
             id="path4236"
             style="fill:#07bb12;fill-opacity:0.86274498" />
          <path
             class="fil22"
             d="m 2710,1426 c -116,71 -99,-255 162,-275 284,-22 318,282 210,245 -82,-27 -291,-19 -372,30 z"
             id="path4238"
             style="fill:#06bf12;fill-opacity:0.81960796" />
          <path
             class="fil23"
             d="m 2713,1413 c -108,69 -99,-234 145,-259 266,-28 305,253 202,221 -77,-23 -273,-10 -347,38 z"
             id="path4240"
             style="fill:#06c312;fill-opacity:0.77254896" />
          <path
             class="fil24"
             d="m 2715,1399 c -99,67 -98,-212 130,-242 247,-34 290,223 193,198 -72,-19 -255,-2 -323,44 z"
             id="path4242"
             style="fill:#05c612;fill-opacity:0.72548996" />
          <path
             class="fil25"
             d="m 2717,1386 c -90,65 -97,-190 114,-226 229,-39 276,194 186,174 -68,-15 -237,7 -300,52 z"
             id="path4244"
             style="fill:#05ca12;fill-opacity:0.682353" />
          <path
             class="fil26"
             d="m 2719,1373 c -81,62 -96,-169 98,-210 211,-45 263,164 178,150 -63,-11 -219,17 -276,60 z"
             id="path4246"
             style="fill:#04ce12;fill-opacity:0.635294" />
          <path
             class="fil27"
             d="m 2722,1359 c -73,60 -96,-147 81,-193 193,-51 249,135 170,126 -59,-6 -201,26 -251,67 z"
             id="path4248"
             style="fill:#03d213;fill-opacity:0.59215698" />
          <path
             class="fil28"
             d="m 2724,1346 c -64,58 -95,-125 66,-177 174,-57 234,106 162,102 -55,-2 -184,35 -228,75 z"
             id="path4250"
             style="fill:#03d613;fill-opacity:0.54509798" />
        </g>
        <path
           class="fil29"
           d="m 2726,1333 c -55,55 -94,-104 50,-161 156,-63 220,76 154,79 -50,1 -166,43 -204,82 z"
           id="path4252"
           style="fill:#02da13;fill-opacity:0.50196078" />
        <path
           class="fil30"
           d="m 2933,1129 c 268,0 344,235 344,377 0,8 0,16 -1,23 -11,-143 -96,-343 -343,-343 -248,0 -332,200 -344,343 -1,-7 -1,-15 -1,-23 0,-142 77,-377 345,-377 z"
           id="path4254"
           style="fill:#02da13" />
        <path
           class="fil16"
           d="m 2933,1129 c 237,0 324,184 341,325 -319,-78 -430,199 -686,57 0,-2 0,-3 0,-5 0,-142 77,-377 345,-377 z"
           id="path4256"
           style="fill:#ffffff;fill-opacity:0.2" />
        <path
           class="fil16"
           d="m 2764,1183 c 104,-61 215,-65 248,-9 34,56 -24,152 -128,213 -104,61 -215,65 -248,9 -34,-56 24,-152 128,-213 z"
           id="path4258"
           style="fill:#ffffff;fill-opacity:0.2" />
        <path
           class="fil17"
           d="m 3237,1500 c 16,3 24,25 19,48 -5,23 -22,39 -38,36 -16,-4 -24,-26 -19,-49 6,-23 23,-39 38,-35 z"
           id="path4260"
           style="fill:#ffffff;fill-opacity:0.50196078" />
        <path
           class="fil17"
           d="m 2790,1185 c 46,-21 92,-19 104,6 11,24 -16,62 -62,83 -45,22 -91,19 -103,-5 -12,-25 16,-62 61,-84 z"
           id="path4262"
           style="fill:#ffffff;fill-opacity:0.50196078" />
        <path
           class="fil17"
           d="m 2673,1303 c 14,-20 34,-29 45,-22 10,8 7,30 -7,50 -14,19 -34,29 -45,21 -10,-8 -7,-30 7,-49 z"
           id="path4264"
           style="fill:#ffffff;fill-opacity:0.50196078" />
      </g>
      <circle
         class="fil31"
         cx="2575"
         cy="1921"
         r="160"
         id="circle4266"
         style="fill:#0b950e" />
      <g
         id="g4268">
        <circle
           class="fil60"
           cx="2591"
           cy="1914"
           r="132"
           id="circle4270"
           style="fill:#dbffff" />
        <circle
           class="fil61"
           cx="2601"
           cy="1897"
           r="104"
           id="circle4272"
           style="fill:#ffffff" />
        <circle
           class="fil69"
           cx="2591"
           cy="1914"
           r="79"
           id="circle4274"
           style="fill:#663333" />
        <path
           class="fil70"
           d="m 2591,1844 c 39,0 70,31 70,70 0,39 -31,-9 -70,-9 -38,0 -70,48 -70,9 0,-39 31,-70 70,-70 z"
           id="path4276"
           style="fill:#522a2a" />
        <circle
           class="fil71"
           cx="2591"
           cy="1914"
           r="32"
           id="circle4278"
           style="fill:#2d1717" />
        <circle
           class="fil61"
           cx="2543"
           cy="1854"
           r="50"
           id="circle4280"
           style="fill:#ffffff" />
        <circle
           class="fil61"
           cx="2648"
           cy="1981"
           r="25"
           id="circle4282"
           style="fill:#ffffff" />
      </g>
      <g
         id="g4284">
        <ellipse
           class="fil65"
           cx="2445"
           cy="2054"
           rx="69"
           ry="36"
           id="ellipse4286"
           style="fill:#ff6666" />
        <path
           class="fil66"
           d="m 2509,2040 c 3,4 5,9 5,14 0,20 -31,36 -69,36 -39,0 -69,-16 -69,-36 0,-5 1,-10 5,-14 l 0,1 c 0,20 28,36 64,36 35,0 64,-16 64,-36 l 0,-1 z"
           id="path4288"
           style="fill:#ff4747" />
        <ellipse
           class="fil67"
           transform="matrix(0.471507,-0.115182,0.115182,0.471507,2415.17,2041.72)"
           rx="62"
           ry="32"
           id="ellipse4290"
           cx="0"
           cy="0"
           style="fill:#ff9d9d" />
      </g>
      <circle
         class="fil31"
         cx="3269"
         cy="1921"
         r="160"
         id="circle4292"
         style="fill:#0b950e" />
      <g
         id="g4294">
        <circle
           class="fil60"
           cx="3253"
           cy="1914"
           r="132"
           id="circle4296"
           style="fill:#dbffff" />
        <circle
           class="fil61"
           cx="3264"
           cy="1897"
           r="104"
           id="circle4298"
           style="fill:#ffffff" />
        <circle
           class="fil69"
           cx="3253"
           cy="1914"
           r="79"
           id="circle4300"
           style="fill:#663333" />
        <path
           class="fil70"
           d="m 3253,1844 c 39,0 71,31 71,70 0,39 -31,-9 -70,-9 -39,0 -71,48 -71,9 0,-39 32,-70 70,-70 z"
           id="path4302"
           style="fill:#522a2a" />
        <circle
           class="fil71"
           cx="3253"
           cy="1914"
           r="32"
           id="circle4304"
           style="fill:#2d1717" />
        <circle
           class="fil61"
           cx="3205"
           cy="1854"
           r="50"
           id="circle4306"
           style="fill:#ffffff" />
        <circle
           class="fil61"
           cx="3311"
           cy="1981"
           r="25"
           id="circle4308"
           style="fill:#ffffff" />
      </g>
      <g
         id="g4310">
        <ellipse
           class="fil65"
           cx="3400"
           cy="2054"
           rx="69"
           ry="36"
           id="ellipse4312"
           style="fill:#ff6666" />
        <path
           class="fil66"
           d="m 3464,2040 c 3,4 5,9 5,14 0,20 -31,36 -69,36 -39,0 -69,-16 -69,-36 0,-5 1,-10 5,-14 l 0,1 c 0,20 28,36 64,36 35,0 64,-16 64,-36 l 0,-1 z"
           id="path4314"
           style="fill:#ff4747" />
        <ellipse
           class="fil67"
           transform="matrix(0.471507,-0.115182,0.115182,0.471507,3370.14,2041.72)"
           rx="62"
           ry="32"
           id="ellipse4316"
           cx="0"
           cy="0"
           style="fill:#ff9d9d" />
      </g>
      <path
         class="fil72"
         d="m 2798,2008 c -4,-4 -4,-10 -1,-14 4,-4 10,-5 14,-1 16,15 33,23 50,24 18,1 37,-7 57,-24 4,-4 11,-3 14,1 l 3,3 c 18,15 36,23 54,22 16,0 33,-8 47,-24 l 3,-3 c 4,-4 10,-4 14,-1 4,4 5,10 1,14 l -3,4 0,0 0,0 c -19,20 -40,30 -62,30 -22,1 -43,-8 -65,-25 -22,16 -43,24 -64,23 -22,-1 -43,-11 -62,-29 z"
         id="path4318"
         style="fill:#000000;fill-rule:nonzero" />
    </g>
  </g>
</svg>
