<?xml version="1.0" encoding="UTF-8" standalone="no"?>
<svg
   xmlns:dc="http://purl.org/dc/elements/1.1/"
   xmlns:cc="http://creativecommons.org/ns#"
   xmlns:rdf="http://www.w3.org/1999/02/22-rdf-syntax-ns#"
   xmlns:svg="http://www.w3.org/2000/svg"
   xmlns="http://www.w3.org/2000/svg"
   xmlns:sodipodi="http://sodipodi.sourceforge.net/DTD/sodipodi-0.dtd"
   xmlns:inkscape="http://www.inkscape.org/namespaces/inkscape"
   version="1.1"
   id="svg6999"
   viewBox="0 0 64.000001 64.000001"
   height="64"
   width="64"
   inkscape:version="0.91 r13725"
   sodipodi:docname="viola_antaux.svg">
  <sodipodi:namedview
     pagecolor="#ffffff"
     bordercolor="#666666"
     borderopacity="1"
     objecttolerance="10"
     gridtolerance="10"
     guidetolerance="10"
     inkscape:pageopacity="0"
     inkscape:pageshadow="2"
     inkscape:window-width="1024"
     inkscape:window-height="744"
     id="namedview106"
     showgrid="false"
     inkscape:zoom="3.6875"
     inkscape:cx="2.3050847"
     inkscape:cy="32"
     inkscape:window-x="0"
     inkscape:window-y="24"
     inkscape:window-maximized="1"
     inkscape:current-layer="svg6999" />
  <defs
     id="defs7001" />
  <metadata
     id="metadata7004">
    <rdf:RDF>
      <cc:Work
         rdf:about="">
        <dc:format>image/svg+xml</dc:format>
        <dc:type
           rdf:resource="http://purl.org/dc/dcmitype/StillImage" />
        <dc:title />
      </cc:Work>
    </rdf:RDF>
  </metadata>
  <g
     transform="translate(0,-994.35746)"
     id="layer1">
    <g
       id="_847950192"
       style="clip-rule:evenodd;fill-rule:evenodd;image-rendering:optimizeQuality;shape-rendering:geometricPrecision;text-rendering:geometricPrecision"
       transform="matrix(0.0452937,0,0,0.0452937,-302.74309,944.65374)">
      <path
         class="fil1"
         d="m 7390,1743 c 390,0 707,142 707,318 0,175 -317,317 -707,317 -390,0 -706,-142 -706,-317 0,-176 316,-318 706,-318 z"
         id="path4923"
         style="fill:#000000;fill-opacity:0.10196102"
         inkscape:connector-curvature="0" />
      <g
         id="g4925">
        <path
           class="fil90"
           d="m 7390,1196 c 487,0 627,426 627,685 0,259 -281,376 -627,376 -346,0 -626,-117 -626,-376 0,-259 139,-685 626,-685 z"
           id="path4927"
           style="fill:#ea75eb"
           inkscape:connector-curvature="0" />
        <path
           class="fil90"
           d="m 6970,1832 c -276,146 -186,-621 410,-619 648,2 680,726 439,619 -181,-80 -657,-101 -849,0 z"
           id="path4929"
           style="fill:#ea75eb"
           inkscape:connector-curvature="0" />
        <g
           id="g4931">
          <path
             class="fil91"
             d="m 6974,1808 c -260,142 -185,-582 381,-589 615,-9 655,672 424,575 -172,-72 -625,-85 -805,14 z"
             id="path4933"
             style="fill:#eb79ec;fill-opacity:0.952941"
             inkscape:connector-curvature="0" />
          <path
             class="fil92"
             d="m 6978,1784 c -244,138 -183,-543 352,-560 582,-19 630,620 410,533 -165,-65 -593,-69 -762,27 z"
             id="path4935"
             style="fill:#ec7ded;fill-opacity:0.90980398"
             inkscape:connector-curvature="0" />
          <path
             class="fil93"
             d="m 6982,1759 c -227,134 -181,-503 323,-530 549,-29 604,567 395,490 -156,-58 -560,-52 -718,40 z"
             id="path4937"
             style="fill:#ed82ee;fill-opacity:0.86274498"
             inkscape:connector-curvature="0" />
          <path
             class="fil94"
             d="m 6986,1735 c -211,130 -180,-463 294,-500 516,-40 579,513 381,446 -148,-50 -528,-36 -675,54 z"
             id="path4939"
             style="fill:#ee86ef;fill-opacity:0.81960796"
             inkscape:connector-curvature="0" />
          <path
             class="fil95"
             d="m 6991,1711 c -196,125 -179,-424 264,-471 483,-50 554,460 367,403 -140,-42 -496,-19 -631,68 z"
             id="path4941"
             style="fill:#ef8af0;fill-opacity:0.77254896"
             inkscape:connector-curvature="0" />
          <path
             class="fil96"
             d="m 6995,1687 c -180,121 -178,-385 235,-441 450,-61 528,406 352,359 -131,-34 -463,-2 -587,82 z"
             id="path4943"
             style="fill:#f18ef2;fill-opacity:0.72548996"
             inkscape:connector-curvature="0" />
          <path
             class="fil97"
             d="m 6999,1662 c -164,118 -176,-345 206,-411 416,-71 503,353 338,317 -123,-27 -431,13 -544,94 z"
             id="path4945"
             style="fill:#f292f3;fill-opacity:0.682353"
             inkscape:connector-curvature="0" />
          <path
             class="fil98"
             d="m 7003,1638 c -148,113 -175,-306 177,-381 383,-82 477,299 324,273 -116,-20 -399,30 -501,108 z"
             id="path4947"
             style="fill:#f396f4;fill-opacity:0.635294"
             inkscape:connector-curvature="0" />
          <path
             class="fil99"
             d="m 7007,1614 c -132,109 -173,-267 148,-352 350,-92 452,246 309,230 -107,-12 -366,47 -457,122 z"
             id="path4949"
             style="fill:#f49bf5;fill-opacity:0.59215698"
             inkscape:connector-curvature="0" />
          <path
             class="fil100"
             d="m 7011,1590 c -116,104 -172,-228 119,-322 317,-103 427,192 295,186 -99,-4 -334,63 -414,136 z"
             id="path4951"
             style="fill:#f59ff6;fill-opacity:0.54509798"
             inkscape:connector-curvature="0" />
        </g>
        <path
           class="fil101"
           d="m 7015,1565 c -100,101 -170,-188 90,-292 284,-113 401,139 281,143 -91,4 -302,80 -371,149 z"
           id="path4953"
           style="fill:#f6a3f7;fill-opacity:0.50196078"
           inkscape:connector-curvature="0" />
        <path
           class="fil102"
           d="m 7390,1196 c 487,0 627,426 627,685 0,14 -1,28 -3,41 -20,-259 -174,-624 -624,-624 -450,0 -603,365 -624,624 -1,-13 -2,-27 -2,-41 0,-259 139,-685 626,-685 z"
           id="path4955"
           style="fill:#f6a3f7"
           inkscape:connector-curvature="0" />
        <path
           class="fil103"
           d="m 7390,1764 c 280,0 507,97 507,218 0,121 -227,218 -507,218 -280,0 -506,-97 -506,-218 0,-121 226,-218 506,-218 z"
           id="path4957"
           style="fill:#cf4ada"
           inkscape:connector-curvature="0" />
        <path
           class="fil16"
           d="m 7390,1196 c 431,0 590,334 621,590 -580,-142 -782,361 -1247,103 0,-3 0,-5 0,-8 0,-259 139,-685 626,-685 z"
           id="path4959"
           style="fill:#ffffff;fill-opacity:0.2"
           inkscape:connector-curvature="0" />
        <path
           class="fil16"
           d="m 7084,1293 c 188,-111 391,-118 451,-16 61,103 -44,276 -233,387 -189,112 -391,119 -451,17 -61,-103 44,-276 233,-388 z"
           id="path4961"
           style="fill:#ffffff;fill-opacity:0.2"
           inkscape:connector-curvature="0" />
        <path
           class="fil17"
           d="m 7944,1869 c 29,6 44,46 34,88 -10,42 -41,71 -69,65 -29,-7 -44,-47 -34,-89 10,-42 41,-71 69,-64 z"
           id="path4963"
           style="fill:#ffffff;fill-opacity:0.50196078"
           inkscape:connector-curvature="0" />
        <path
           class="fil17"
           d="m 7131,1297 c 83,-39 167,-34 188,11 22,44 -28,113 -111,152 -82,39 -166,34 -188,-11 -21,-44 29,-112 111,-152 z"
           id="path4965"
           style="fill:#ffffff;fill-opacity:0.50196078"
           inkscape:connector-curvature="0" />
        <path
           class="fil17"
           d="m 6918,1511 c 26,-35 62,-53 82,-39 19,14 14,54 -12,90 -26,35 -62,53 -81,39 -19,-14 -14,-54 11,-90 z"
           id="path4967"
           style="fill:#ffffff;fill-opacity:0.50196078"
           inkscape:connector-curvature="0" />
      </g>
      <g
         id="g4969">
        <path
           class="fil90"
           d="m 6849,1202 c 154,-122 305,-22 371,59 65,82 5,190 -104,277 -109,87 -227,121 -293,39 -65,-82 -128,-252 26,-375 z"
           id="path4971"
           style="fill:#ea75eb"
           inkscape:connector-curvature="0" />
        <path
           class="fil90"
           d="m 6876,1509 c -50,116 -215,-149 -26,-299 206,-162 398,59 295,86 -78,20 -234,133 -269,213 z"
           id="path4973"
           style="fill:#ea75eb"
           inkscape:connector-curvature="0" />
        <g
           id="g4975">
          <path
             class="fil91"
             d="m 6872,1501 c -47,110 -205,-138 -28,-283 192,-157 376,48 279,76 -73,20 -219,130 -251,207 z"
             id="path4977"
             style="fill:#eb79ec;fill-opacity:0.952941"
             inkscape:connector-curvature="0" />
          <path
             class="fil92"
             d="m 6867,1492 c -43,105 -195,-125 -30,-266 179,-152 355,38 264,66 -69,21 -205,127 -234,200 z"
             id="path4979"
             style="fill:#ec7ded;fill-opacity:0.90980398"
             inkscape:connector-curvature="0" />
          <path
             class="fil93"
             d="m 6862,1483 c -38,100 -184,-113 -31,-249 166,-147 333,27 248,56 -64,21 -190,124 -217,193 z"
             id="path4981"
             style="fill:#ed82ee;fill-opacity:0.86274498"
             inkscape:connector-curvature="0" />
          <path
             class="fil94"
             d="m 6857,1475 c -34,94 -174,-102 -33,-233 153,-142 312,17 233,46 -60,21 -176,121 -200,187 z"
             id="path4983"
             style="fill:#ee86ef;fill-opacity:0.81960796"
             inkscape:connector-curvature="0" />
          <path
             class="fil95"
             d="m 6852,1466 c -30,89 -163,-89 -34,-216 139,-137 290,6 217,36 -55,21 -162,118 -183,180 z"
             id="path4985"
             style="fill:#ef8af0;fill-opacity:0.77254896"
             inkscape:connector-curvature="0" />
          <path
             class="fil96"
             d="m 6848,1457 c -27,84 -154,-77 -37,-199 127,-132 269,-4 202,26 -50,22 -147,115 -165,173 z"
             id="path4987"
             style="fill:#f18ef2;fill-opacity:0.72548996"
             inkscape:connector-curvature="0" />
          <path
             class="fil97"
             d="m 6843,1449 c -23,78 -143,-65 -38,-183 113,-127 247,-14 186,16 -46,22 -133,112 -148,167 z"
             id="path4989"
             style="fill:#f292f3;fill-opacity:0.682353"
             inkscape:connector-curvature="0" />
          <path
             class="fil98"
             d="m 6838,1440 c -18,73 -132,-53 -40,-166 100,-122 226,-25 171,6 -41,22 -118,109 -131,160 z"
             id="path4991"
             style="fill:#f396f4;fill-opacity:0.635294"
             inkscape:connector-curvature="0" />
          <path
             class="fil99"
             d="m 6833,1431 c -14,68 -122,-41 -41,-149 87,-117 204,-35 155,-5 -37,24 -104,107 -114,154 z"
             id="path4993"
             style="fill:#f49bf5;fill-opacity:0.59215698"
             inkscape:connector-curvature="0" />
          <path
             class="fil100"
             d="m 6828,1422 c -10,63 -111,-28 -43,-132 74,-112 183,-46 140,-15 -32,24 -90,104 -97,147 z"
             id="path4995"
             style="fill:#f59ff6;fill-opacity:0.54509798"
             inkscape:connector-curvature="0" />
        </g>
        <path
           class="fil101"
           d="m 6823,1414 c -6,57 -101,-17 -45,-116 62,-107 162,-56 125,-25 -28,24 -75,101 -80,141 z"
           id="path4997"
           style="fill:#f6a3f7;fill-opacity:0.50196078"
           inkscape:connector-curvature="0" />
        <path
           class="fil102"
           d="m 6849,1202 c 154,-122 305,-22 371,59 3,5 6,9 9,14 -72,-77 -212,-153 -354,-40 -142,113 -99,267 -40,354 -4,-4 -8,-8 -12,-12 -65,-82 -128,-252 26,-375 z"
           id="path4999"
           style="fill:#f6a3f7"
           inkscape:connector-curvature="0" />
        <path
           class="fil16"
           d="m 6849,1202 c 136,-108 271,-42 345,31 -219,101 -156,311 -369,346 0,-1 -1,-1 -2,-2 -65,-82 -128,-252 26,-375 z"
           id="path5001"
           style="fill:#ffffff;fill-opacity:0.2"
           inkscape:connector-curvature="0" />
        <path
           class="fil16"
           d="m 6777,1310 c 31,-82 93,-136 138,-118 45,17 56,98 24,181 -31,82 -94,136 -138,118 -45,-17 -56,-98 -24,-181 z"
           id="path5003"
           style="fill:#ffffff;fill-opacity:0.2"
           inkscape:connector-curvature="0" />
        <path
           class="fil17"
           d="m 7194,1276 c 10,-5 25,3 33,19 7,16 4,33 -6,38 -11,5 -26,-4 -33,-19 -8,-16 -5,-33 6,-38 z"
           id="path5005"
           style="fill:#ffffff;fill-opacity:0.50196078"
           inkscape:connector-curvature="0" />
        <path
           class="fil17"
           d="m 6793,1300 c 16,-33 44,-53 62,-44 18,8 19,42 3,76 -16,33 -44,53 -62,44 -18,-9 -19,-43 -3,-76 z"
           id="path5007"
           style="fill:#ffffff;fill-opacity:0.50196078"
           inkscape:connector-curvature="0" />
        <path
           class="fil17"
           d="m 6779,1421 c -1,-18 7,-32 16,-33 10,0 18,14 19,31 1,18 -6,33 -16,33 -9,1 -18,-13 -19,-31 z"
           id="path5009"
           style="fill:#ffffff;fill-opacity:0.50196078"
           inkscape:connector-curvature="0" />
      </g>
      <g
         id="g5011">
        <path
           class="fil90"
           d="m 7948,1202 c -154,-122 -305,-22 -370,59 -65,82 -6,190 103,277 110,87 228,121 293,39 65,-82 128,-252 -26,-375 z"
           id="path5013"
           style="fill:#ea75eb"
           inkscape:connector-curvature="0" />
        <path
           class="fil90"
           d="m 7921,1509 c 51,116 215,-149 26,-299 -205,-162 -398,59 -294,86 77,20 233,133 268,213 z"
           id="path5015"
           style="fill:#ea75eb"
           inkscape:connector-curvature="0" />
        <g
           id="g5017">
          <path
             class="fil91"
             d="m 7926,1501 c 46,110 205,-138 28,-283 -193,-157 -377,48 -279,76 73,20 219,130 251,207 z"
             id="path5019"
             style="fill:#eb79ec;fill-opacity:0.952941"
             inkscape:connector-curvature="0" />
          <path
             class="fil92"
             d="m 7931,1492 c 42,105 194,-125 29,-266 -179,-152 -355,38 -263,66 68,21 204,127 234,200 z"
             id="path5021"
             style="fill:#ec7ded;fill-opacity:0.90980398"
             inkscape:connector-curvature="0" />
          <path
             class="fil93"
             d="m 7936,1483 c 38,100 184,-113 31,-249 -166,-147 -334,27 -248,56 64,21 190,124 217,193 z"
             id="path5023"
             style="fill:#ed82ee;fill-opacity:0.86274498"
             inkscape:connector-curvature="0" />
          <path
             class="fil94"
             d="m 7940,1475 c 35,94 174,-102 33,-233 -153,-142 -312,17 -232,46 59,21 176,121 199,187 z"
             id="path5025"
             style="fill:#ee86ef;fill-opacity:0.81960796"
             inkscape:connector-curvature="0" />
          <path
             class="fil95"
             d="m 7945,1466 c 30,89 164,-89 35,-216 -140,-137 -291,6 -217,36 54,21 161,118 182,180 z"
             id="path5027"
             style="fill:#ef8af0;fill-opacity:0.77254896"
             inkscape:connector-curvature="0" />
          <path
             class="fil96"
             d="m 7950,1457 c 26,84 153,-77 36,-199 -126,-132 -269,-4 -201,26 50,22 147,115 165,173 z"
             id="path5029"
             style="fill:#f18ef2;fill-opacity:0.72548996"
             inkscape:connector-curvature="0" />
          <path
             class="fil97"
             d="m 7955,1449 c 22,78 142,-65 38,-183 -114,-127 -248,-14 -186,16 45,22 132,112 148,167 z"
             id="path5031"
             style="fill:#f292f3;fill-opacity:0.682353"
             inkscape:connector-curvature="0" />
          <path
             class="fil98"
             d="m 7960,1440 c 18,73 132,-53 39,-166 -100,-122 -226,-25 -170,6 41,22 118,109 131,160 z"
             id="path5033"
             style="fill:#f396f4;fill-opacity:0.635294"
             inkscape:connector-curvature="0" />
          <path
             class="fil99"
             d="m 7964,1431 c 15,68 122,-41 42,-149 -87,-117 -205,-35 -156,-5 37,24 105,107 114,154 z"
             id="path5035"
             style="fill:#f49bf5;fill-opacity:0.59215698"
             inkscape:connector-curvature="0" />
          <path
             class="fil100"
             d="m 7969,1422 c 10,63 112,-28 44,-132 -75,-112 -184,-46 -141,-15 33,24 90,104 97,147 z"
             id="path5037"
             style="fill:#f59ff6;fill-opacity:0.54509798"
             inkscape:connector-curvature="0" />
        </g>
        <path
           class="fil101"
           d="m 7974,1414 c 6,57 101,-17 45,-116 -61,-107 -162,-56 -125,-25 28,24 76,101 80,141 z"
           id="path5039"
           style="fill:#f6a3f7;fill-opacity:0.50196078"
           inkscape:connector-curvature="0" />
        <path
           class="fil102"
           d="m 7948,1202 c -154,-122 -305,-22 -370,59 -4,5 -7,9 -10,14 72,-77 212,-153 355,-40 142,113 99,267 40,354 4,-4 7,-8 11,-12 65,-82 128,-252 -26,-375 z"
           id="path5041"
           style="fill:#f6a3f7"
           inkscape:connector-curvature="0" />
        <path
           class="fil16"
           d="m 7948,1202 c -136,-108 -270,-42 -344,31 219,101 156,311 368,346 1,-1 1,-1 2,-2 65,-82 128,-252 -26,-375 z"
           id="path5043"
           style="fill:#ffffff;fill-opacity:0.2"
           inkscape:connector-curvature="0" />
        <path
           class="fil16"
           d="m 8021,1310 c -32,-82 -94,-136 -139,-118 -45,17 -55,98 -24,181 32,82 94,136 139,118 45,-17 56,-98 24,-181 z"
           id="path5045"
           style="fill:#ffffff;fill-opacity:0.2"
           inkscape:connector-curvature="0" />
        <path
           class="fil17"
           d="m 7604,1276 c -11,-5 -26,3 -33,19 -8,16 -5,33 6,38 10,5 25,-4 33,-19 7,-16 5,-33 -6,-38 z"
           id="path5047"
           style="fill:#ffffff;fill-opacity:0.50196078"
           inkscape:connector-curvature="0" />
        <path
           class="fil17"
           d="m 8005,1300 c -17,-33 -44,-53 -62,-44 -18,8 -20,42 -3,76 16,33 44,53 62,44 18,-9 19,-43 3,-76 z"
           id="path5049"
           style="fill:#ffffff;fill-opacity:0.50196078"
           inkscape:connector-curvature="0" />
        <path
           class="fil17"
           d="m 8018,1421 c 1,-18 -6,-32 -16,-33 -9,0 -18,14 -19,31 0,18 7,33 16,33 10,1 18,-13 19,-31 z"
           id="path5051"
           style="fill:#ffffff;fill-opacity:0.50196078"
           inkscape:connector-curvature="0" />
      </g>
      <g
         id="g5053">
        <path
           class="fil90"
           d="m 7364,1100 c -257,30 -305,263 -289,400 15,137 170,181 353,161 183,-21 324,-99 309,-236 -16,-137 -115,-354 -373,-325 z"
           id="path5055"
           style="fill:#ea75eb"
           inkscape:connector-curvature="0" />
        <path
           class="fil90"
           d="m 7625,1411 c 154,61 61,-339 -254,-302 -342,40 -316,424 -195,353 91,-53 341,-93 449,-51 z"
           id="path5057"
           style="fill:#ea75eb"
           inkscape:connector-curvature="0" />
        <g
           id="g5059">
          <path
             class="fil91"
             d="m 7621,1399 c 146,59 63,-319 -237,-289 -325,33 -305,395 -189,330 87,-49 325,-82 426,-41 z"
             id="path5061"
             style="fill:#eb79ec;fill-opacity:0.952941"
             inkscape:connector-curvature="0" />
          <path
             class="fil92"
             d="m 7617,1386 c 138,58 65,-297 -219,-274 -309,25 -295,365 -184,306 82,-45 308,-72 403,-32 z"
             id="path5063"
             style="fill:#ec7ded;fill-opacity:0.90980398"
             inkscape:connector-curvature="0" />
          <path
             class="fil93"
             d="m 7614,1374 c 128,57 66,-277 -203,-261 -291,17 -285,335 -179,282 79,-39 293,-61 382,-21 z"
             id="path5065"
             style="fill:#ed82ee;fill-opacity:0.86274498"
             inkscape:connector-curvature="0" />
          <path
             class="fil94"
             d="m 7610,1361 c 120,56 68,-256 -185,-247 -275,10 -275,306 -174,259 75,-35 276,-51 359,-12 z"
             id="path5067"
             style="fill:#ee86ef;fill-opacity:0.81960796"
             inkscape:connector-curvature="0" />
          <path
             class="fil95"
             d="m 7607,1349 c 111,54 69,-235 -169,-233 -257,2 -264,276 -169,235 71,-31 261,-40 338,-2 z"
             id="path5069"
             style="fill:#ef8af0;fill-opacity:0.77254896"
             inkscape:connector-curvature="0" />
          <path
             class="fil96"
             d="m 7603,1336 c 102,53 71,-214 -151,-219 -241,-5 -254,246 -164,211 67,-26 244,-29 315,8 z"
             id="path5071"
             style="fill:#f18ef2;fill-opacity:0.72548996"
             inkscape:connector-curvature="0" />
          <path
             class="fil97"
             d="m 7599,1323 c 94,52 73,-193 -134,-204 -224,-13 -244,216 -159,187 64,-22 229,-19 293,17 z"
             id="path5073"
             style="fill:#f292f3;fill-opacity:0.682353"
             inkscape:connector-curvature="0" />
          <path
             class="fil98"
             d="m 7596,1311 c 85,51 74,-172 -117,-191 -207,-20 -234,187 -154,164 59,-18 212,-8 271,27 z"
             id="path5075"
             style="fill:#f396f4;fill-opacity:0.635294"
             inkscape:connector-curvature="0" />
          <path
             class="fil99"
             d="m 7592,1298 c 76,50 76,-151 -99,-177 -191,-27 -224,157 -150,140 56,-12 196,3 249,37 z"
             id="path5077"
             style="fill:#f49bf5;fill-opacity:0.59215698"
             inkscape:connector-curvature="0" />
          <path
             class="fil100"
             d="m 7589,1286 c 67,48 77,-131 -83,-163 -173,-36 -214,127 -144,116 52,-8 180,13 227,47 z"
             id="path5079"
             style="fill:#f59ff6;fill-opacity:0.54509798"
             inkscape:connector-curvature="0" />
        </g>
        <path
           class="fil101"
           d="m 7585,1273 c 59,47 79,-110 -65,-149 -157,-43 -204,98 -140,93 48,-4 164,23 205,56 z"
           id="path5081"
           style="fill:#f6a3f7;fill-opacity:0.50196078"
           inkscape:connector-curvature="0" />
        <path
           class="fil102"
           d="m 7364,1100 c -257,30 -305,263 -289,400 0,7 2,15 3,22 -4,-139 55,-340 293,-367 237,-27 340,156 367,292 0,-7 -1,-15 -1,-22 -16,-137 -115,-354 -373,-325 z"
           id="path5083"
           style="fill:#f6a3f7"
           inkscape:connector-curvature="0" />
        <path
           class="fil16"
           d="m 7364,1100 c -227,26 -291,212 -292,349 298,-110 435,144 665,-20 0,-1 0,-3 0,-4 -16,-137 -115,-354 -373,-325 z"
           id="path5085"
           style="fill:#ffffff;fill-opacity:0.2"
           inkscape:connector-curvature="0" />
        <path
           class="fil16"
           d="m 7532,1133 c -106,-47 -213,-39 -239,19 -26,58 40,143 146,191 107,47 214,39 240,-19 25,-58 -40,-143 -147,-191 z"
           id="path5087"
           style="fill:#ffffff;fill-opacity:0.2"
           inkscape:connector-curvature="0" />
        <path
           class="fil17"
           d="m 7112,1489 c -14,5 -20,27 -12,49 7,22 26,35 40,30 15,-5 21,-27 13,-49 -8,-22 -26,-35 -41,-30 z"
           id="path5089"
           style="fill:#ffffff;fill-opacity:0.50196078"
           inkscape:connector-curvature="0" />
        <path
           class="fil17"
           d="m 7507,1139 c -46,-16 -90,-9 -98,16 -9,25 21,58 67,74 46,16 91,8 99,-17 9,-25 -22,-58 -68,-73 z"
           id="path5091"
           style="fill:#ffffff;fill-opacity:0.50196078"
           inkscape:connector-curvature="0" />
        <path
           class="fil17"
           d="m 7633,1239 c -16,-17 -36,-25 -46,-16 -9,8 -4,29 12,47 16,17 36,24 45,15 10,-8 4,-29 -11,-46 z"
           id="path5093"
           style="fill:#ffffff;fill-opacity:0.50196078"
           inkscape:connector-curvature="0" />
      </g>
      <circle
         class="fil103"
         cx="7041"
         cy="1921"
         r="160"
         id="circle5095"
         style="fill:#cf4ada" />
      <g
         id="g5097">
        <ellipse
           class="fil65"
           cx="6911"
           cy="2054"
           rx="69"
           ry="36"
           id="ellipse5099"
           style="fill:#ff6666" />
        <path
           class="fil66"
           d="m 6975,2040 c 3,4 5,9 5,14 0,20 -31,36 -69,36 -38,0 -69,-16 -69,-36 0,-5 2,-10 5,-14 l 0,1 c 0,20 28,36 64,36 35,0 64,-16 64,-36 l 0,-1 z"
           id="path5101"
           style="fill:#ff4747"
           inkscape:connector-curvature="0" />
        <ellipse
           class="fil67"
           transform="matrix(0.471507,-0.115182,0.115182,0.471507,6881.37,2041.72)"
           rx="62"
           ry="32"
           id="ellipse5103"
           cx="0"
           cy="0"
           style="fill:#ff9d9d" />
      </g>
      <circle
         class="fil103"
         cx="7736"
         cy="1921"
         r="160"
         id="circle5105"
         style="fill:#cf4ada" />
      <g
         id="g5107">
        <ellipse
           class="fil65"
           cx="7866"
           cy="2054"
           rx="69"
           ry="36"
           id="ellipse5109"
           style="fill:#ff6666" />
        <path
           class="fil66"
           d="m 7930,2040 c 3,4 5,9 5,14 0,20 -31,36 -69,36 -38,0 -69,-16 -69,-36 0,-5 2,-10 5,-14 l 0,1 c 0,20 28,36 64,36 35,0 64,-16 64,-36 l 0,-1 z"
           id="path5111"
           style="fill:#ff4747"
           inkscape:connector-curvature="0" />
        <ellipse
           class="fil67"
           transform="matrix(0.471507,-0.115182,0.115182,0.471507,7836.34,2041.72)"
           rx="62"
           ry="32"
           id="ellipse5113"
           cx="0"
           cy="0"
           style="fill:#ff9d9d" />
      </g>
      <path
         class="fil68"
         d="m 7041,1885 c 42,0 78,19 103,49 -29,-17 -64,-27 -103,-27 -38,0 -74,10 -102,27 24,-30 61,-49 102,-49 z"
         id="path5115"
         style="fill:#000000"
         inkscape:connector-curvature="0" />
      <path
         class="fil68"
         d="m 7753,1885 c 42,0 79,19 103,49 -29,-17 -64,-27 -103,-27 -38,0 -74,10 -102,27 24,-30 61,-49 102,-49 z"
         id="path5117"
         style="fill:#000000"
         inkscape:connector-curvature="0" />
      <path
         class="fil72"
         d="m 7263,2008 c -4,-4 -5,-10 -1,-14 4,-4 10,-5 14,-1 16,15 33,23 50,24 17,1 36,-7 57,-24 4,-4 10,-3 14,1 l 3,3 c 18,15 36,23 53,22 17,0 33,-8 48,-24 l 3,-3 c 4,-4 10,-4 14,-1 4,4 4,10 1,14 l -3,4 0,0 0,0 c -19,20 -40,30 -62,30 -22,1 -44,-8 -65,-25 -22,16 -43,24 -64,23 -22,-1 -43,-11 -62,-29 z"
         id="path5119"
         style="fill:#000000;fill-rule:nonzero"
         inkscape:connector-curvature="0" />
    </g>
  </g>
</svg>
